<?xml version="1.0" encoding="us-ascii" standalone="no"?><svg xmlns="http://www.w3.org/2000/svg" xmlns:xlink="http://www.w3.org/1999/xlink" contentStyleType="text/css" height="867px" preserveAspectRatio="none" style="width:2371px;height:867px;background:#FFFFFF;" version="1.1" viewBox="0 0 2371 867" width="2371px" zoomAndPan="magnify"><defs/><g><g id="elem_cu"><rect fill="#F1F1F1" height="23.0679" style="stroke:#181818;stroke-width:0.5;" width="123" x="678.5" y="7"/><text fill="#000000" font-family="sans-serif" font-size="14" lengthAdjust="spacing" textLength="109" x="685.5" y="23.9659">CompilationUnit</text></g><g id="elem_cd"><rect fill="#F1F1F1" height="23.0679" style="stroke:#181818;stroke-width:0.5;" width="126" x="677" y="90"/><text fill="#000000" font-family="sans-serif" font-size="14" lengthAdjust="spacing" textLength="112" x="684" y="106.9659">ClassDeclaration</text></g><g id="elem_c"><rect fill="#F1F1F1" height="23.0679" style="stroke:#181818;stroke-width:0.5;" width="193" x="542.5" y="173"/><text fill="#000000" font-family="sans-serif" font-size="14" lengthAdjust="spacing" textLength="179" x="549.5" y="189.9659">Class: NumberGuessGame</text></g><g id="elem_md"><rect fill="#F1F1F1" height="23.0679" style="stroke:#181818;stroke-width:0.5;" width="143" x="770.5" y="173"/><text fill="#000000" font-family="sans-serif" font-size="14" lengthAdjust="spacing" textLength="129" x="777.5" y="189.9659">MethodDeclaration</text></g><g id="elem_m"><rect fill="#F1F1F1" height="23.0679" style="stroke:#181818;stroke-width:0.5;" width="141" x="694.5" y="256"/><text fill="#000000" font-family="sans-serif" font-size="14" lengthAdjust="spacing" textLength="127" x="701.5" y="272.9659">Method: playGame</text></g><g id="elem_mb"><rect fill="#F1F1F1" height="23.0679" style="stroke:#181818;stroke-width:0.5;" width="99" x="870.5" y="256"/><text fill="#000000" font-family="sans-serif" font-size="14" lengthAdjust="spacing" textLength="85" x="877.5" y="272.9659">MethodBody</text></g><g id="elem_var1"><rect fill="#F1F1F1" height="23.0679" style="stroke:#181818;stroke-width:0.5;" width="241" x="62.5" y="339"/><text fill="#000000" font-family="sans-serif" font-size="14" lengthAdjust="spacing" textLength="227" x="69.5" y="355.9659">LocalVariableDeclaration: random</text></g><g id="elem_new1"><rect fill="#F1F1F1" height="23.0679" style="stroke:#181818;stroke-width:0.5;" width="189" x="88.5" y="422"/><text fill="#000000" font-family="sans-serif" font-size="14" lengthAdjust="spacing" textLength="175" x="95.5" y="438.9659">NewExpression: Random()</text></g><g id="elem_var2"><rect fill="#F1F1F1" height="23.0679" style="stroke:#181818;stroke-width:0.5;" width="285" x="338.5" y="339"/><text fill="#000000" font-family="sans-serif" font-size="14" lengthAdjust="spacing" textLength="271" x="345.5" y="355.9659">LocalVariableDeclaration: secretNumber</text></g><g id="elem_add1"><rect fill="#F1F1F1" height="23.0679" style="stroke:#181818;stroke-width:0.5;" width="146" x="408" y="422"/><text fill="#000000" font-family="sans-serif" font-size="14" lengthAdjust="spacing" textLength="132" x="415" y="438.9659">BinaryExpression: +</text></g><g id="elem_mi1"><rect fill="#F1F1F1" height="23.0679" style="stroke:#181818;stroke-width:0.5;" width="192" x="196" y="505"/><text fill="#000000" font-family="sans-serif" font-size="14" lengthAdjust="spacing" textLength="178" x="203" y="521.9659">MethodInvocation: nextInt</text></g><g id="elem_randRef1"><rect fill="#F1F1F1" height="23.0679" style="stroke:#181818;stroke-width:0.5;" width="198" x="7" y="588"/><text fill="#000000" font-family="sans-serif" font-size="14" lengthAdjust="spacing" textLength="184" x="14" y="604.9659">VariableReference: random</text></g><g id="elem_int1"><rect fill="#F1F1F1" height="23.0679" style="stroke:#181818;stroke-width:0.5;" width="138" x="240" y="588"/><text fill="#000000" font-family="sans-serif" font-size="14" lengthAdjust="spacing" textLength="124" x="247" y="604.9659">IntegerLiteral: 100</text></g><g id="elem_int2"><rect fill="#F1F1F1" height="23.0679" style="stroke:#181818;stroke-width:0.5;" width="122" x="423" y="505"/><text fill="#000000" font-family="sans-serif" font-size="14" lengthAdjust="spacing" textLength="108" x="430" y="521.9659">IntegerLiteral: 1</text></g><g id="elem_var3"><rect fill="#F1F1F1" height="23.0679" style="stroke:#181818;stroke-width:0.5;" width="242" x="659" y="339"/><text fill="#000000" font-family="sans-serif" font-size="14" lengthAdjust="spacing" textLength="228" x="666" y="355.9659">LocalVariableDeclaration: scanner</text></g><g id="elem_new2"><rect fill="#F1F1F1" height="23.0679" style="stroke:#181818;stroke-width:0.5;" width="253" x="653.5" y="422"/><text fill="#000000" font-family="sans-serif" font-size="14" lengthAdjust="spacing" textLength="239" x="660.5" y="438.9659">NewExpression: Scanner(System.in)</text></g><g id="elem_var4"><rect fill="#F1F1F1" height="23.0679" style="stroke:#181818;stroke-width:0.5;" width="248" x="936" y="339"/><text fill="#000000" font-family="sans-serif" font-size="14" lengthAdjust="spacing" textLength="234" x="943" y="355.9659">LocalVariableDeclaration: attempts</text></g><g id="elem_int3"><rect fill="#F1F1F1" height="23.0679" style="stroke:#181818;stroke-width:0.5;" width="122" x="992" y="422"/><text fill="#000000" font-family="sans-serif" font-size="14" lengthAdjust="spacing" textLength="108" x="999" y="438.9659">IntegerLiteral: 3</text></g><g id="elem_ws"><rect fill="#F1F1F1" height="23.0679" style="stroke:#181818;stroke-width:0.5;" width="121" x="1219.5" y="339"/><text fill="#000000" font-family="sans-serif" font-size="14" lengthAdjust="spacing" textLength="107" x="1226.5" y="355.9659">WhileStatement</text></g><g id="elem_wcond"><rect fill="#F1F1F1" height="23.0679" style="stroke:#181818;stroke-width:0.5;" width="79" x="1149.5" y="422"/><text fill="#000000" font-family="sans-serif" font-size="14" lengthAdjust="spacing" textLength="65" x="1156.5" y="438.9659">Condition</text></g><g id="elem_gt"><rect fill="#F1F1F1" height="23.0679" style="stroke:#181818;stroke-width:0.5;" width="146" x="676" y="505"/><text fill="#000000" font-family="sans-serif" font-size="14" lengthAdjust="spacing" textLength="132" x="683" y="521.9659">BinaryExpression: &gt;</text></g><g id="elem_attRef1"><rect fill="#F1F1F1" height="23.0679" style="stroke:#181818;stroke-width:0.5;" width="205" x="447.5" y="588"/><text fill="#000000" font-family="sans-serif" font-size="14" lengthAdjust="spacing" textLength="191" x="454.5" y="604.9659">VariableReference: attempts</text></g><g id="elem_int4"><rect fill="#F1F1F1" height="23.0679" style="stroke:#181818;stroke-width:0.5;" width="122" x="688" y="588"/><text fill="#000000" font-family="sans-serif" font-size="14" lengthAdjust="spacing" textLength="108" x="695" y="604.9659">IntegerLiteral: 0</text></g><g id="elem_wb"><rect fill="#F1F1F1" height="23.0679" style="stroke:#181818;stroke-width:0.5;" width="49" x="1263.5" y="422"/><text fill="#000000" font-family="sans-serif" font-size="14" lengthAdjust="spacing" textLength="35" x="1270.5" y="438.9659">Block</text></g><g id="elem_ps1"><rect fill="#F1F1F1" height="23.0679" style="stroke:#181818;stroke-width:0.5;" width="115" x="977.5" y="505"/><text fill="#000000" font-family="sans-serif" font-size="14" lengthAdjust="spacing" textLength="101" x="984.5" y="521.9659">PrintStatement</text></g><g id="elem_str1"><rect fill="#F1F1F1" height="23.0679" style="stroke:#181818;stroke-width:0.5;" width="303" x="845.5" y="588"/><text fill="#000000" font-family="sans-serif" font-size="14" lengthAdjust="spacing" textLength="289" x="852.5" y="604.9659">StringLiteral: Introduce un n&#250;mero (1-100):</text></g><g id="elem_var5"><rect fill="#F1F1F1" height="23.0679" style="stroke:#181818;stroke-width:0.5;" width="228" x="1169" y="505"/><text fill="#000000" font-family="sans-serif" font-size="14" lengthAdjust="spacing" textLength="214" x="1176" y="521.9659">LocalVariableDeclaration: guess</text></g><g id="elem_mi2"><rect fill="#F1F1F1" height="23.0679" style="stroke:#181818;stroke-width:0.5;" width="192" x="1184" y="588"/><text fill="#000000" font-family="sans-serif" font-size="14" lengthAdjust="spacing" textLength="178" x="1191" y="604.9659">MethodInvocation: nextInt</text></g><g id="elem_scanRef1"><rect fill="#F1F1F1" height="23.0679" style="stroke:#181818;stroke-width:0.5;" width="199" x="887.5" y="671"/><text fill="#000000" font-family="sans-serif" font-size="14" lengthAdjust="spacing" textLength="185" x="894.5" y="687.9659">VariableReference: scanner</text></g><g id="elem_ifs"><rect fill="#F1F1F1" height="23.0679" style="stroke:#181818;stroke-width:0.5;" width="93" x="1477.5" y="505"/><text fill="#000000" font-family="sans-serif" font-size="14" lengthAdjust="spacing" textLength="79" x="1484.5" y="521.9659">IfStatement</text></g><g id="elem_ifcond"><rect fill="#F1F1F1" height="23.0679" style="stroke:#181818;stroke-width:0.5;" width="79" x="1411.5" y="588"/><text fill="#000000" font-family="sans-serif" font-size="14" lengthAdjust="spacing" textLength="65" x="1418.5" y="604.9659">Condition</text></g><g id="elem_eq"><rect fill="#F1F1F1" height="23.0679" style="stroke:#181818;stroke-width:0.5;" width="154" x="1122" y="671"/><text fill="#000000" font-family="sans-serif" font-size="14" lengthAdjust="spacing" textLength="140" x="1129" y="687.9659">BinaryExpression: ==</text></g><g id="elem_guessRef1"><rect fill="#F1F1F1" height="23.0679" style="stroke:#181818;stroke-width:0.5;" width="185" x="837.5" y="754"/><text fill="#000000" font-family="sans-serif" font-size="14" lengthAdjust="spacing" textLength="171" x="844.5" y="770.9659">VariableReference: guess</text></g><g id="elem_secRef1"><rect fill="#F1F1F1" height="23.0679" style="stroke:#181818;stroke-width:0.5;" width="242" x="1057" y="754"/><text fill="#000000" font-family="sans-serif" font-size="14" lengthAdjust="spacing" textLength="228" x="1064" y="770.9659">VariableReference: secretNumber</text></g><g id="elem_tb"><rect fill="#F1F1F1" height="23.0679" style="stroke:#181818;stroke-width:0.5;" width="83" x="1525.5" y="588"/><text fill="#000000" font-family="sans-serif" font-size="14" lengthAdjust="spacing" textLength="69" x="1532.5" y="604.9659">ThenBlock</text></g><g id="elem_ps2"><rect fill="#F1F1F1" height="23.0679" style="stroke:#181818;stroke-width:0.5;" width="115" x="1352.5" y="671"/><text fill="#000000" font-family="sans-serif" font-size="14" lengthAdjust="spacing" textLength="101" x="1359.5" y="687.9659">PrintStatement</text></g><g id="elem_str2"><rect fill="#F1F1F1" height="23.0679" style="stroke:#181818;stroke-width:0.5;" width="193" x="1334.5" y="754"/><text fill="#000000" font-family="sans-serif" font-size="14" lengthAdjust="spacing" textLength="179" x="1341.5" y="770.9659">StringLiteral: &#161;Has ganado!</text></g><g id="elem_ret"><rect fill="#F1F1F1" height="23.0679" style="stroke:#181818;stroke-width:0.5;" width="129" x="1502.5" y="671"/><text fill="#000000" font-family="sans-serif" font-size="14" lengthAdjust="spacing" textLength="115" x="1509.5" y="687.9659">ReturnStatement</text></g><g id="elem_eib"><rect fill="#F1F1F1" height="23.0679" style="stroke:#181818;stroke-width:0.5;" width="86" x="1663" y="588"/><text fill="#000000" font-family="sans-serif" font-size="14" lengthAdjust="spacing" textLength="72" x="1670" y="604.9659">ElseIfBlock</text></g><g id="elem_eibcond"><rect fill="#F1F1F1" height="23.0679" style="stroke:#181818;stroke-width:0.5;" width="79" x="1666.5" y="671"/><text fill="#000000" font-family="sans-serif" font-size="14" lengthAdjust="spacing" textLength="65" x="1673.5" y="687.9659">Condition</text></g><g id="elem_lt"><rect fill="#F1F1F1" height="23.0679" style="stroke:#181818;stroke-width:0.5;" width="146" x="1563" y="754"/><text fill="#000000" font-family="sans-serif" font-size="14" lengthAdjust="spacing" textLength="132" x="1570" y="770.9659">BinaryExpression: &lt;</text></g><g id="elem_guessRef2"><rect fill="#F1F1F1" height="23.0679" style="stroke:#181818;stroke-width:0.5;" width="185" x="1419.5" y="837"/><text fill="#000000" font-family="sans-serif" font-size="14" lengthAdjust="spacing" textLength="171" x="1426.5" y="853.9659">VariableReference: guess</text></g><g id="elem_secRef2"><rect fill="#F1F1F1" height="23.0679" style="stroke:#181818;stroke-width:0.5;" width="242" x="1639" y="837"/><text fill="#000000" font-family="sans-serif" font-size="14" lengthAdjust="spacing" textLength="228" x="1646" y="853.9659">VariableReference: secretNumber</text></g><g id="elem_ps3"><rect fill="#F1F1F1" height="23.0679" style="stroke:#181818;stroke-width:0.5;" width="115" x="1780.5" y="671"/><text fill="#000000" font-family="sans-serif" font-size="14" lengthAdjust="spacing" textLength="101" x="1787.5" y="687.9659">PrintStatement</text></g><g id="elem_str3"><rect fill="#F1F1F1" height="23.0679" style="stroke:#181818;stroke-width:0.5;" width="239" x="1744.5" y="754"/><text fill="#000000" font-family="sans-serif" font-size="14" lengthAdjust="spacing" textLength="225" x="1751.5" y="770.9659">StringLiteral: El n&#250;mero es mayor</text></g><g id="elem_eb"><rect fill="#F1F1F1" height="23.0679" style="stroke:#181818;stroke-width:0.5;" width="76" x="1867" y="588"/><text fill="#000000" font-family="sans-serif" font-size="14" lengthAdjust="spacing" textLength="62" x="1874" y="604.9659">ElseBlock</text></g><g id="elem_ps4"><rect fill="#F1F1F1" height="23.0679" style="stroke:#181818;stroke-width:0.5;" width="115" x="1930.5" y="671"/><text fill="#000000" font-family="sans-serif" font-size="14" lengthAdjust="spacing" textLength="101" x="1937.5" y="687.9659">PrintStatement</text></g><g id="elem_str4"><rect fill="#F1F1F1" height="23.0679" style="stroke:#181818;stroke-width:0.5;" width="241" x="2018.5" y="754"/><text fill="#000000" font-family="sans-serif" font-size="14" lengthAdjust="spacing" textLength="227" x="2025.5" y="770.9659">StringLiteral: El n&#250;mero es menor</text></g><g id="elem_es"><rect fill="#F1F1F1" height="23.0679" style="stroke:#181818;stroke-width:0.5;" width="156" x="1606" y="505"/><text fill="#000000" font-family="sans-serif" font-size="14" lengthAdjust="spacing" textLength="142" x="1613" y="521.9659">ExpressionStatement</text></g><g id="elem_dec"><rect fill="#F1F1F1" height="23.0679" style="stroke:#181818;stroke-width:0.5;" width="161" x="2040.5" y="588"/><text fill="#000000" font-family="sans-serif" font-size="14" lengthAdjust="spacing" textLength="147" x="2047.5" y="604.9659">DecrementExpression</text></g><g id="elem_attRef2"><rect fill="#F1F1F1" height="23.0679" style="stroke:#181818;stroke-width:0.5;" width="205" x="2080.5" y="671"/><text fill="#000000" font-family="sans-serif" font-size="14" lengthAdjust="spacing" textLength="191" x="2087.5" y="687.9659">VariableReference: attempts</text></g><g id="elem_ps5"><rect fill="#F1F1F1" height="23.0679" style="stroke:#181818;stroke-width:0.5;" width="115" x="1630.5" y="339"/><text fill="#000000" font-family="sans-serif" font-size="14" lengthAdjust="spacing" textLength="101" x="1637.5" y="355.9659">PrintStatement</text></g><g id="elem_concat"><rect fill="#F1F1F1" height="23.0679" style="stroke:#181818;stroke-width:0.5;" width="152" x="1867" y="422"/><text fill="#000000" font-family="sans-serif" font-size="14" lengthAdjust="spacing" textLength="138" x="1874" y="438.9659">StringConcatenation</text></g><g id="elem_str5"><rect fill="#F1F1F1" height="23.0679" style="stroke:#181818;stroke-width:0.5;" width="291" x="1797.5" y="505"/><text fill="#000000" font-family="sans-serif" font-size="14" lengthAdjust="spacing" textLength="273" x="1804.5" y="521.9659">StringLiteral: &#161;Game Over! El n&#250;mero era</text></g><g id="elem_secRef3"><rect fill="#F1F1F1" height="23.0679" style="stroke:#181818;stroke-width:0.5;" width="242" x="2123" y="505"/><text fill="#000000" font-family="sans-serif" font-size="14" lengthAdjust="spacing" textLength="228" x="2130" y="521.9659">VariableReference: secretNumber</text></g><!--link cu to cd--><g id="link_cu_cd"><path codeLine="72" d="M740,30.09 C740,45.61 740,68.38 740,83.91 " fill="none" id="cu-to-cd" style="stroke:#181818;stroke-width:1.0;"/><polygon fill="#181818" points="740,89.91,744,80.91,740,84.91,736,80.91,740,89.91" style="stroke:#181818;stroke-width:1.0;"/></g><!--link cd to c--><g id="link_cd_c"><path codeLine="73" d="M726.8,113.09 C707.44,128.61 676.2503,153.6256 656.8903,169.1556 " fill="none" id="cd-to-c" style="stroke:#181818;stroke-width:1.0;"/><polygon fill="#181818" points="652.21,172.91,661.7333,170.3986,656.1102,169.7814,656.7275,164.1583,652.21,172.91" style="stroke:#181818;stroke-width:1.0;"/></g><!--link cd to md--><g id="link_cd_md"><path codeLine="74" d="M753.33,113.09 C772.88,128.61 804.4119,153.648 823.9619,169.178 " fill="none" id="cd-to-md" style="stroke:#181818;stroke-width:1.0;"/><polygon fill="#181818" points="828.66,172.91,824.1009,164.1799,824.7449,169.8,819.1249,170.444,828.66,172.91" style="stroke:#181818;stroke-width:1.0;"/></g><!--link md to m--><g id="link_md_m"><path codeLine="75" d="M831.93,196.09 C817.18,211.61 793.9635,236.0309 779.2035,251.5609 " fill="none" id="md-to-m" style="stroke:#181818;stroke-width:1.0;"/><polygon fill="#181818" points="775.07,255.91,784.1696,252.142,778.5145,252.2858,778.3708,246.6307,775.07,255.91" style="stroke:#181818;stroke-width:1.0;"/></g><!--link md to mb--><g id="link_md_mb"><path codeLine="76" d="M852.2,196.09 C867.15,211.61 890.6888,236.0574 905.6388,251.5874 " fill="none" id="md-to-mb" style="stroke:#181818;stroke-width:1.0;"/><polygon fill="#181818" points="909.8,255.91,906.44,246.652,906.3324,252.3078,900.6765,252.2002,909.8,255.91" style="stroke:#181818;stroke-width:1.0;"/></g><!--link mb to var1--><g id="link_mb_var1"><path codeLine="78" d="M870.28,276.58 C864.46,277.44 858.6,278.27 853,279 C659.62,304.31 439.8643,326.0049 305.9843,338.4449 " fill="none" id="mb-to-var1" style="stroke:#181818;stroke-width:1.0;"/><polygon fill="#181818" points="300.01,339,309.3415,342.1502,304.9886,338.5374,308.6013,334.1845,300.01,339" style="stroke:#181818;stroke-width:1.0;"/></g><!--link var1 to new1--><g id="link_var1_new1"><path codeLine="79" d="M183,362.09 C183,377.61 183,400.38 183,415.91 " fill="none" id="var1-to-new1" style="stroke:#181818;stroke-width:1.0;"/><polygon fill="#181818" points="183,421.91,187,412.91,183,416.91,179,412.91,183,421.91" style="stroke:#181818;stroke-width:1.0;"/></g><!--link mb to var2--><g id="link_mb_var2"><path codeLine="81" d="M870.49,277.63 C788.42,292.78 630.5603,321.9008 543.8303,337.9108 " fill="none" id="mb-to-var2" style="stroke:#181818;stroke-width:1.0;"/><polygon fill="#181818" points="537.93,339,547.5066,341.2998,542.8469,338.0924,546.0544,333.4327,537.93,339" style="stroke:#181818;stroke-width:1.0;"/></g><!--link var2 to add1--><g id="link_var2_add1"><path codeLine="82" d="M481,362.09 C481,377.61 481,400.38 481,415.91 " fill="none" id="var2-to-add1" style="stroke:#181818;stroke-width:1.0;"/><polygon fill="#181818" points="481,421.91,485,412.91,481,416.91,477,412.91,481,421.91" style="stroke:#181818;stroke-width:1.0;"/></g><!--link add1 to mi1--><g id="link_add1_mi1"><path codeLine="83" d="M456.29,445.09 C420.07,460.61 358.4547,487.0161 322.2247,502.5461 " fill="none" id="add1-to-mi1" style="stroke:#181818;stroke-width:1.0;"/><polygon fill="#181818" points="316.71,504.91,326.558,505.0407,321.3056,502.9401,323.4061,497.6877,316.71,504.91" style="stroke:#181818;stroke-width:1.0;"/></g><!--link mi1 to randRef1--><g id="link_mi1_randRef1"><path codeLine="84" d="M267.68,528.09 C232.04,543.61 171.4707,569.9838 135.8207,585.5138 " fill="none" id="mi1-to-randRef1" style="stroke:#181818;stroke-width:1.0;"/><polygon fill="#181818" points="130.32,587.91,140.1686,587.9828,134.9039,585.9131,136.9736,580.6485,130.32,587.91" style="stroke:#181818;stroke-width:1.0;"/></g><!--link mi1 to int1--><g id="link_mi1_int1"><path codeLine="85" d="M294.22,528.09 C297.48,543.61 302.2874,566.508 305.5474,582.038 " fill="none" id="mi1-to-int1" style="stroke:#181818;stroke-width:1.0;"/><polygon fill="#181818" points="306.78,587.91,308.8457,578.2802,305.7528,583.0167,301.0164,579.9237,306.78,587.91" style="stroke:#181818;stroke-width:1.0;"/></g><!--link add1 to int2--><g id="link_add1_int2"><path codeLine="86" d="M481.39,445.09 C481.97,460.61 482.8061,483.3842 483.3861,498.9142 " fill="none" id="add1-to-int2" style="stroke:#181818;stroke-width:1.0;"/><polygon fill="#181818" points="483.61,504.91,487.2713,495.767,483.4234,499.9135,479.2769,496.0656,483.61,504.91" style="stroke:#181818;stroke-width:1.0;"/></g><!--link mb to var3--><g id="link_mb_var3"><path codeLine="88" d="M901.7,279.09 C874.87,294.61 830.3328,320.3742 803.5028,335.9042 " fill="none" id="mb-to-var3" style="stroke:#181818;stroke-width:1.0;"/><polygon fill="#181818" points="798.31,338.91,808.1031,337.8632,802.6374,336.4052,804.0954,330.9395,798.31,338.91" style="stroke:#181818;stroke-width:1.0;"/></g><!--link var3 to new2--><g id="link_var3_new2"><path codeLine="89" d="M780,362.09 C780,377.61 780,400.38 780,415.91 " fill="none" id="var3-to-new2" style="stroke:#181818;stroke-width:1.0;"/><polygon fill="#181818" points="780,421.91,784,412.91,780,416.91,776,412.91,780,421.91" style="stroke:#181818;stroke-width:1.0;"/></g><!--link mb to var4--><g id="link_mb_var4"><path codeLine="91" d="M938.3,279.09 C965.13,294.61 1009.6672,320.3742 1036.4972,335.9042 " fill="none" id="mb-to-var4" style="stroke:#181818;stroke-width:1.0;"/><polygon fill="#181818" points="1041.69,338.91,1035.9046,330.9395,1037.3626,336.4052,1031.8969,337.8632,1041.69,338.91" style="stroke:#181818;stroke-width:1.0;"/></g><!--link var4 to int3--><g id="link_var4_int3"><path codeLine="92" d="M1059.08,362.09 C1057.74,377.61 1055.7758,400.4022 1054.4358,415.9322 " fill="none" id="var4-to-int3" style="stroke:#181818;stroke-width:1.0;"/><polygon fill="#181818" points="1053.92,421.91,1058.6789,413.2872,1054.3498,416.9285,1050.7085,412.5995,1053.92,421.91" style="stroke:#181818;stroke-width:1.0;"/></g><!--link mb to ws--><g id="link_mb_ws"><path codeLine="94" d="M966.69,279.01 C1035.66,294.52 1158.1665,322.0824 1227.2465,337.6324 " fill="none" id="mb-to-ws" style="stroke:#181818;stroke-width:1.0;"/><polygon fill="#181818" points="1233.1,338.95,1225.1981,333.0712,1228.2221,337.852,1223.4413,340.8759,1233.1,338.95" style="stroke:#181818;stroke-width:1.0;"/></g><!--link ws to wcond--><g id="link_ws_wcond"><path codeLine="95" d="M1268.1,362.09 C1250.66,377.61 1222.8209,402.3898 1205.3809,417.9198 " fill="none" id="ws-to-wcond" style="stroke:#181818;stroke-width:1.0;"/><polygon fill="#181818" points="1200.9,421.91,1210.2815,418.912,1204.6341,418.5849,1204.9613,412.9375,1200.9,421.91" style="stroke:#181818;stroke-width:1.0;"/></g><!--link wcond to gt--><g id="link_wcond_gt"><path codeLine="96" d="M1149.18,441.83 C1070.91,456.24 902.6809,487.2139 812.1109,503.8839 " fill="none" id="wcond-to-gt" style="stroke:#181818;stroke-width:1.0;"/><polygon fill="#181818" points="806.21,504.97,815.7854,507.2748,811.1274,504.0649,814.3373,499.4069,806.21,504.97" style="stroke:#181818;stroke-width:1.0;"/></g><!--link gt to attRef1--><g id="link_gt_attRef1"><path codeLine="97" d="M722.98,528.09 C684.85,543.61 619.717,570.1173 581.577,585.6473 " fill="none" id="gt-to-attRef1" style="stroke:#181818;stroke-width:1.0;"/><polygon fill="#181818" points="576.02,587.91,585.864,588.2206,580.6508,586.0244,582.847,580.8113,576.02,587.91" style="stroke:#181818;stroke-width:1.0;"/></g><!--link gt to int4--><g id="link_gt_int4"><path codeLine="98" d="M749,528.09 C749,543.61 749,566.38 749,581.91 " fill="none" id="gt-to-int4" style="stroke:#181818;stroke-width:1.0;"/><polygon fill="#181818" points="749,587.91,753,578.91,749,582.91,745,578.91,749,587.91" style="stroke:#181818;stroke-width:1.0;"/></g><!--link ws to wb--><g id="link_ws_wb"><path codeLine="100" d="M1281.05,362.09 C1282.58,377.61 1284.8317,400.4089 1286.3617,415.9389 " fill="none" id="ws-to-wb" style="stroke:#181818;stroke-width:1.0;"/><polygon fill="#181818" points="1286.95,421.91,1290.0483,412.5612,1286.4598,416.9341,1282.0869,413.3455,1286.95,421.91" style="stroke:#181818;stroke-width:1.0;"/></g><!--link wb to ps1--><g id="link_wb_ps1"><path codeLine="101" d="M1263.28,442.41 C1217.52,457.06 1125.3244,486.5807 1073.8744,503.0507 " fill="none" id="wb-to-ps1" style="stroke:#181818;stroke-width:1.0;"/><polygon fill="#181818" points="1068.16,504.88,1077.951,505.9457,1072.922,503.3556,1075.512,498.3265,1068.16,504.88" style="stroke:#181818;stroke-width:1.0;"/></g><!--link ps1 to str1--><g id="link_ps1_str1"><path codeLine="102" d="M1030.03,528.09 C1022.75,543.61 1011.7967,566.9473 1004.5167,582.4773 " fill="none" id="ps1-to-str1" style="stroke:#181818;stroke-width:1.0;"/><polygon fill="#181818" points="1001.97,587.91,1009.4118,581.4587,1004.0922,583.3827,1002.1682,578.0631,1001.97,587.91" style="stroke:#181818;stroke-width:1.0;"/></g><!--link wb to var5--><g id="link_wb_var5"><path codeLine="104" d="M1287.35,445.09 C1286.39,460.61 1284.9802,483.3914 1284.0202,498.9214 " fill="none" id="wb-to-var5" style="stroke:#181818;stroke-width:1.0;"/><polygon fill="#181818" points="1283.65,504.91,1288.1977,496.1739,1283.9585,499.9195,1280.2129,495.6804,1283.65,504.91" style="stroke:#181818;stroke-width:1.0;"/></g><!--link var5 to mi2--><g id="link_var5_mi2"><path codeLine="105" d="M1282.61,528.09 C1282.03,543.61 1281.1939,566.3842 1280.6139,581.9142 " fill="none" id="var5-to-mi2" style="stroke:#181818;stroke-width:1.0;"/><polygon fill="#181818" points="1280.39,587.91,1284.7231,579.0656,1280.5766,582.9135,1276.7287,578.767,1280.39,587.91" style="stroke:#181818;stroke-width:1.0;"/></g><!--link mi2 to scanRef1--><g id="link_mi2_scanRef1"><path codeLine="106" d="M1242,611.01 C1185.94,626.5 1087.4633,653.7321 1031.1833,669.2821 " fill="none" id="mi2-to-scanRef1" style="stroke:#181818;stroke-width:1.0;"/><polygon fill="#181818" points="1025.4,670.88,1035.1402,672.3387,1030.2194,669.5484,1033.0097,664.6276,1025.4,670.88" style="stroke:#181818;stroke-width:1.0;"/></g><!--link wb to ifs--><g id="link_wb_ifs"><path codeLine="108" d="M1312.81,443.02 C1356.24,457.92 1440.245,486.752 1487.555,502.992 " fill="none" id="wb-to-ifs" style="stroke:#181818;stroke-width:1.0;"/><polygon fill="#181818" points="1493.23,504.94,1486.0162,498.2346,1488.5009,503.3166,1483.4189,505.8013,1493.23,504.94" style="stroke:#181818;stroke-width:1.0;"/></g><!--link ifs to ifcond--><g id="link_ifs_ifcond"><path codeLine="109" d="M1514.46,528.09 C1500.47,543.61 1478.5558,567.9221 1464.5658,583.4521 " fill="none" id="ifs-to-ifcond" style="stroke:#181818;stroke-width:1.0;"/><polygon fill="#181818" points="1460.55,587.91,1469.5457,583.9004,1463.8965,584.1951,1463.6018,578.5459,1460.55,587.91" style="stroke:#181818;stroke-width:1.0;"/></g><!--link ifcond to eq--><g id="link_ifcond_eq"><path codeLine="110" d="M1418.31,611.01 C1370.1,626.5 1286.1424,653.4947 1237.7424,669.0447 " fill="none" id="ifcond-to-eq" style="stroke:#181818;stroke-width:1.0;"/><polygon fill="#181818" points="1232.03,670.88,1241.8222,671.9353,1236.7903,669.3506,1239.3751,664.3188,1232.03,670.88" style="stroke:#181818;stroke-width:1.0;"/></g><!--link eq to guessRef1--><g id="link_eq_guessRef1"><path codeLine="111" d="M1164.11,694.01 C1112.65,709.5 1022.6755,736.6009 971.0055,752.1509 " fill="none" id="eq-to-guessRef1" style="stroke:#181818;stroke-width:1.0;"/><polygon fill="#181818" points="965.26,753.88,975.0309,755.1167,970.0479,752.4391,972.7255,747.4561,965.26,753.88" style="stroke:#181818;stroke-width:1.0;"/></g><!--link eq to secRef1--><g id="link_eq_secRef1"><path codeLine="112" d="M1196.25,694.09 C1192.23,709.61 1186.2736,732.5714 1182.2536,748.1014 " fill="none" id="eq-to-secRef1" style="stroke:#181818;stroke-width:1.0;"/><polygon fill="#181818" points="1180.75,753.91,1186.8777,746.1995,1182.003,749.0695,1179.133,744.1948,1180.75,753.91" style="stroke:#181818;stroke-width:1.0;"/></g><!--link ifs to tb--><g id="link_ifs_tb"><path codeLine="114" d="M1529.62,528.09 C1537.86,543.61 1550.3278,567.0798 1558.5678,582.6098 " fill="none" id="ifs-to-tb" style="stroke:#181818;stroke-width:1.0;"/><polygon fill="#181818" points="1561.38,587.91,1560.6952,578.085,1559.0365,583.4932,1553.6283,581.8346,1561.38,587.91" style="stroke:#181818;stroke-width:1.0;"/></g><!--link tb to ps2--><g id="link_tb_ps2"><path codeLine="115" d="M1546.47,611.09 C1516.39,626.61 1465.9517,652.6282 1435.8617,668.1582 " fill="none" id="tb-to-ps2" style="stroke:#181818;stroke-width:1.0;"/><polygon fill="#181818" points="1430.53,670.91,1440.3622,670.3368,1434.9731,668.6168,1436.6931,663.2278,1430.53,670.91" style="stroke:#181818;stroke-width:1.0;"/></g><!--link ps2 to str2--><g id="link_ps2_str2"><path codeLine="116" d="M1412.75,694.09 C1416.77,709.61 1422.7264,732.5714 1426.7464,748.1014 " fill="none" id="ps2-to-str2" style="stroke:#181818;stroke-width:1.0;"/><polygon fill="#181818" points="1428.25,753.91,1429.867,744.1948,1426.997,749.0695,1422.1223,746.1995,1428.25,753.91" style="stroke:#181818;stroke-width:1.0;"/></g><!--link tb to ret--><g id="link_tb_ret"><path codeLine="117" d="M1567,611.09 C1567,626.61 1567,649.38 1567,664.91 " fill="none" id="tb-to-ret" style="stroke:#181818;stroke-width:1.0;"/><polygon fill="#181818" points="1567,670.91,1571,661.91,1567,665.91,1563,661.91,1567,670.91" style="stroke:#181818;stroke-width:1.0;"/></g><!--link ifs to eib--><g id="link_ifs_eib"><path codeLine="119" d="M1547.79,528.09 C1582.67,543.61 1641.8388,569.9395 1676.7188,585.4695 " fill="none" id="ifs-to-eib" style="stroke:#181818;stroke-width:1.0;"/><polygon fill="#181818" points="1682.2,587.91,1675.6051,580.5951,1677.6323,585.8763,1672.3511,587.9035,1682.2,587.91" style="stroke:#181818;stroke-width:1.0;"/></g><!--link eib to eibcond--><g id="link_eib_eibcond"><path codeLine="120" d="M1706,611.09 C1706,626.61 1706,649.38 1706,664.91 " fill="none" id="eib-to-eibcond" style="stroke:#181818;stroke-width:1.0;"/><polygon fill="#181818" points="1706,670.91,1710,661.91,1706,665.91,1702,661.91,1706,670.91" style="stroke:#181818;stroke-width:1.0;"/></g><!--link eibcond to lt--><g id="link_eibcond_lt"><path codeLine="121" d="M1696.85,694.09 C1683.43,709.61 1662.493,733.8402 1649.073,749.3702 " fill="none" id="eibcond-to-lt" style="stroke:#181818;stroke-width:1.0;"/><polygon fill="#181818" points="1645.15,753.91,1654.0611,749.7156,1648.4192,750.1268,1648.008,744.4849,1645.15,753.91" style="stroke:#181818;stroke-width:1.0;"/></g><!--link lt to guessRef2--><g id="link_lt_guessRef2"><path codeLine="122" d="M1619.79,777.09 C1596.02,792.61 1557.003,818.0983 1533.233,833.6283 " fill="none" id="lt-to-guessRef2" style="stroke:#181818;stroke-width:1.0;"/><polygon fill="#181818" points="1528.21,836.91,1537.9323,835.3361,1532.3958,834.1752,1533.5566,828.6388,1528.21,836.91" style="stroke:#181818;stroke-width:1.0;"/></g><!--link lt to secRef2--><g id="link_lt_secRef2"><path codeLine="123" d="M1652.21,777.09 C1675.98,792.61 1714.997,818.0983 1738.767,833.6283 " fill="none" id="lt-to-secRef2" style="stroke:#181818;stroke-width:1.0;"/><polygon fill="#181818" points="1743.79,836.91,1738.4434,828.6388,1739.6042,834.1752,1734.0677,835.3361,1743.79,836.91" style="stroke:#181818;stroke-width:1.0;"/></g><!--link eib to ps3--><g id="link_eib_ps3"><path codeLine="124" d="M1723.26,611.09 C1748.55,626.61 1790.3265,652.2412 1815.6265,667.7712 " fill="none" id="eib-to-ps3" style="stroke:#181818;stroke-width:1.0;"/><polygon fill="#181818" points="1820.74,670.91,1815.1623,662.7928,1816.4788,668.2943,1810.9772,669.6107,1820.74,670.91" style="stroke:#181818;stroke-width:1.0;"/></g><!--link ps3 to str3--><g id="link_ps3_str3"><path codeLine="125" d="M1841.4,694.09 C1846.38,709.61 1853.7879,732.6666 1858.7679,748.1966 " fill="none" id="ps3-to-str3" style="stroke:#181818;stroke-width:1.0;"/><polygon fill="#181818" points="1860.6,753.91,1861.6608,744.1184,1859.0732,749.1488,1854.0429,746.5613,1860.6,753.91" style="stroke:#181818;stroke-width:1.0;"/></g><!--link ifs to eb--><g id="link_ifs_eb"><path codeLine="127" d="M1570.72,527.43 C1646.92,543.63 1790.6411,574.1926 1860.9311,589.1326 " fill="none" id="ifs-to-eb" style="stroke:#181818;stroke-width:1.0;"/><polygon fill="#181818" points="1866.8,590.38,1858.8283,584.5963,1861.9093,589.3405,1857.165,592.4215,1866.8,590.38" style="stroke:#181818;stroke-width:1.0;"/></g><!--link eb to ps4--><g id="link_eb_ps4"><path codeLine="128" d="M1915.85,611.09 C1931.76,626.61 1956.9464,651.1889 1972.8564,666.7189 " fill="none" id="eb-to-ps4" style="stroke:#181818;stroke-width:1.0;"/><polygon fill="#181818" points="1977.15,670.91,1973.5036,661.761,1973.572,667.4175,1967.9156,667.4858,1977.15,670.91" style="stroke:#181818;stroke-width:1.0;"/></g><!--link ps4 to str4--><g id="link_ps4_str4"><path codeLine="129" d="M2007.74,694.09 C2036.68,709.61 2085.0231,735.5429 2113.9631,751.0729 " fill="none" id="ps4-to-str4" style="stroke:#181818;stroke-width:1.0;"/><polygon fill="#181818" points="2119.25,753.91,2113.2111,746.1298,2114.8443,751.5458,2109.4283,753.179,2119.25,753.91" style="stroke:#181818;stroke-width:1.0;"/></g><!--link wb to es--><g id="link_wb_es"><path codeLine="131" d="M1312.77,439.57 C1376.35,452.57 1540.4718,486.1373 1626.5918,503.7573 " fill="none" id="wb-to-es" style="stroke:#181818;stroke-width:1.0;"/><polygon fill="#181818" points="1632.47,504.96,1624.4544,499.2372,1627.5715,503.9578,1622.8509,507.0748,1632.47,504.96" style="stroke:#181818;stroke-width:1.0;"/></g><!--link es to dec--><g id="link_es_dec"><path codeLine="132" d="M1740.68,528.01 C1824.4,543.52 1974.3106,571.3061 2058.1706,586.8561 " fill="none" id="es-to-dec" style="stroke:#181818;stroke-width:1.0;"/><polygon fill="#181818" points="2064.07,587.95,2055.9501,582.3762,2059.1538,587.0384,2054.4916,590.2421,2064.07,587.95" style="stroke:#181818;stroke-width:1.0;"/></g><!--link dec to attRef2--><g id="link_dec_attRef2"><path codeLine="133" d="M2129.11,611.09 C2140.99,626.61 2159.3645,650.6145 2171.2445,666.1445 " fill="none" id="dec-to-attRef2" style="stroke:#181818;stroke-width:1.0;"/><polygon fill="#181818" points="2174.89,670.91,2172.5988,661.3314,2171.8521,666.9387,2166.2447,666.192,2174.89,670.91" style="stroke:#181818;stroke-width:1.0;"/></g><!--link mb to ps5--><g id="link_mb_ps5"><path codeLine="135" d="M969.5,273.72 C1105.6,288.07 1478.9231,327.4508 1624.3031,342.7808 " fill="none" id="mb-to-ps5" style="stroke:#181818;stroke-width:1.0;"/><polygon fill="#181818" points="1630.27,343.41,1621.7391,338.4883,1625.2976,342.8857,1620.9002,346.4441,1630.27,343.41" style="stroke:#181818;stroke-width:1.0;"/></g><!--link ps5 to concat--><g id="link_ps5_concat"><path codeLine="136" d="M1721.08,362.01 C1769.86,377.5 1854.8813,404.5144 1903.8613,420.0644 " fill="none" id="ps5-to-concat" style="stroke:#181818;stroke-width:1.0;"/><polygon fill="#181818" points="1909.58,421.88,1902.2123,415.3442,1904.8144,420.367,1899.7915,422.9691,1909.58,421.88" style="stroke:#181818;stroke-width:1.0;"/></g><!--link concat to str5--><g id="link_concat_str5"><path codeLine="137" d="M1943,445.09 C1943,460.61 1943,483.38 1943,498.91 " fill="none" id="concat-to-str5" style="stroke:#181818;stroke-width:1.0;"/><polygon fill="#181818" points="1943,504.91,1947,495.91,1943,499.91,1939,495.91,1943,504.91" style="stroke:#181818;stroke-width:1.0;"/></g><!--link concat to secRef3--><g id="link_concat_secRef3"><path codeLine="138" d="M1982.04,445.01 C2039.62,460.5 2140.9359,487.7717 2198.7559,503.3217 " fill="none" id="concat-to-secRef3" style="stroke:#181818;stroke-width:1.0;"/><polygon fill="#181818" points="2204.55,504.88,2196.8977,498.6799,2199.7216,503.5815,2194.82,506.4054,2204.55,504.88" style="stroke:#181818;stroke-width:1.0;"/></g><!--SRC=[dLRDKjim4Bxp52edc0uTOZkNJE50OIWpb7P8VywolKdKsdAGPKmUfw_HO_jYNQqioSwG7pZ8MMa_xRzsin0vC2YNUiLAA5DGzS51bVw4JBF33rMv50NNefBVfD27ZDSiQmAxu7Lz2Ld15M4iFn_o9-okCMAl6wZhQrw2HNdG9z2BAb-NKkPhW0bR5dpbxvThx8igNrb66io_hJ9UVETAyBI0deO9KrpcLKaN7haQ-Hjtq5uzBHLQIh1xWXqT4r12Ezf7TWsP0csTTXeYV-z2IAvMVILl2SJpVBJcquryH2LMg8GdVIDj1aeHaCw2UvY10fd1m3T38YV0KGJCGTqA3OeN4pOwFIMWa7eBo46YlTpFk9J1ytXJRASMTpHTrHhATqBwAE-bXcjjYhPsUfADviVE_3Z8_R4G1KmrHndGHRMjUsKlS-5BiSrmkoL_vuIQwsqv6LYBcwr9yIb9Wi4NHPNzikQa_l2BGj3GYsKTv4urykTUBAfHLTvam1h9vBy_9QYA7OrEi0QE9tIvrcgl2f-Rf-m2FzwxQgDj4UgNZQ4fGY54iw6ROhOfMsAs8rrdPuI3XstM10-96gJhEUFNdpmU31tukW0PSgXtv33QbCE_lpyQcxZaUVN6vIoWxq4tIWwbeM71ZAkYXfjPC0H4kY6EoDaHoFU4A_JBuXYz8exHzcZ5cw9rLVWw1on0lggKYrayZ4al8ZjIa-of36HGrdl78O13mH3g-T84mJ02bY0vP2ziCRr6-gmlupLVi0BmvOBi3NCwsLoDPXwppu-WtWpyLvmvtyUlo3Sc9slOoScv-JEHvPPo1FupA3lA4pZpovH8ckRcGpixiWChCgo8TZHlpSTAm96AYsW_DDq13KSFjNCmo8oDpDYf6x0ImqhShTYpSDIqjQNeZT6NzZX5vjhQrms9RckdWRkL7hHMacdtk8YstRlrsiT6-xXpBq9lhEEXkNPGqqjnTJGPP7_e1FiaF5ZRV2Vi3doJSxUnhMbdLuHsHSwko9rJCt9mqtnmEPeqTxzqXgsbq0FLaJjmVS5TDqq0bzCNzvIW3eT949CuJE83W6yFBDWyCLoz18HyckU2onQZVHRsnmaS3_PT8Vy7]--></g></svg>