<?xml version="1.0" encoding="us-ascii" standalone="no"?><svg xmlns="http://www.w3.org/2000/svg" xmlns:xlink="http://www.w3.org/1999/xlink" contentStyleType="text/css" height="701px" preserveAspectRatio="none" style="width:686px;height:701px;background:#FFFFFF;" version="1.1" viewBox="0 0 686 701" width="686px" zoomAndPan="magnify"><defs/><g><g id="elem_A"><rect fill="#F1F1F1" height="23.0679" style="stroke:#181818;stroke-width:0.5;" width="123" x="134" y="7"/><text fill="#000000" font-family="sans-serif" font-size="14" lengthAdjust="spacing" textLength="109" x="141" y="23.9659">CompilationUnit</text></g><g id="elem_B"><rect fill="#F1F1F1" height="23.0679" style="stroke:#181818;stroke-width:0.5;" width="126" x="132.5" y="90"/><text fill="#000000" font-family="sans-serif" font-size="14" lengthAdjust="spacing" textLength="112" x="139.5" y="106.9659">ClassDeclaration</text></g><g id="elem_C"><rect fill="#F1F1F1" height="23.0679" style="stroke:#181818;stroke-width:0.5;" width="125" x="49" y="173"/><text fill="#000000" font-family="sans-serif" font-size="14" lengthAdjust="spacing" textLength="111" x="56" y="189.9659">Class: Calculator</text></g><g id="elem_D"><rect fill="#F1F1F1" height="23.0679" style="stroke:#181818;stroke-width:0.5;" width="143" x="209" y="173"/><text fill="#000000" font-family="sans-serif" font-size="14" lengthAdjust="spacing" textLength="129" x="216" y="189.9659">MethodDeclaration</text></g><g id="elem_E"><rect fill="#F1F1F1" height="23.0679" style="stroke:#181818;stroke-width:0.5;" width="193" x="7" y="256"/><text fill="#000000" font-family="sans-serif" font-size="14" lengthAdjust="spacing" textLength="179" x="14" y="272.9659">Method: calculateDiscount</text></g><g id="elem_F"><rect fill="#F1F1F1" height="23.0679" style="stroke:#181818;stroke-width:0.5;" width="91" x="235" y="256"/><text fill="#000000" font-family="sans-serif" font-size="14" lengthAdjust="spacing" textLength="77" x="242" y="272.9659">Parameters</text></g><g id="elem_G"><rect fill="#F1F1F1" height="23.0679" style="stroke:#181818;stroke-width:0.5;" width="103" x="74" y="339"/><text fill="#000000" font-family="sans-serif" font-size="14" lengthAdjust="spacing" textLength="89" x="81" y="355.9659">double: price</text></g><g id="elem_H"><rect fill="#F1F1F1" height="23.0679" style="stroke:#181818;stroke-width:0.5;" width="137" x="212" y="339"/><text fill="#000000" font-family="sans-serif" font-size="14" lengthAdjust="spacing" textLength="123" x="219" y="355.9659">int: customerLevel</text></g><g id="elem_I"><rect fill="#F1F1F1" height="23.0679" style="stroke:#181818;stroke-width:0.5;" width="99" x="371" y="256"/><text fill="#000000" font-family="sans-serif" font-size="14" lengthAdjust="spacing" textLength="85" x="378" y="272.9659">MethodBody</text></g><g id="elem_J"><rect fill="#F1F1F1" height="23.0679" style="stroke:#181818;stroke-width:0.5;" width="93" x="384" y="339"/><text fill="#000000" font-family="sans-serif" font-size="14" lengthAdjust="spacing" textLength="79" x="391" y="355.9659">IfStatement</text></g><g id="elem_K"><rect fill="#F1F1F1" height="23.0679" style="stroke:#181818;stroke-width:0.5;" width="79" x="247" y="422"/><text fill="#000000" font-family="sans-serif" font-size="14" lengthAdjust="spacing" textLength="65" x="254" y="438.9659">Condition</text></g><g id="elem_L"><rect fill="#F1F1F1" height="23.0679" style="stroke:#181818;stroke-width:0.5;" width="146" x="184.5" y="505"/><text fill="#000000" font-family="sans-serif" font-size="14" lengthAdjust="spacing" textLength="132" x="191.5" y="521.9659">BinaryExpression: &gt;</text></g><g id="elem_M"><rect fill="#F1F1F1" height="23.0679" style="stroke:#181818;stroke-width:0.5;" width="111" x="123" y="588"/><text fill="#000000" font-family="sans-serif" font-size="14" lengthAdjust="spacing" textLength="97" x="130" y="604.9659">customerLevel</text></g><g id="elem_N"><rect fill="#F1F1F1" height="23.0679" style="stroke:#181818;stroke-width:0.5;" width="22" x="269.5" y="588"/><text fill="#000000" font-family="sans-serif" font-size="14" lengthAdjust="spacing" textLength="8" x="276.5" y="604.9659">5</text></g><g id="elem_O"><rect fill="#F1F1F1" height="23.0679" style="stroke:#181818;stroke-width:0.5;" width="83" x="389" y="422"/><text fill="#000000" font-family="sans-serif" font-size="14" lengthAdjust="spacing" textLength="69" x="396" y="438.9659">ThenBlock</text></g><g id="elem_P"><rect fill="#F1F1F1" height="23.0679" style="stroke:#181818;stroke-width:0.5;" width="129" x="366" y="505"/><text fill="#000000" font-family="sans-serif" font-size="14" lengthAdjust="spacing" textLength="115" x="373" y="521.9659">ReturnStatement</text></g><g id="elem_Q"><rect fill="#F1F1F1" height="23.0679" style="stroke:#181818;stroke-width:0.5;" width="146" x="353.5" y="588"/><text fill="#000000" font-family="sans-serif" font-size="14" lengthAdjust="spacing" textLength="132" x="360.5" y="604.9659">BinaryExpression: *</text></g><g id="elem_R"><rect fill="#F1F1F1" height="23.0679" style="stroke:#181818;stroke-width:0.5;" width="48" x="371.5" y="671"/><text fill="#000000" font-family="sans-serif" font-size="14" lengthAdjust="spacing" textLength="34" x="378.5" y="687.9659">price</text></g><g id="elem_S"><rect fill="#F1F1F1" height="23.0679" style="stroke:#181818;stroke-width:0.5;" width="34" x="454.5" y="671"/><text fill="#000000" font-family="sans-serif" font-size="14" lengthAdjust="spacing" textLength="20" x="461.5" y="687.9659">0.2</text></g><g id="elem_T"><rect fill="#F1F1F1" height="23.0679" style="stroke:#181818;stroke-width:0.5;" width="76" x="531.5" y="422"/><text fill="#000000" font-family="sans-serif" font-size="14" lengthAdjust="spacing" textLength="62" x="538.5" y="438.9659">ElseBlock</text></g><g id="elem_U"><rect fill="#F1F1F1" height="23.0679" style="stroke:#181818;stroke-width:0.5;" width="129" x="538" y="505"/><text fill="#000000" font-family="sans-serif" font-size="14" lengthAdjust="spacing" textLength="115" x="545" y="521.9659">ReturnStatement</text></g><g id="elem_V"><rect fill="#F1F1F1" height="23.0679" style="stroke:#181818;stroke-width:0.5;" width="146" x="534.5" y="588"/><text fill="#000000" font-family="sans-serif" font-size="14" lengthAdjust="spacing" textLength="132" x="541.5" y="604.9659">BinaryExpression: *</text></g><g id="elem_W"><rect fill="#F1F1F1" height="23.0679" style="stroke:#181818;stroke-width:0.5;" width="48" x="537.5" y="671"/><text fill="#000000" font-family="sans-serif" font-size="14" lengthAdjust="spacing" textLength="34" x="544.5" y="687.9659">price</text></g><g id="elem_X"><rect fill="#F1F1F1" height="23.0679" style="stroke:#181818;stroke-width:0.5;" width="34" x="620.5" y="671"/><text fill="#000000" font-family="sans-serif" font-size="14" lengthAdjust="spacing" textLength="20" x="627.5" y="687.9659">0.1</text></g><!--link A to B--><g id="link_A_B"><path codeLine="29" d="M195.5,30.09 C195.5,45.61 195.5,68.38 195.5,83.91 " fill="none" id="A-to-B" style="stroke:#181818;stroke-width:1.0;"/><polygon fill="#181818" points="195.5,89.91,199.5,80.91,195.5,84.91,191.5,80.91,195.5,89.91" style="stroke:#181818;stroke-width:1.0;"/></g><!--link B to C--><g id="link_B_C"><path codeLine="30" d="M184.52,113.09 C168.42,128.61 142.8984,153.2145 126.7984,168.7445 " fill="none" id="B-to-C" style="stroke:#181818;stroke-width:1.0;"/><polygon fill="#181818" points="122.48,172.91,131.7346,169.5407,126.0787,169.4387,126.1806,163.7828,122.48,172.91" style="stroke:#181818;stroke-width:1.0;"/></g><!--link B to D--><g id="link_B_D"><path codeLine="31" d="M206.61,113.09 C222.9,128.61 248.746,153.2412 265.046,168.7712 " fill="none" id="B-to-D" style="stroke:#181818;stroke-width:1.0;"/><polygon fill="#181818" points="269.39,172.91,265.6332,163.8058,265.77,169.461,260.1148,169.5978,269.39,172.91" style="stroke:#181818;stroke-width:1.0;"/></g><!--link D to E--><g id="link_D_E"><path codeLine="32" d="M257.36,196.09 C223.44,211.61 166.0254,237.8823 132.1054,253.4123 " fill="none" id="D-to-E" style="stroke:#181818;stroke-width:1.0;"/><polygon fill="#181818" points="126.65,255.91,136.4982,255.8004,131.1962,253.8286,133.168,248.5265,126.65,255.91" style="stroke:#181818;stroke-width:1.0;"/></g><!--link D to F--><g id="link_D_F"><path codeLine="33" d="M280.5,196.09 C280.5,211.61 280.5,234.38 280.5,249.91 " fill="none" id="D-to-F" style="stroke:#181818;stroke-width:1.0;"/><polygon fill="#181818" points="280.5,255.91,284.5,246.91,280.5,250.91,276.5,246.91,280.5,255.91" style="stroke:#181818;stroke-width:1.0;"/></g><!--link F to G--><g id="link_F_G"><path codeLine="34" d="M260.24,279.09 C230.53,294.61 180.7974,320.6005 151.0874,336.1305 " fill="none" id="F-to-G" style="stroke:#181818;stroke-width:1.0;"/><polygon fill="#181818" points="145.77,338.91,155.599,338.2857,150.2011,336.5938,151.8931,331.1958,145.77,338.91" style="stroke:#181818;stroke-width:1.0;"/></g><!--link F to H--><g id="link_F_H"><path codeLine="35" d="M280.5,279.09 C280.5,294.61 280.5,317.38 280.5,332.91 " fill="none" id="F-to-H" style="stroke:#181818;stroke-width:1.0;"/><polygon fill="#181818" points="280.5,338.91,284.5,329.91,280.5,333.91,276.5,329.91,280.5,338.91" style="stroke:#181818;stroke-width:1.0;"/></g><!--link D to I--><g id="link_D_I"><path codeLine="36" d="M298.8,196.09 C325.63,211.61 370.1672,237.3742 396.9972,252.9042 " fill="none" id="D-to-I" style="stroke:#181818;stroke-width:1.0;"/><polygon fill="#181818" points="402.19,255.91,396.4046,247.9395,397.8626,253.4052,392.3969,254.8632,402.19,255.91" style="stroke:#181818;stroke-width:1.0;"/></g><!--link I to J--><g id="link_I_J"><path codeLine="37" d="M421.81,279.09 C423.72,294.61 426.5476,317.4249 428.4576,332.9549 " fill="none" id="I-to-J" style="stroke:#181818;stroke-width:1.0;"/><polygon fill="#181818" points="429.19,338.91,432.0615,329.489,428.5797,333.9474,424.1213,330.4656,429.19,338.91" style="stroke:#181818;stroke-width:1.0;"/></g><!--link J to K--><g id="link_J_K"><path codeLine="38" d="M411.67,362.09 C384.08,377.61 338.159,403.4377 310.559,418.9677 " fill="none" id="J-to-K" style="stroke:#181818;stroke-width:1.0;"/><polygon fill="#181818" points="305.33,421.91,315.1351,420.9826,309.6875,419.4581,311.212,414.0105,305.33,421.91" style="stroke:#181818;stroke-width:1.0;"/></g><!--link K to L--><g id="link_K_L"><path codeLine="39" d="M282.71,445.09 C277.15,460.61 268.8724,483.7311 263.3124,499.2611 " fill="none" id="K-to-L" style="stroke:#181818;stroke-width:1.0;"/><polygon fill="#181818" points="261.29,504.91,268.0895,497.7849,262.9753,500.2026,260.5577,495.0884,261.29,504.91" style="stroke:#181818;stroke-width:1.0;"/></g><!--link L to M--><g id="link_L_M"><path codeLine="40" d="M247.17,528.09 C232.03,543.61 208.1584,568.0838 193.0184,583.6138 " fill="none" id="L-to-M" style="stroke:#181818;stroke-width:1.0;"/><polygon fill="#181818" points="188.83,587.91,197.9767,584.2579,192.3203,584.3298,192.2484,578.6734,188.83,587.91" style="stroke:#181818;stroke-width:1.0;"/></g><!--link L to N--><g id="link_L_N"><path codeLine="41" d="M260.51,528.09 C264.91,543.61 271.441,566.6082 275.851,582.1382 " fill="none" id="L-to-N" style="stroke:#181818;stroke-width:1.0;"/><polygon fill="#181818" points="277.49,587.91,278.8794,578.1596,276.1242,583.1002,271.1836,580.345,277.49,587.91" style="stroke:#181818;stroke-width:1.0;"/></g><!--link J to O--><g id="link_J_O"><path codeLine="42" d="M430.5,362.09 C430.5,377.61 430.5,400.38 430.5,415.91 " fill="none" id="J-to-O" style="stroke:#181818;stroke-width:1.0;"/><polygon fill="#181818" points="430.5,421.91,434.5,412.91,430.5,416.91,426.5,412.91,430.5,421.91" style="stroke:#181818;stroke-width:1.0;"/></g><!--link O to P--><g id="link_O_P"><path codeLine="43" d="M430.5,445.09 C430.5,460.61 430.5,483.38 430.5,498.91 " fill="none" id="O-to-P" style="stroke:#181818;stroke-width:1.0;"/><polygon fill="#181818" points="430.5,504.91,434.5,495.91,430.5,499.91,426.5,495.91,430.5,504.91" style="stroke:#181818;stroke-width:1.0;"/></g><!--link P to Q--><g id="link_P_Q"><path codeLine="44" d="M429.98,528.09 C429.21,543.61 428.0871,566.3874 427.3171,581.9174 " fill="none" id="P-to-Q" style="stroke:#181818;stroke-width:1.0;"/><polygon fill="#181818" points="427.02,587.91,431.4608,579.1191,427.2676,582.9161,423.4706,578.723,427.02,587.91" style="stroke:#181818;stroke-width:1.0;"/></g><!--link Q to R--><g id="link_Q_R"><path codeLine="45" d="M422.45,611.09 C416.51,626.61 407.6466,649.7771 401.6966,665.3071 " fill="none" id="Q-to-R" style="stroke:#181818;stroke-width:1.0;"/><polygon fill="#181818" points="399.55,670.91,406.5052,663.9368,401.3388,666.241,399.0347,661.0746,399.55,670.91" style="stroke:#181818;stroke-width:1.0;"/></g><!--link Q to S--><g id="link_Q_S"><path codeLine="46" d="M432.38,611.09 C441.01,626.61 454.0756,650.1354 462.7056,665.6654 " fill="none" id="Q-to-S" style="stroke:#181818;stroke-width:1.0;"/><polygon fill="#181818" points="465.62,670.91,464.7448,661.1001,463.1913,666.5395,457.7519,664.986,465.62,670.91" style="stroke:#181818;stroke-width:1.0;"/></g><!--link J to T--><g id="link_J_T"><path codeLine="47" d="M448.67,362.09 C475.31,377.61 519.4965,403.3582 546.1365,418.8882 " fill="none" id="J-to-T" style="stroke:#181818;stroke-width:1.0;"/><polygon fill="#181818" points="551.32,421.91,545.5592,413.9217,547.0004,419.3919,541.5302,420.833,551.32,421.91" style="stroke:#181818;stroke-width:1.0;"/></g><!--link T to U--><g id="link_T_U"><path codeLine="48" d="M573.81,445.09 C580.14,460.61 589.5984,483.8226 595.9184,499.3526 " fill="none" id="T-to-U" style="stroke:#181818;stroke-width:1.0;"/><polygon fill="#181818" points="598.18,504.91,598.4925,495.0661,596.2953,500.2788,591.0826,498.0816,598.18,504.91" style="stroke:#181818;stroke-width:1.0;"/></g><!--link U to V--><g id="link_U_V"><path codeLine="49" d="M603.15,528.09 C604.11,543.61 605.5198,566.3914 606.4798,581.9214 " fill="none" id="U-to-V" style="stroke:#181818;stroke-width:1.0;"/><polygon fill="#181818" points="606.85,587.91,610.2871,578.6804,606.5415,582.9195,602.3023,579.1739,606.85,587.91" style="stroke:#181818;stroke-width:1.0;"/></g><!--link V to W--><g id="link_V_W"><path codeLine="50" d="M601.49,611.09 C592.67,626.61 579.2905,650.1613 570.4805,665.6913 " fill="none" id="V-to-W" style="stroke:#181818;stroke-width:1.0;"/><polygon fill="#181818" points="567.52,670.91,575.44,665.0556,569.9871,666.5611,568.4816,661.1082,567.52,670.91" style="stroke:#181818;stroke-width:1.0;"/></g><!--link V to X--><g id="link_V_X"><path codeLine="51" d="M611.42,611.09 C617.17,626.61 625.7467,649.7533 631.4967,665.2833 " fill="none" id="V-to-X" style="stroke:#181818;stroke-width:1.0;"/><polygon fill="#181818" points="633.58,670.91,634.2062,661.0811,631.8439,666.2211,626.7039,663.8588,633.58,670.91" style="stroke:#181818;stroke-width:1.0;"/></g><!--SRC=[XP9DRu9048Rlyois7flOj4rwuM0Y7ogAYWhg5M4QjrrOmYvD_VSbqytwqSQUdl0-Bpl3XYCla65PwnChiJnWem3auHrppNgUB6ikCirbbLPSzrYcsF1iHQQKZxd86ggGTg-rmxnCv6rtXcp8UzRFKHzbSVk-V-CTbfi3qESgbstriqPWUt7tUecwMvp4o8f2jWU13giRdYEviNMyqjt9hTAon2R2JnHKcDnCTsLn8X5Q4RvjTBTCYMQHwSLjLGMt7pApkSkhh3a5NtM3IdNQOGDgHBRnUv6vTQ_qlB3FoH4hLyZyW_AbpTUeswQwtYs-iyC3DLQsSRwbjSsU7byesTWa40hFqvExqzD_fs__cBwxcFvCoHvWoFhzGVTlkKJFq0UV61YEO4GS6qvC7a98dCAKE8CPCOA8E3TS6B-49J66cBY25N5jk36z119Y2Ybn2rlYpd0Ftm00]--></g></svg>