<?xml version="1.0" encoding="UTF-8" standalone="no"?>
<!DOCTYPE svg PUBLIC "-//W3C//DTD SVG 1.1//EN"
 "http://www.w3.org/Graphics/SVG/1.1/DTD/svg11.dtd">
<!-- Generated by graphviz version 2.43.0 (0)
 -->
<!-- Title: avl_tree Pages: 1 -->
<svg width="207pt" height="268pt"
 viewBox="0.00 0.00 207.00 268.00" xmlns="http://www.w3.org/2000/svg" xmlns:xlink="http://www.w3.org/1999/xlink">
<g id="graph0" class="graph" transform="scale(1 1) rotate(0) translate(4 264)">
<title>avl_tree</title>
<polygon fill="white" stroke="transparent" points="-4,4 -4,-264 203,-264 203,4 -4,4"/>
<!-- 15 -->
<g id="node1" class="node">
<title>15</title>
<polygon fill="none" stroke="black" points="163.5,-260 104.5,-260 104.5,-222 163.5,-222 163.5,-260"/>
<text text-anchor="middle" x="134" y="-244.8" font-family="Times,serif" font-size="14.00">15</text>
<text text-anchor="middle" x="134" y="-229.8" font-family="Times,serif" font-size="14.00">BF: &#45;1</text>
</g>
<!-- 8 -->
<g id="node2" class="node">
<title>8</title>
<polygon fill="none" stroke="black" points="126.5,-186 67.5,-186 67.5,-148 126.5,-148 126.5,-186"/>
<text text-anchor="middle" x="97" y="-170.8" font-family="Times,serif" font-size="14.00">8</text>
<text text-anchor="middle" x="97" y="-155.8" font-family="Times,serif" font-size="14.00">BF: &#45;1</text>
</g>
<!-- 15&#45;&gt;8 -->
<g id="edge1" class="edge">
<title>15&#45;&gt;8</title>
<path fill="none" stroke="black" d="M124.66,-221.83C120.58,-213.88 115.69,-204.37 111.17,-195.57"/>
<polygon fill="black" stroke="black" points="114.15,-193.71 106.46,-186.41 107.92,-196.91 114.15,-193.71"/>
</g>
<!-- 25 -->
<g id="node3" class="node">
<title>25</title>
<polygon fill="none" stroke="black" points="199,-186 145,-186 145,-148 199,-148 199,-186"/>
<text text-anchor="middle" x="172" y="-170.8" font-family="Times,serif" font-size="14.00">25</text>
<text text-anchor="middle" x="172" y="-155.8" font-family="Times,serif" font-size="14.00">BF: 1</text>
</g>
<!-- 15&#45;&gt;25 -->
<g id="edge2" class="edge">
<title>15&#45;&gt;25</title>
<path fill="none" stroke="black" d="M143.59,-221.83C147.83,-213.79 152.91,-204.17 157.6,-195.29"/>
<polygon fill="black" stroke="black" points="160.71,-196.89 162.28,-186.41 154.52,-193.62 160.71,-196.89"/>
</g>
<!-- 4 -->
<g id="node4" class="node">
<title>4</title>
<polygon fill="none" stroke="black" points="54,-112 0,-112 0,-74 54,-74 54,-112"/>
<text text-anchor="middle" x="27" y="-96.8" font-family="Times,serif" font-size="14.00">4</text>
<text text-anchor="middle" x="27" y="-81.8" font-family="Times,serif" font-size="14.00">BF: 0</text>
</g>
<!-- 8&#45;&gt;4 -->
<g id="edge3" class="edge">
<title>8&#45;&gt;4</title>
<path fill="none" stroke="black" d="M79.34,-147.83C71.03,-139.28 60.97,-128.94 51.91,-119.62"/>
<polygon fill="black" stroke="black" points="54.38,-117.14 44.9,-112.41 49.36,-122.02 54.38,-117.14"/>
</g>
<!-- 12 -->
<g id="node5" class="node">
<title>12</title>
<polygon fill="none" stroke="black" points="126,-112 72,-112 72,-74 126,-74 126,-112"/>
<text text-anchor="middle" x="99" y="-96.8" font-family="Times,serif" font-size="14.00">12</text>
<text text-anchor="middle" x="99" y="-81.8" font-family="Times,serif" font-size="14.00">BF: 0</text>
</g>
<!-- 8&#45;&gt;12 -->
<g id="edge4" class="edge">
<title>8&#45;&gt;12</title>
<path fill="none" stroke="black" d="M97.5,-147.83C97.72,-140.13 97.97,-130.97 98.21,-122.42"/>
<polygon fill="black" stroke="black" points="101.71,-122.51 98.49,-112.41 94.71,-122.31 101.71,-122.51"/>
</g>
<!-- 30 -->
<g id="node6" class="node">
<title>30</title>
<polygon fill="none" stroke="black" points="199,-112 145,-112 145,-74 199,-74 199,-112"/>
<text text-anchor="middle" x="172" y="-96.8" font-family="Times,serif" font-size="14.00">30</text>
<text text-anchor="middle" x="172" y="-81.8" font-family="Times,serif" font-size="14.00">BF: 0</text>
</g>
<!-- 25&#45;&gt;30 -->
<g id="edge5" class="edge">
<title>25&#45;&gt;30</title>
<path fill="none" stroke="black" d="M172,-147.83C172,-140.13 172,-130.97 172,-122.42"/>
<polygon fill="black" stroke="black" points="175.5,-122.41 172,-112.41 168.5,-122.41 175.5,-122.41"/>
</g>
<!-- 2 -->
<g id="node7" class="node">
<title>2</title>
<polygon fill="none" stroke="black" points="54,-38 0,-38 0,0 54,0 54,-38"/>
<text text-anchor="middle" x="27" y="-22.8" font-family="Times,serif" font-size="14.00">2</text>
<text text-anchor="middle" x="27" y="-7.8" font-family="Times,serif" font-size="14.00">BF: 0</text>
</g>
<!-- 4&#45;&gt;2 -->
<g id="edge6" class="edge">
<title>4&#45;&gt;2</title>
<path fill="none" stroke="black" d="M27,-73.83C27,-66.13 27,-56.97 27,-48.42"/>
<polygon fill="black" stroke="black" points="30.5,-48.41 27,-38.41 23.5,-48.41 30.5,-48.41"/>
</g>
</g>
</svg>
