<?xml version="1.0" encoding="UTF-8" standalone="no"?>
<!DOCTYPE svg PUBLIC "-//W3C//DTD SVG 1.1//EN"
 "http://www.w3.org/Graphics/SVG/1.1/DTD/svg11.dtd">
<!-- Generated by graphviz version 2.43.0 (0)
 -->
<!-- Title: b_tree_sequence Pages: 1 -->
<svg width="815pt" height="222pt"
 viewBox="0.00 0.00 815.00 222.00" xmlns="http://www.w3.org/2000/svg" xmlns:xlink="http://www.w3.org/1999/xlink">
<g id="graph0" class="graph" transform="scale(1 1) rotate(0) translate(4 218)">
<title>b_tree_sequence</title>
<polygon fill="white" stroke="transparent" points="-4,4 -4,-218 811,-218 811,4 -4,4"/>
<g id="clust1" class="cluster">
<title>cluster_0</title>
<polygon fill="none" stroke="black" points="8,-68 8,-206 267,-206 267,-68 8,-68"/>
<text text-anchor="middle" x="137.5" y="-190.8" font-family="Times,serif" font-size="14.00">Estado Inicial</text>
<text text-anchor="middle" x="137.5" y="-175.8" font-family="Times,serif" font-size="14.00">(Queremos insertar 35)</text>
</g>
<g id="clust2" class="cluster">
<title>cluster_1</title>
<polygon fill="none" stroke="black" points="275,-68 275,-206 533,-206 533,-68 275,-68"/>
<text text-anchor="middle" x="404" y="-190.8" font-family="Times,serif" font-size="14.00">35 sube a la raíz tras splits</text>
<text text-anchor="middle" x="404" y="-175.8" font-family="Times,serif" font-size="14.00">(Overflow en raíz)</text>
</g>
<g id="clust3" class="cluster">
<title>cluster_2</title>
<polygon fill="none" stroke="black" points="541,-8 541,-206 799,-206 799,-8 541,-8"/>
<text text-anchor="middle" x="670" y="-190.8" font-family="Times,serif" font-size="14.00">Split de raíz</text>
<text text-anchor="middle" x="670" y="-175.8" font-family="Times,serif" font-size="14.00">(Árbol crece en altura)</text>
</g>
<!-- n0_0 -->
<g id="node1" class="node">
<title>n0_0</title>
<polygon fill="none" stroke="black" points="111.5,-136.5 111.5,-159.5 258.5,-159.5 258.5,-136.5 111.5,-136.5"/>
<text text-anchor="middle" x="122" y="-144.3" font-family="Times,serif" font-size="14.00"> </text>
<polyline fill="none" stroke="black" points="132.5,-136.5 132.5,-159.5 "/>
<text text-anchor="middle" x="150" y="-144.3" font-family="Times,serif" font-size="14.00">30</text>
<polyline fill="none" stroke="black" points="167.5,-136.5 167.5,-159.5 "/>
<text text-anchor="middle" x="185" y="-144.3" font-family="Times,serif" font-size="14.00">47</text>
<polyline fill="none" stroke="black" points="202.5,-136.5 202.5,-159.5 "/>
<text text-anchor="middle" x="220" y="-144.3" font-family="Times,serif" font-size="14.00">60</text>
<polyline fill="none" stroke="black" points="237.5,-136.5 237.5,-159.5 "/>
<text text-anchor="middle" x="248" y="-144.3" font-family="Times,serif" font-size="14.00"> </text>
</g>
<!-- n0_2 -->
<g id="node2" class="node">
<title>n0_2</title>
<polygon fill="none" stroke="black" points="16,-76.5 16,-99.5 128,-99.5 128,-76.5 16,-76.5"/>
<text text-anchor="middle" x="26.5" y="-84.3" font-family="Times,serif" font-size="14.00"> </text>
<polyline fill="none" stroke="black" points="37,-76.5 37,-99.5 "/>
<text text-anchor="middle" x="54.5" y="-84.3" font-family="Times,serif" font-size="14.00">40</text>
<polyline fill="none" stroke="black" points="72,-76.5 72,-99.5 "/>
<text text-anchor="middle" x="89.5" y="-84.3" font-family="Times,serif" font-size="14.00">46</text>
<polyline fill="none" stroke="black" points="107,-76.5 107,-99.5 "/>
<text text-anchor="middle" x="117.5" y="-84.3" font-family="Times,serif" font-size="14.00"> </text>
</g>
<!-- n0_0&#45;&gt;n0_2 -->
<g id="edge1" class="edge">
<title>n0_0:f1&#45;&gt;n0_2</title>
<path fill="none" stroke="black" d="M150,-136C150,-121.09 139.41,-110.78 126.03,-103.71"/>
<polygon fill="black" stroke="black" points="127.47,-100.52 116.92,-99.52 124.54,-106.88 127.47,-100.52"/>
</g>
<!-- n0_3 -->
<g id="node3" class="node">
<title>n0_3</title>
<polygon fill="none" stroke="black" points="146,-76.5 146,-99.5 258,-99.5 258,-76.5 146,-76.5"/>
<text text-anchor="middle" x="156.5" y="-84.3" font-family="Times,serif" font-size="14.00"> </text>
<polyline fill="none" stroke="black" points="167,-76.5 167,-99.5 "/>
<text text-anchor="middle" x="184.5" y="-84.3" font-family="Times,serif" font-size="14.00">48</text>
<polyline fill="none" stroke="black" points="202,-76.5 202,-99.5 "/>
<text text-anchor="middle" x="219.5" y="-84.3" font-family="Times,serif" font-size="14.00">50</text>
<polyline fill="none" stroke="black" points="237,-76.5 237,-99.5 "/>
<text text-anchor="middle" x="247.5" y="-84.3" font-family="Times,serif" font-size="14.00"> </text>
</g>
<!-- n0_0&#45;&gt;n0_3 -->
<g id="edge2" class="edge">
<title>n0_0:f2&#45;&gt;n0_3</title>
<path fill="none" stroke="black" d="M185,-136C185,-126.75 187.95,-117.05 191.39,-108.88"/>
<polygon fill="black" stroke="black" points="194.57,-110.34 195.67,-99.81 188.24,-107.36 194.57,-110.34"/>
</g>
<!-- n0_8 -->
<g id="node4" class="node">
<title>n0_8</title>
<polygon fill="lightgray" stroke="black" points="16.5,-136.5 16.5,-159.5 93.5,-159.5 93.5,-136.5 16.5,-136.5"/>
<text text-anchor="middle" x="27" y="-144.3" font-family="Times,serif" font-size="14.00"> </text>
<polyline fill="none" stroke="black" points="37.5,-136.5 37.5,-159.5 "/>
<text text-anchor="middle" x="55" y="-144.3" font-family="Times,serif" font-size="14.00">35</text>
<polyline fill="none" stroke="black" points="72.5,-136.5 72.5,-159.5 "/>
<text text-anchor="middle" x="83" y="-144.3" font-family="Times,serif" font-size="14.00"> </text>
</g>
<!-- n1_0 -->
<g id="node5" class="node">
<title>n1_0</title>
<polygon fill="pink" stroke="black" points="313,-136.5 313,-159.5 495,-159.5 495,-136.5 313,-136.5"/>
<text text-anchor="middle" x="323.5" y="-144.3" font-family="Times,serif" font-size="14.00"> </text>
<polyline fill="none" stroke="black" points="334,-136.5 334,-159.5 "/>
<text text-anchor="middle" x="351.5" y="-144.3" font-family="Times,serif" font-size="14.00">30</text>
<polyline fill="none" stroke="black" points="369,-136.5 369,-159.5 "/>
<text text-anchor="middle" x="386.5" y="-144.3" font-family="Times,serif" font-size="14.00">35</text>
<polyline fill="none" stroke="black" points="404,-136.5 404,-159.5 "/>
<text text-anchor="middle" x="421.5" y="-144.3" font-family="Times,serif" font-size="14.00">47</text>
<polyline fill="none" stroke="black" points="439,-136.5 439,-159.5 "/>
<text text-anchor="middle" x="456.5" y="-144.3" font-family="Times,serif" font-size="14.00">60</text>
<polyline fill="none" stroke="black" points="474,-136.5 474,-159.5 "/>
<text text-anchor="middle" x="484.5" y="-144.3" font-family="Times,serif" font-size="14.00"> </text>
</g>
<!-- n1_2 -->
<g id="node6" class="node">
<title>n1_2</title>
<polygon fill="none" stroke="black" points="283,-76.5 283,-99.5 395,-99.5 395,-76.5 283,-76.5"/>
<text text-anchor="middle" x="293.5" y="-84.3" font-family="Times,serif" font-size="14.00"> </text>
<polyline fill="none" stroke="black" points="304,-76.5 304,-99.5 "/>
<text text-anchor="middle" x="321.5" y="-84.3" font-family="Times,serif" font-size="14.00">40</text>
<polyline fill="none" stroke="black" points="339,-76.5 339,-99.5 "/>
<text text-anchor="middle" x="356.5" y="-84.3" font-family="Times,serif" font-size="14.00">46</text>
<polyline fill="none" stroke="black" points="374,-76.5 374,-99.5 "/>
<text text-anchor="middle" x="384.5" y="-84.3" font-family="Times,serif" font-size="14.00"> </text>
</g>
<!-- n1_0&#45;&gt;n1_2 -->
<g id="edge3" class="edge">
<title>n1_0:f2&#45;&gt;n1_2</title>
<path fill="none" stroke="black" d="M386,-136C386,-123.56 377.66,-113.26 368.01,-105.51"/>
<polygon fill="black" stroke="black" points="369.92,-102.57 359.75,-99.6 365.85,-108.26 369.92,-102.57"/>
</g>
<!-- n1_3 -->
<g id="node7" class="node">
<title>n1_3</title>
<polygon fill="none" stroke="black" points="413,-76.5 413,-99.5 525,-99.5 525,-76.5 413,-76.5"/>
<text text-anchor="middle" x="423.5" y="-84.3" font-family="Times,serif" font-size="14.00"> </text>
<polyline fill="none" stroke="black" points="434,-76.5 434,-99.5 "/>
<text text-anchor="middle" x="451.5" y="-84.3" font-family="Times,serif" font-size="14.00">48</text>
<polyline fill="none" stroke="black" points="469,-76.5 469,-99.5 "/>
<text text-anchor="middle" x="486.5" y="-84.3" font-family="Times,serif" font-size="14.00">50</text>
<polyline fill="none" stroke="black" points="504,-76.5 504,-99.5 "/>
<text text-anchor="middle" x="514.5" y="-84.3" font-family="Times,serif" font-size="14.00"> </text>
</g>
<!-- n1_0&#45;&gt;n1_3 -->
<g id="edge4" class="edge">
<title>n1_0:f3&#45;&gt;n1_3</title>
<path fill="none" stroke="black" d="M422,-136C422,-123.56 430.34,-113.26 439.99,-105.51"/>
<polygon fill="black" stroke="black" points="442.15,-108.26 448.25,-99.6 438.08,-102.57 442.15,-108.26"/>
</g>
<!-- n2_root -->
<g id="node8" class="node">
<title>n2_root</title>
<polygon fill="lightblue" stroke="black" points="657.5,-136.5 657.5,-159.5 734.5,-159.5 734.5,-136.5 657.5,-136.5"/>
<text text-anchor="middle" x="668" y="-144.3" font-family="Times,serif" font-size="14.00"> </text>
<polyline fill="none" stroke="black" points="678.5,-136.5 678.5,-159.5 "/>
<text text-anchor="middle" x="696" y="-144.3" font-family="Times,serif" font-size="14.00">47</text>
<polyline fill="none" stroke="black" points="713.5,-136.5 713.5,-159.5 "/>
<text text-anchor="middle" x="724" y="-144.3" font-family="Times,serif" font-size="14.00"> </text>
</g>
<!-- n2_left -->
<g id="node9" class="node">
<title>n2_left</title>
<polygon fill="none" stroke="black" points="566,-76.5 566,-99.5 678,-99.5 678,-76.5 566,-76.5"/>
<text text-anchor="middle" x="576.5" y="-84.3" font-family="Times,serif" font-size="14.00"> </text>
<polyline fill="none" stroke="black" points="587,-76.5 587,-99.5 "/>
<text text-anchor="middle" x="604.5" y="-84.3" font-family="Times,serif" font-size="14.00">30</text>
<polyline fill="none" stroke="black" points="622,-76.5 622,-99.5 "/>
<text text-anchor="middle" x="639.5" y="-84.3" font-family="Times,serif" font-size="14.00">35</text>
<polyline fill="none" stroke="black" points="657,-76.5 657,-99.5 "/>
<text text-anchor="middle" x="667.5" y="-84.3" font-family="Times,serif" font-size="14.00"> </text>
</g>
<!-- n2_root&#45;&gt;n2_left -->
<g id="edge5" class="edge">
<title>n2_root:f0&#45;&gt;n2_left</title>
<path fill="none" stroke="black" d="M668,-136C668,-123.6 659.72,-113.26 650.19,-105.47"/>
<polygon fill="black" stroke="black" points="652.19,-102.59 642.04,-99.53 648.06,-108.25 652.19,-102.59"/>
</g>
<!-- n2_right -->
<g id="node10" class="node">
<title>n2_right</title>
<polygon fill="none" stroke="black" points="704.5,-76.5 704.5,-99.5 781.5,-99.5 781.5,-76.5 704.5,-76.5"/>
<text text-anchor="middle" x="715" y="-84.3" font-family="Times,serif" font-size="14.00"> </text>
<polyline fill="none" stroke="black" points="725.5,-76.5 725.5,-99.5 "/>
<text text-anchor="middle" x="743" y="-84.3" font-family="Times,serif" font-size="14.00">60</text>
<polyline fill="none" stroke="black" points="760.5,-76.5 760.5,-99.5 "/>
<text text-anchor="middle" x="771" y="-84.3" font-family="Times,serif" font-size="14.00"> </text>
</g>
<!-- n2_root&#45;&gt;n2_right -->
<g id="edge6" class="edge">
<title>n2_root:f1&#45;&gt;n2_right</title>
<path fill="none" stroke="black" d="M696,-136C696,-123.56 704.34,-113.26 713.99,-105.51"/>
<polygon fill="black" stroke="black" points="716.15,-108.26 722.25,-99.6 712.08,-102.57 716.15,-108.26"/>
</g>
<!-- n2_2 -->
<g id="node11" class="node">
<title>n2_2</title>
<polygon fill="none" stroke="black" points="549,-16.5 549,-39.5 661,-39.5 661,-16.5 549,-16.5"/>
<text text-anchor="middle" x="559.5" y="-24.3" font-family="Times,serif" font-size="14.00"> </text>
<polyline fill="none" stroke="black" points="570,-16.5 570,-39.5 "/>
<text text-anchor="middle" x="587.5" y="-24.3" font-family="Times,serif" font-size="14.00">40</text>
<polyline fill="none" stroke="black" points="605,-16.5 605,-39.5 "/>
<text text-anchor="middle" x="622.5" y="-24.3" font-family="Times,serif" font-size="14.00">46</text>
<polyline fill="none" stroke="black" points="640,-16.5 640,-39.5 "/>
<text text-anchor="middle" x="650.5" y="-24.3" font-family="Times,serif" font-size="14.00"> </text>
</g>
<!-- n2_left&#45;&gt;n2_2 -->
<g id="edge7" class="edge">
<title>n2_left:f2&#45;&gt;n2_2</title>
<path fill="none" stroke="black" d="M640,-75C640,-64.31 633.94,-54.56 626.87,-46.81"/>
<polygon fill="black" stroke="black" points="629.25,-44.24 619.64,-39.76 624.36,-49.25 629.25,-44.24"/>
</g>
<!-- n2_3 -->
<g id="node12" class="node">
<title>n2_3</title>
<polygon fill="none" stroke="black" points="679,-16.5 679,-39.5 791,-39.5 791,-16.5 679,-16.5"/>
<text text-anchor="middle" x="689.5" y="-24.3" font-family="Times,serif" font-size="14.00"> </text>
<polyline fill="none" stroke="black" points="700,-16.5 700,-39.5 "/>
<text text-anchor="middle" x="717.5" y="-24.3" font-family="Times,serif" font-size="14.00">48</text>
<polyline fill="none" stroke="black" points="735,-16.5 735,-39.5 "/>
<text text-anchor="middle" x="752.5" y="-24.3" font-family="Times,serif" font-size="14.00">50</text>
<polyline fill="none" stroke="black" points="770,-16.5 770,-39.5 "/>
<text text-anchor="middle" x="780.5" y="-24.3" font-family="Times,serif" font-size="14.00"> </text>
</g>
<!-- n2_right&#45;&gt;n2_3 -->
<g id="edge8" class="edge">
<title>n2_right:f0&#45;&gt;n2_3</title>
<path fill="none" stroke="black" d="M715,-75C715,-65.84 718.38,-56.44 722.36,-48.54"/>
<polygon fill="black" stroke="black" points="725.44,-50.2 727.32,-39.77 719.35,-46.75 725.44,-50.2"/>
</g>
</g>
</svg>
