<?xml version="1.0" encoding="UTF-8" standalone="no"?>
<!DOCTYPE svg PUBLIC "-//W3C//DTD SVG 1.1//EN"
 "http://www.w3.org/Graphics/SVG/1.1/DTD/svg11.dtd">
<!-- Generated by graphviz version 2.43.0 (0)
 -->
<!-- Title: b_tree_sequence Pages: 1 -->
<svg width="1204pt" height="222pt"
 viewBox="0.00 0.00 1204.00 222.00" xmlns="http://www.w3.org/2000/svg" xmlns:xlink="http://www.w3.org/1999/xlink">
<g id="graph0" class="graph" transform="scale(1 1) rotate(0) translate(4 218)">
<title>b_tree_sequence</title>
<polygon fill="white" stroke="transparent" points="-4,4 -4,-218 1200,-218 1200,4 -4,4"/>
<g id="clust1" class="cluster">
<title>cluster_0</title>
<polygon fill="none" stroke="black" points="8,-8 8,-206 396,-206 396,-8 8,-8"/>
<text text-anchor="middle" x="202" y="-190.8" font-family="Times,serif" font-size="14.00">Estado Inicial</text>
<text text-anchor="middle" x="202" y="-175.8" font-family="Times,serif" font-size="14.00">(Queremos insertar 46)</text>
</g>
<g id="clust2" class="cluster">
<title>cluster_1</title>
<polygon fill="none" stroke="black" points="404,-8 404,-206 792,-206 792,-8 404,-8"/>
<text text-anchor="middle" x="598" y="-190.8" font-family="Times,serif" font-size="14.00">Overflow al intentar insertar 46</text>
<text text-anchor="middle" x="598" y="-175.8" font-family="Times,serif" font-size="14.00">(No caben 45,46,47 en un nodo)</text>
</g>
<g id="clust3" class="cluster">
<title>cluster_2</title>
<polygon fill="none" stroke="black" points="800,-8 800,-206 1188,-206 1188,-8 800,-8"/>
<text text-anchor="middle" x="994" y="-190.8" font-family="Times,serif" font-size="14.00">Split: 46 sube al padre</text>
<text text-anchor="middle" x="994" y="-175.8" font-family="Times,serif" font-size="14.00">se dividen los valores restantes</text>
</g>
<!-- n0_0 -->
<g id="node1" class="node">
<title>n0_0</title>
<polygon fill="none" stroke="black" points="276,-136.5 276,-159.5 388,-159.5 388,-136.5 276,-136.5"/>
<text text-anchor="middle" x="286.5" y="-144.3" font-family="Times,serif" font-size="14.00"> </text>
<polyline fill="none" stroke="black" points="297,-136.5 297,-159.5 "/>
<text text-anchor="middle" x="314.5" y="-144.3" font-family="Times,serif" font-size="14.00">30</text>
<polyline fill="none" stroke="black" points="332,-136.5 332,-159.5 "/>
<text text-anchor="middle" x="349.5" y="-144.3" font-family="Times,serif" font-size="14.00">60</text>
<polyline fill="none" stroke="black" points="367,-136.5 367,-159.5 "/>
<text text-anchor="middle" x="377.5" y="-144.3" font-family="Times,serif" font-size="14.00"> </text>
</g>
<!-- n0_2 -->
<g id="node3" class="node">
<title>n0_2</title>
<polygon fill="none" stroke="black" points="258,-76.5 258,-99.5 370,-99.5 370,-76.5 258,-76.5"/>
<text text-anchor="middle" x="268.5" y="-84.3" font-family="Times,serif" font-size="14.00"> </text>
<polyline fill="none" stroke="black" points="279,-76.5 279,-99.5 "/>
<text text-anchor="middle" x="296.5" y="-84.3" font-family="Times,serif" font-size="14.00">40</text>
<polyline fill="none" stroke="black" points="314,-76.5 314,-99.5 "/>
<text text-anchor="middle" x="331.5" y="-84.3" font-family="Times,serif" font-size="14.00">50</text>
<polyline fill="none" stroke="black" points="349,-76.5 349,-99.5 "/>
<text text-anchor="middle" x="359.5" y="-84.3" font-family="Times,serif" font-size="14.00"> </text>
</g>
<!-- n0_0&#45;&gt;n0_2 -->
<g id="edge1" class="edge">
<title>n0_0:f1&#45;&gt;n0_2</title>
<path fill="none" stroke="black" d="M314,-136C314,-127.47 314,-118.08 314,-109.94"/>
<polygon fill="black" stroke="black" points="317.5,-109.83 314,-99.83 310.5,-109.83 317.5,-109.83"/>
</g>
<!-- n0_1 -->
<g id="node2" class="node">
<title>n0_1</title>
<polygon fill="none" stroke="black" points="146,-136.5 146,-159.5 258,-159.5 258,-136.5 146,-136.5"/>
<text text-anchor="middle" x="156.5" y="-144.3" font-family="Times,serif" font-size="14.00"> </text>
<polyline fill="none" stroke="black" points="167,-136.5 167,-159.5 "/>
<text text-anchor="middle" x="184.5" y="-144.3" font-family="Times,serif" font-size="14.00">10</text>
<polyline fill="none" stroke="black" points="202,-136.5 202,-159.5 "/>
<text text-anchor="middle" x="219.5" y="-144.3" font-family="Times,serif" font-size="14.00">20</text>
<polyline fill="none" stroke="black" points="237,-136.5 237,-159.5 "/>
<text text-anchor="middle" x="247.5" y="-144.3" font-family="Times,serif" font-size="14.00"> </text>
</g>
<!-- n0_8 -->
<g id="node5" class="node">
<title>n0_8</title>
<polygon fill="lightgray" stroke="black" points="240,-16.5 240,-39.5 352,-39.5 352,-16.5 240,-16.5"/>
<text text-anchor="middle" x="250.5" y="-24.3" font-family="Times,serif" font-size="14.00"> </text>
<polyline fill="none" stroke="black" points="261,-16.5 261,-39.5 "/>
<text text-anchor="middle" x="278.5" y="-24.3" font-family="Times,serif" font-size="14.00">45</text>
<polyline fill="none" stroke="black" points="296,-16.5 296,-39.5 "/>
<text text-anchor="middle" x="313.5" y="-24.3" font-family="Times,serif" font-size="14.00">47</text>
<polyline fill="none" stroke="black" points="331,-16.5 331,-39.5 "/>
<text text-anchor="middle" x="341.5" y="-24.3" font-family="Times,serif" font-size="14.00"> </text>
</g>
<!-- n0_2&#45;&gt;n0_8 -->
<g id="edge2" class="edge">
<title>n0_2:f1&#45;&gt;n0_8</title>
<path fill="none" stroke="black" d="M296,-76C296,-67.47 296,-58.08 296,-49.94"/>
<polygon fill="black" stroke="black" points="299.5,-49.83 296,-39.83 292.5,-49.83 299.5,-49.83"/>
</g>
<!-- n0_3 -->
<g id="node4" class="node">
<title>n0_3</title>
<polygon fill="none" stroke="black" points="16,-136.5 16,-159.5 128,-159.5 128,-136.5 16,-136.5"/>
<text text-anchor="middle" x="26.5" y="-144.3" font-family="Times,serif" font-size="14.00"> </text>
<polyline fill="none" stroke="black" points="37,-136.5 37,-159.5 "/>
<text text-anchor="middle" x="54.5" y="-144.3" font-family="Times,serif" font-size="14.00">70</text>
<polyline fill="none" stroke="black" points="72,-136.5 72,-159.5 "/>
<text text-anchor="middle" x="89.5" y="-144.3" font-family="Times,serif" font-size="14.00">80</text>
<polyline fill="none" stroke="black" points="107,-136.5 107,-159.5 "/>
<text text-anchor="middle" x="117.5" y="-144.3" font-family="Times,serif" font-size="14.00"> </text>
</g>
<!-- n1_0 -->
<g id="node6" class="node">
<title>n1_0</title>
<polygon fill="none" stroke="black" points="672,-136.5 672,-159.5 784,-159.5 784,-136.5 672,-136.5"/>
<text text-anchor="middle" x="682.5" y="-144.3" font-family="Times,serif" font-size="14.00"> </text>
<polyline fill="none" stroke="black" points="693,-136.5 693,-159.5 "/>
<text text-anchor="middle" x="710.5" y="-144.3" font-family="Times,serif" font-size="14.00">30</text>
<polyline fill="none" stroke="black" points="728,-136.5 728,-159.5 "/>
<text text-anchor="middle" x="745.5" y="-144.3" font-family="Times,serif" font-size="14.00">60</text>
<polyline fill="none" stroke="black" points="763,-136.5 763,-159.5 "/>
<text text-anchor="middle" x="773.5" y="-144.3" font-family="Times,serif" font-size="14.00"> </text>
</g>
<!-- n1_2 -->
<g id="node8" class="node">
<title>n1_2</title>
<polygon fill="none" stroke="black" points="654,-76.5 654,-99.5 766,-99.5 766,-76.5 654,-76.5"/>
<text text-anchor="middle" x="664.5" y="-84.3" font-family="Times,serif" font-size="14.00"> </text>
<polyline fill="none" stroke="black" points="675,-76.5 675,-99.5 "/>
<text text-anchor="middle" x="692.5" y="-84.3" font-family="Times,serif" font-size="14.00">40</text>
<polyline fill="none" stroke="black" points="710,-76.5 710,-99.5 "/>
<text text-anchor="middle" x="727.5" y="-84.3" font-family="Times,serif" font-size="14.00">50</text>
<polyline fill="none" stroke="black" points="745,-76.5 745,-99.5 "/>
<text text-anchor="middle" x="755.5" y="-84.3" font-family="Times,serif" font-size="14.00"> </text>
</g>
<!-- n1_0&#45;&gt;n1_2 -->
<g id="edge3" class="edge">
<title>n1_0:f1&#45;&gt;n1_2</title>
<path fill="none" stroke="black" d="M710,-136C710,-127.47 710,-118.08 710,-109.94"/>
<polygon fill="black" stroke="black" points="713.5,-109.83 710,-99.83 706.5,-109.83 713.5,-109.83"/>
</g>
<!-- n1_1 -->
<g id="node7" class="node">
<title>n1_1</title>
<polygon fill="none" stroke="black" points="542,-136.5 542,-159.5 654,-159.5 654,-136.5 542,-136.5"/>
<text text-anchor="middle" x="552.5" y="-144.3" font-family="Times,serif" font-size="14.00"> </text>
<polyline fill="none" stroke="black" points="563,-136.5 563,-159.5 "/>
<text text-anchor="middle" x="580.5" y="-144.3" font-family="Times,serif" font-size="14.00">10</text>
<polyline fill="none" stroke="black" points="598,-136.5 598,-159.5 "/>
<text text-anchor="middle" x="615.5" y="-144.3" font-family="Times,serif" font-size="14.00">20</text>
<polyline fill="none" stroke="black" points="633,-136.5 633,-159.5 "/>
<text text-anchor="middle" x="643.5" y="-144.3" font-family="Times,serif" font-size="14.00"> </text>
</g>
<!-- n1_8 -->
<g id="node10" class="node">
<title>n1_8</title>
<polygon fill="pink" stroke="black" points="618.5,-16.5 618.5,-39.5 765.5,-39.5 765.5,-16.5 618.5,-16.5"/>
<text text-anchor="middle" x="629" y="-24.3" font-family="Times,serif" font-size="14.00"> </text>
<polyline fill="none" stroke="black" points="639.5,-16.5 639.5,-39.5 "/>
<text text-anchor="middle" x="657" y="-24.3" font-family="Times,serif" font-size="14.00">45</text>
<polyline fill="none" stroke="black" points="674.5,-16.5 674.5,-39.5 "/>
<text text-anchor="middle" x="692" y="-24.3" font-family="Times,serif" font-size="14.00">46</text>
<polyline fill="none" stroke="black" points="709.5,-16.5 709.5,-39.5 "/>
<text text-anchor="middle" x="727" y="-24.3" font-family="Times,serif" font-size="14.00">47</text>
<polyline fill="none" stroke="black" points="744.5,-16.5 744.5,-39.5 "/>
<text text-anchor="middle" x="755" y="-24.3" font-family="Times,serif" font-size="14.00"> </text>
</g>
<!-- n1_2&#45;&gt;n1_8 -->
<g id="edge4" class="edge">
<title>n1_2:f1&#45;&gt;n1_8</title>
<path fill="none" stroke="black" d="M692,-76C692,-67.47 692,-58.08 692,-49.94"/>
<polygon fill="black" stroke="black" points="695.5,-49.83 692,-39.83 688.5,-49.83 695.5,-49.83"/>
</g>
<!-- n1_3 -->
<g id="node9" class="node">
<title>n1_3</title>
<polygon fill="none" stroke="black" points="412,-136.5 412,-159.5 524,-159.5 524,-136.5 412,-136.5"/>
<text text-anchor="middle" x="422.5" y="-144.3" font-family="Times,serif" font-size="14.00"> </text>
<polyline fill="none" stroke="black" points="433,-136.5 433,-159.5 "/>
<text text-anchor="middle" x="450.5" y="-144.3" font-family="Times,serif" font-size="14.00">70</text>
<polyline fill="none" stroke="black" points="468,-136.5 468,-159.5 "/>
<text text-anchor="middle" x="485.5" y="-144.3" font-family="Times,serif" font-size="14.00">80</text>
<polyline fill="none" stroke="black" points="503,-136.5 503,-159.5 "/>
<text text-anchor="middle" x="513.5" y="-144.3" font-family="Times,serif" font-size="14.00"> </text>
</g>
<!-- n2_0 -->
<g id="node11" class="node">
<title>n2_0</title>
<polygon fill="none" stroke="black" points="1068,-136.5 1068,-159.5 1180,-159.5 1180,-136.5 1068,-136.5"/>
<text text-anchor="middle" x="1078.5" y="-144.3" font-family="Times,serif" font-size="14.00"> </text>
<polyline fill="none" stroke="black" points="1089,-136.5 1089,-159.5 "/>
<text text-anchor="middle" x="1106.5" y="-144.3" font-family="Times,serif" font-size="14.00">30</text>
<polyline fill="none" stroke="black" points="1124,-136.5 1124,-159.5 "/>
<text text-anchor="middle" x="1141.5" y="-144.3" font-family="Times,serif" font-size="14.00">60</text>
<polyline fill="none" stroke="black" points="1159,-136.5 1159,-159.5 "/>
<text text-anchor="middle" x="1169.5" y="-144.3" font-family="Times,serif" font-size="14.00"> </text>
</g>
<!-- n2_2 -->
<g id="node13" class="node">
<title>n2_2</title>
<polygon fill="lightblue" stroke="black" points="1032.5,-76.5 1032.5,-99.5 1179.5,-99.5 1179.5,-76.5 1032.5,-76.5"/>
<text text-anchor="middle" x="1043" y="-84.3" font-family="Times,serif" font-size="14.00"> </text>
<polyline fill="none" stroke="black" points="1053.5,-76.5 1053.5,-99.5 "/>
<text text-anchor="middle" x="1071" y="-84.3" font-family="Times,serif" font-size="14.00">40</text>
<polyline fill="none" stroke="black" points="1088.5,-76.5 1088.5,-99.5 "/>
<text text-anchor="middle" x="1106" y="-84.3" font-family="Times,serif" font-size="14.00">46</text>
<polyline fill="none" stroke="black" points="1123.5,-76.5 1123.5,-99.5 "/>
<text text-anchor="middle" x="1141" y="-84.3" font-family="Times,serif" font-size="14.00">50</text>
<polyline fill="none" stroke="black" points="1158.5,-76.5 1158.5,-99.5 "/>
<text text-anchor="middle" x="1169" y="-84.3" font-family="Times,serif" font-size="14.00"> </text>
</g>
<!-- n2_0&#45;&gt;n2_2 -->
<g id="edge5" class="edge">
<title>n2_0:f1&#45;&gt;n2_2</title>
<path fill="none" stroke="black" d="M1106,-136C1106,-127.47 1106,-118.08 1106,-109.94"/>
<polygon fill="black" stroke="black" points="1109.5,-109.83 1106,-99.83 1102.5,-109.83 1109.5,-109.83"/>
</g>
<!-- n2_1 -->
<g id="node12" class="node">
<title>n2_1</title>
<polygon fill="none" stroke="black" points="938,-136.5 938,-159.5 1050,-159.5 1050,-136.5 938,-136.5"/>
<text text-anchor="middle" x="948.5" y="-144.3" font-family="Times,serif" font-size="14.00"> </text>
<polyline fill="none" stroke="black" points="959,-136.5 959,-159.5 "/>
<text text-anchor="middle" x="976.5" y="-144.3" font-family="Times,serif" font-size="14.00">10</text>
<polyline fill="none" stroke="black" points="994,-136.5 994,-159.5 "/>
<text text-anchor="middle" x="1011.5" y="-144.3" font-family="Times,serif" font-size="14.00">20</text>
<polyline fill="none" stroke="black" points="1029,-136.5 1029,-159.5 "/>
<text text-anchor="middle" x="1039.5" y="-144.3" font-family="Times,serif" font-size="14.00"> </text>
</g>
<!-- n2_8 -->
<g id="node15" class="node">
<title>n2_8</title>
<polygon fill="none" stroke="black" points="990.5,-16.5 990.5,-39.5 1067.5,-39.5 1067.5,-16.5 990.5,-16.5"/>
<text text-anchor="middle" x="1001" y="-24.3" font-family="Times,serif" font-size="14.00"> </text>
<polyline fill="none" stroke="black" points="1011.5,-16.5 1011.5,-39.5 "/>
<text text-anchor="middle" x="1029" y="-24.3" font-family="Times,serif" font-size="14.00">45</text>
<polyline fill="none" stroke="black" points="1046.5,-16.5 1046.5,-39.5 "/>
<text text-anchor="middle" x="1057" y="-24.3" font-family="Times,serif" font-size="14.00"> </text>
</g>
<!-- n2_2&#45;&gt;n2_8 -->
<g id="edge6" class="edge">
<title>n2_2:f1&#45;&gt;n2_8</title>
<path fill="none" stroke="black" d="M1071,-76C1071,-64.27 1063.64,-54.12 1055.08,-46.29"/>
<polygon fill="black" stroke="black" points="1057.02,-43.36 1047.06,-39.77 1052.61,-48.79 1057.02,-43.36"/>
</g>
<!-- n2_9 -->
<g id="node16" class="node">
<title>n2_9</title>
<polygon fill="none" stroke="black" points="1085.5,-16.5 1085.5,-39.5 1162.5,-39.5 1162.5,-16.5 1085.5,-16.5"/>
<text text-anchor="middle" x="1096" y="-24.3" font-family="Times,serif" font-size="14.00"> </text>
<polyline fill="none" stroke="black" points="1106.5,-16.5 1106.5,-39.5 "/>
<text text-anchor="middle" x="1124" y="-24.3" font-family="Times,serif" font-size="14.00">47</text>
<polyline fill="none" stroke="black" points="1141.5,-16.5 1141.5,-39.5 "/>
<text text-anchor="middle" x="1152" y="-24.3" font-family="Times,serif" font-size="14.00"> </text>
</g>
<!-- n2_2&#45;&gt;n2_9 -->
<g id="edge7" class="edge">
<title>n2_2:f2&#45;&gt;n2_9</title>
<path fill="none" stroke="black" d="M1106,-76C1106,-66.68 1109.12,-56.97 1112.77,-48.81"/>
<polygon fill="black" stroke="black" points="1115.95,-50.27 1117.3,-39.76 1109.69,-47.14 1115.95,-50.27"/>
</g>
<!-- n2_3 -->
<g id="node14" class="node">
<title>n2_3</title>
<polygon fill="none" stroke="black" points="808,-136.5 808,-159.5 920,-159.5 920,-136.5 808,-136.5"/>
<text text-anchor="middle" x="818.5" y="-144.3" font-family="Times,serif" font-size="14.00"> </text>
<polyline fill="none" stroke="black" points="829,-136.5 829,-159.5 "/>
<text text-anchor="middle" x="846.5" y="-144.3" font-family="Times,serif" font-size="14.00">70</text>
<polyline fill="none" stroke="black" points="864,-136.5 864,-159.5 "/>
<text text-anchor="middle" x="881.5" y="-144.3" font-family="Times,serif" font-size="14.00">80</text>
<polyline fill="none" stroke="black" points="899,-136.5 899,-159.5 "/>
<text text-anchor="middle" x="909.5" y="-144.3" font-family="Times,serif" font-size="14.00"> </text>
</g>
</g>
</svg>
