<?xml version="1.0" encoding="UTF-8" standalone="no"?>
<!DOCTYPE svg PUBLIC "-//W3C//DTD SVG 1.1//EN"
 "http://www.w3.org/Graphics/SVG/1.1/DTD/svg11.dtd">
<!-- Generated by graphviz version 2.43.0 (0)
 -->
<!-- Title: b_tree_sequence Pages: 1 -->
<svg width="1049pt" height="222pt"
 viewBox="0.00 0.00 1049.00 222.00" xmlns="http://www.w3.org/2000/svg" xmlns:xlink="http://www.w3.org/1999/xlink">
<g id="graph0" class="graph" transform="scale(1 1) rotate(0) translate(4 218)">
<title>b_tree_sequence</title>
<polygon fill="white" stroke="transparent" points="-4,4 -4,-218 1045,-218 1045,4 -4,4"/>
<g id="clust1" class="cluster">
<title>cluster_0</title>
<polygon fill="none" stroke="black" points="8,-8 8,-206 396,-206 396,-8 8,-8"/>
<text text-anchor="middle" x="202" y="-190.8" font-family="Times,serif" font-size="14.00">Estado Inicial</text>
<text text-anchor="middle" x="202" y="-175.8" font-family="Times,serif" font-size="14.00">(Queremos insertar 48)</text>
</g>
<g id="clust2" class="cluster">
<title>cluster_1</title>
<polygon fill="none" stroke="black" points="404,-8 404,-191 741,-191 741,-8 404,-8"/>
<text text-anchor="middle" x="572.5" y="-175.8" font-family="Times,serif" font-size="14.00">Primer Split: 48 causa overflow en nodo hoja</text>
</g>
<g id="clust3" class="cluster">
<title>cluster_2</title>
<polygon fill="none" stroke="black" points="749,-8 749,-206 1033,-206 1033,-8 749,-8"/>
<text text-anchor="middle" x="891" y="-190.8" font-family="Times,serif" font-size="14.00">Split en nodo padre</text>
<text text-anchor="middle" x="891" y="-175.8" font-family="Times,serif" font-size="14.00">(47 sube a la raíz)</text>
</g>
<!-- n0_0 -->
<g id="node1" class="node">
<title>n0_0</title>
<polygon fill="none" stroke="black" points="276,-136.5 276,-159.5 388,-159.5 388,-136.5 276,-136.5"/>
<text text-anchor="middle" x="286.5" y="-144.3" font-family="Times,serif" font-size="14.00"> </text>
<polyline fill="none" stroke="black" points="297,-136.5 297,-159.5 "/>
<text text-anchor="middle" x="314.5" y="-144.3" font-family="Times,serif" font-size="14.00">30</text>
<polyline fill="none" stroke="black" points="332,-136.5 332,-159.5 "/>
<text text-anchor="middle" x="349.5" y="-144.3" font-family="Times,serif" font-size="14.00">60</text>
<polyline fill="none" stroke="black" points="367,-136.5 367,-159.5 "/>
<text text-anchor="middle" x="377.5" y="-144.3" font-family="Times,serif" font-size="14.00"> </text>
</g>
<!-- n0_2 -->
<g id="node3" class="node">
<title>n0_2</title>
<polygon fill="lightgray" stroke="black" points="240.5,-76.5 240.5,-99.5 387.5,-99.5 387.5,-76.5 240.5,-76.5"/>
<text text-anchor="middle" x="251" y="-84.3" font-family="Times,serif" font-size="14.00"> </text>
<polyline fill="none" stroke="black" points="261.5,-76.5 261.5,-99.5 "/>
<text text-anchor="middle" x="279" y="-84.3" font-family="Times,serif" font-size="14.00">40</text>
<polyline fill="none" stroke="black" points="296.5,-76.5 296.5,-99.5 "/>
<text text-anchor="middle" x="314" y="-84.3" font-family="Times,serif" font-size="14.00">46</text>
<polyline fill="none" stroke="black" points="331.5,-76.5 331.5,-99.5 "/>
<text text-anchor="middle" x="349" y="-84.3" font-family="Times,serif" font-size="14.00">50</text>
<polyline fill="none" stroke="black" points="366.5,-76.5 366.5,-99.5 "/>
<text text-anchor="middle" x="377" y="-84.3" font-family="Times,serif" font-size="14.00"> </text>
</g>
<!-- n0_0&#45;&gt;n0_2 -->
<g id="edge1" class="edge">
<title>n0_0:f1&#45;&gt;n0_2</title>
<path fill="none" stroke="black" d="M314,-136C314,-127.47 314,-118.08 314,-109.94"/>
<polygon fill="black" stroke="black" points="317.5,-109.83 314,-99.83 310.5,-109.83 317.5,-109.83"/>
</g>
<!-- n0_1 -->
<g id="node2" class="node">
<title>n0_1</title>
<polygon fill="none" stroke="black" points="146,-136.5 146,-159.5 258,-159.5 258,-136.5 146,-136.5"/>
<text text-anchor="middle" x="156.5" y="-144.3" font-family="Times,serif" font-size="14.00"> </text>
<polyline fill="none" stroke="black" points="167,-136.5 167,-159.5 "/>
<text text-anchor="middle" x="184.5" y="-144.3" font-family="Times,serif" font-size="14.00">10</text>
<polyline fill="none" stroke="black" points="202,-136.5 202,-159.5 "/>
<text text-anchor="middle" x="219.5" y="-144.3" font-family="Times,serif" font-size="14.00">20</text>
<polyline fill="none" stroke="black" points="237,-136.5 237,-159.5 "/>
<text text-anchor="middle" x="247.5" y="-144.3" font-family="Times,serif" font-size="14.00"> </text>
</g>
<!-- n0_8 -->
<g id="node5" class="node">
<title>n0_8</title>
<polygon fill="none" stroke="black" points="198.5,-16.5 198.5,-39.5 275.5,-39.5 275.5,-16.5 198.5,-16.5"/>
<text text-anchor="middle" x="209" y="-24.3" font-family="Times,serif" font-size="14.00"> </text>
<polyline fill="none" stroke="black" points="219.5,-16.5 219.5,-39.5 "/>
<text text-anchor="middle" x="237" y="-24.3" font-family="Times,serif" font-size="14.00">45</text>
<polyline fill="none" stroke="black" points="254.5,-16.5 254.5,-39.5 "/>
<text text-anchor="middle" x="265" y="-24.3" font-family="Times,serif" font-size="14.00"> </text>
</g>
<!-- n0_2&#45;&gt;n0_8 -->
<g id="edge2" class="edge">
<title>n0_2:f1&#45;&gt;n0_8</title>
<path fill="none" stroke="black" d="M279,-76C279,-64.27 271.64,-54.12 263.08,-46.29"/>
<polygon fill="black" stroke="black" points="265.02,-43.36 255.06,-39.77 260.61,-48.79 265.02,-43.36"/>
</g>
<!-- n0_9 -->
<g id="node6" class="node">
<title>n0_9</title>
<polygon fill="none" stroke="black" points="293.5,-16.5 293.5,-39.5 370.5,-39.5 370.5,-16.5 293.5,-16.5"/>
<text text-anchor="middle" x="304" y="-24.3" font-family="Times,serif" font-size="14.00"> </text>
<polyline fill="none" stroke="black" points="314.5,-16.5 314.5,-39.5 "/>
<text text-anchor="middle" x="332" y="-24.3" font-family="Times,serif" font-size="14.00">47</text>
<polyline fill="none" stroke="black" points="349.5,-16.5 349.5,-39.5 "/>
<text text-anchor="middle" x="360" y="-24.3" font-family="Times,serif" font-size="14.00"> </text>
</g>
<!-- n0_2&#45;&gt;n0_9 -->
<g id="edge3" class="edge">
<title>n0_2:f2&#45;&gt;n0_9</title>
<path fill="none" stroke="black" d="M314,-76C314,-66.68 317.12,-56.97 320.77,-48.81"/>
<polygon fill="black" stroke="black" points="323.95,-50.27 325.3,-39.76 317.69,-47.14 323.95,-50.27"/>
</g>
<!-- n0_3 -->
<g id="node4" class="node">
<title>n0_3</title>
<polygon fill="none" stroke="black" points="16,-136.5 16,-159.5 128,-159.5 128,-136.5 16,-136.5"/>
<text text-anchor="middle" x="26.5" y="-144.3" font-family="Times,serif" font-size="14.00"> </text>
<polyline fill="none" stroke="black" points="37,-136.5 37,-159.5 "/>
<text text-anchor="middle" x="54.5" y="-144.3" font-family="Times,serif" font-size="14.00">70</text>
<polyline fill="none" stroke="black" points="72,-136.5 72,-159.5 "/>
<text text-anchor="middle" x="89.5" y="-144.3" font-family="Times,serif" font-size="14.00">80</text>
<polyline fill="none" stroke="black" points="107,-136.5 107,-159.5 "/>
<text text-anchor="middle" x="117.5" y="-144.3" font-family="Times,serif" font-size="14.00"> </text>
</g>
<!-- n1_0 -->
<g id="node7" class="node">
<title>n1_0</title>
<polygon fill="none" stroke="black" points="580,-136.5 580,-159.5 692,-159.5 692,-136.5 580,-136.5"/>
<text text-anchor="middle" x="590.5" y="-144.3" font-family="Times,serif" font-size="14.00"> </text>
<polyline fill="none" stroke="black" points="601,-136.5 601,-159.5 "/>
<text text-anchor="middle" x="618.5" y="-144.3" font-family="Times,serif" font-size="14.00">30</text>
<polyline fill="none" stroke="black" points="636,-136.5 636,-159.5 "/>
<text text-anchor="middle" x="653.5" y="-144.3" font-family="Times,serif" font-size="14.00">60</text>
<polyline fill="none" stroke="black" points="671,-136.5 671,-159.5 "/>
<text text-anchor="middle" x="681.5" y="-144.3" font-family="Times,serif" font-size="14.00"> </text>
</g>
<!-- n1_2 -->
<g id="node8" class="node">
<title>n1_2</title>
<polygon fill="pink" stroke="black" points="527,-76.5 527,-99.5 709,-99.5 709,-76.5 527,-76.5"/>
<text text-anchor="middle" x="537.5" y="-84.3" font-family="Times,serif" font-size="14.00"> </text>
<polyline fill="none" stroke="black" points="548,-76.5 548,-99.5 "/>
<text text-anchor="middle" x="565.5" y="-84.3" font-family="Times,serif" font-size="14.00">40</text>
<polyline fill="none" stroke="black" points="583,-76.5 583,-99.5 "/>
<text text-anchor="middle" x="600.5" y="-84.3" font-family="Times,serif" font-size="14.00">46</text>
<polyline fill="none" stroke="black" points="618,-76.5 618,-99.5 "/>
<text text-anchor="middle" x="635.5" y="-84.3" font-family="Times,serif" font-size="14.00">47</text>
<polyline fill="none" stroke="black" points="653,-76.5 653,-99.5 "/>
<text text-anchor="middle" x="670.5" y="-84.3" font-family="Times,serif" font-size="14.00">50</text>
<polyline fill="none" stroke="black" points="688,-76.5 688,-99.5 "/>
<text text-anchor="middle" x="698.5" y="-84.3" font-family="Times,serif" font-size="14.00"> </text>
</g>
<!-- n1_0&#45;&gt;n1_2 -->
<g id="edge4" class="edge">
<title>n1_0:f1&#45;&gt;n1_2</title>
<path fill="none" stroke="black" d="M618,-136C618,-127.47 618,-118.08 618,-109.94"/>
<polygon fill="black" stroke="black" points="621.5,-109.83 618,-99.83 614.5,-109.83 621.5,-109.83"/>
</g>
<!-- n1_9 -->
<g id="node10" class="node">
<title>n1_9</title>
<polygon fill="none" stroke="black" points="544,-16.5 544,-39.5 656,-39.5 656,-16.5 544,-16.5"/>
<text text-anchor="middle" x="554.5" y="-24.3" font-family="Times,serif" font-size="14.00"> </text>
<polyline fill="none" stroke="black" points="565,-16.5 565,-39.5 "/>
<text text-anchor="middle" x="582.5" y="-24.3" font-family="Times,serif" font-size="14.00">47</text>
<polyline fill="none" stroke="black" points="600,-16.5 600,-39.5 "/>
<text text-anchor="middle" x="617.5" y="-24.3" font-family="Times,serif" font-size="14.00">48</text>
<polyline fill="none" stroke="black" points="635,-16.5 635,-39.5 "/>
<text text-anchor="middle" x="645.5" y="-24.3" font-family="Times,serif" font-size="14.00"> </text>
</g>
<!-- n1_2&#45;&gt;n1_9 -->
<g id="edge5" class="edge">
<title>n1_2:f2&#45;&gt;n1_9</title>
<path fill="none" stroke="black" d="M600,-76C600,-67.47 600,-58.08 600,-49.94"/>
<polygon fill="black" stroke="black" points="603.5,-49.83 600,-39.83 596.5,-49.83 603.5,-49.83"/>
</g>
<!-- n1_8 -->
<g id="node9" class="node">
<title>n1_8</title>
<polygon fill="none" stroke="black" points="460.5,-136.5 460.5,-159.5 537.5,-159.5 537.5,-136.5 460.5,-136.5"/>
<text text-anchor="middle" x="471" y="-144.3" font-family="Times,serif" font-size="14.00"> </text>
<polyline fill="none" stroke="black" points="481.5,-136.5 481.5,-159.5 "/>
<text text-anchor="middle" x="499" y="-144.3" font-family="Times,serif" font-size="14.00">45</text>
<polyline fill="none" stroke="black" points="516.5,-136.5 516.5,-159.5 "/>
<text text-anchor="middle" x="527" y="-144.3" font-family="Times,serif" font-size="14.00"> </text>
</g>
<!-- n2_0 -->
<g id="node11" class="node">
<title>n2_0</title>
<polygon fill="lightblue" stroke="black" points="838.5,-136.5 838.5,-159.5 985.5,-159.5 985.5,-136.5 838.5,-136.5"/>
<text text-anchor="middle" x="849" y="-144.3" font-family="Times,serif" font-size="14.00"> </text>
<polyline fill="none" stroke="black" points="859.5,-136.5 859.5,-159.5 "/>
<text text-anchor="middle" x="877" y="-144.3" font-family="Times,serif" font-size="14.00">30</text>
<polyline fill="none" stroke="black" points="894.5,-136.5 894.5,-159.5 "/>
<text text-anchor="middle" x="912" y="-144.3" font-family="Times,serif" font-size="14.00">47</text>
<polyline fill="none" stroke="black" points="929.5,-136.5 929.5,-159.5 "/>
<text text-anchor="middle" x="947" y="-144.3" font-family="Times,serif" font-size="14.00">60</text>
<polyline fill="none" stroke="black" points="964.5,-136.5 964.5,-159.5 "/>
<text text-anchor="middle" x="975" y="-144.3" font-family="Times,serif" font-size="14.00"> </text>
</g>
<!-- n2_2 -->
<g id="node12" class="node">
<title>n2_2</title>
<polygon fill="none" stroke="black" points="783,-76.5 783,-99.5 895,-99.5 895,-76.5 783,-76.5"/>
<text text-anchor="middle" x="793.5" y="-84.3" font-family="Times,serif" font-size="14.00"> </text>
<polyline fill="none" stroke="black" points="804,-76.5 804,-99.5 "/>
<text text-anchor="middle" x="821.5" y="-84.3" font-family="Times,serif" font-size="14.00">40</text>
<polyline fill="none" stroke="black" points="839,-76.5 839,-99.5 "/>
<text text-anchor="middle" x="856.5" y="-84.3" font-family="Times,serif" font-size="14.00">46</text>
<polyline fill="none" stroke="black" points="874,-76.5 874,-99.5 "/>
<text text-anchor="middle" x="884.5" y="-84.3" font-family="Times,serif" font-size="14.00"> </text>
</g>
<!-- n2_0&#45;&gt;n2_2 -->
<g id="edge6" class="edge">
<title>n2_0:f1&#45;&gt;n2_2</title>
<path fill="none" stroke="black" d="M877,-136C877,-124.82 870.42,-114.81 862.74,-106.93"/>
<polygon fill="black" stroke="black" points="864.65,-103.93 854.9,-99.8 859.94,-109.11 864.65,-103.93"/>
</g>
<!-- n2_3 -->
<g id="node13" class="node">
<title>n2_3</title>
<polygon fill="none" stroke="black" points="913,-76.5 913,-99.5 1025,-99.5 1025,-76.5 913,-76.5"/>
<text text-anchor="middle" x="923.5" y="-84.3" font-family="Times,serif" font-size="14.00"> </text>
<polyline fill="none" stroke="black" points="934,-76.5 934,-99.5 "/>
<text text-anchor="middle" x="951.5" y="-84.3" font-family="Times,serif" font-size="14.00">48</text>
<polyline fill="none" stroke="black" points="969,-76.5 969,-99.5 "/>
<text text-anchor="middle" x="986.5" y="-84.3" font-family="Times,serif" font-size="14.00">50</text>
<polyline fill="none" stroke="black" points="1004,-76.5 1004,-99.5 "/>
<text text-anchor="middle" x="1014.5" y="-84.3" font-family="Times,serif" font-size="14.00"> </text>
</g>
<!-- n2_0&#45;&gt;n2_3 -->
<g id="edge7" class="edge">
<title>n2_0:f2&#45;&gt;n2_3</title>
<path fill="none" stroke="black" d="M912,-136C912,-122.61 921.48,-112.33 932.7,-104.84"/>
<polygon fill="black" stroke="black" points="934.66,-107.75 941.5,-99.66 931.11,-101.72 934.66,-107.75"/>
</g>
<!-- n2_8 -->
<g id="node14" class="node">
<title>n2_8</title>
<polygon fill="none" stroke="black" points="757.5,-16.5 757.5,-39.5 834.5,-39.5 834.5,-16.5 757.5,-16.5"/>
<text text-anchor="middle" x="768" y="-24.3" font-family="Times,serif" font-size="14.00"> </text>
<polyline fill="none" stroke="black" points="778.5,-16.5 778.5,-39.5 "/>
<text text-anchor="middle" x="796" y="-24.3" font-family="Times,serif" font-size="14.00">45</text>
<polyline fill="none" stroke="black" points="813.5,-16.5 813.5,-39.5 "/>
<text text-anchor="middle" x="824" y="-24.3" font-family="Times,serif" font-size="14.00"> </text>
</g>
<!-- n2_2&#45;&gt;n2_8 -->
<g id="edge8" class="edge">
<title>n2_2:f1&#45;&gt;n2_8</title>
<path fill="none" stroke="black" d="M821,-76C821,-66.06 816.59,-56.18 811.47,-48.06"/>
<polygon fill="black" stroke="black" points="814.22,-45.88 805.59,-39.73 808.5,-49.92 814.22,-45.88"/>
</g>
<!-- n2_9 -->
<g id="node15" class="node">
<title>n2_9</title>
<polygon fill="none" stroke="black" points="852.5,-16.5 852.5,-39.5 929.5,-39.5 929.5,-16.5 852.5,-16.5"/>
<text text-anchor="middle" x="863" y="-24.3" font-family="Times,serif" font-size="14.00"> </text>
<polyline fill="none" stroke="black" points="873.5,-16.5 873.5,-39.5 "/>
<text text-anchor="middle" x="891" y="-24.3" font-family="Times,serif" font-size="14.00">47</text>
<polyline fill="none" stroke="black" points="908.5,-16.5 908.5,-39.5 "/>
<text text-anchor="middle" x="919" y="-24.3" font-family="Times,serif" font-size="14.00"> </text>
</g>
<!-- n2_2&#45;&gt;n2_9 -->
<g id="edge9" class="edge">
<title>n2_2:f2&#45;&gt;n2_9</title>
<path fill="none" stroke="black" d="M857,-76C857,-65.12 863.05,-55.06 870.05,-47.06"/>
<polygon fill="black" stroke="black" points="872.67,-49.38 877.17,-39.79 867.67,-44.48 872.67,-49.38"/>
</g>
<!-- n2_10 -->
<g id="node16" class="node">
<title>n2_10</title>
<polygon fill="none" stroke="black" points="947.5,-16.5 947.5,-39.5 1024.5,-39.5 1024.5,-16.5 947.5,-16.5"/>
<text text-anchor="middle" x="958" y="-24.3" font-family="Times,serif" font-size="14.00"> </text>
<polyline fill="none" stroke="black" points="968.5,-16.5 968.5,-39.5 "/>
<text text-anchor="middle" x="986" y="-24.3" font-family="Times,serif" font-size="14.00">49</text>
<polyline fill="none" stroke="black" points="1003.5,-16.5 1003.5,-39.5 "/>
<text text-anchor="middle" x="1014" y="-24.3" font-family="Times,serif" font-size="14.00"> </text>
</g>
<!-- n2_3&#45;&gt;n2_10 -->
<g id="edge10" class="edge">
<title>n2_3:f1&#45;&gt;n2_10</title>
<path fill="none" stroke="black" d="M951,-76C951,-65.01 957.23,-54.93 964.43,-46.95"/>
<polygon fill="black" stroke="black" points="967.11,-49.22 971.76,-39.7 962.19,-44.24 967.11,-49.22"/>
</g>
</g>
</svg>
