<?xml version="1.0" encoding="UTF-8" standalone="no"?>
<!DOCTYPE svg PUBLIC "-//W3C//DTD SVG 1.1//EN"
 "http://www.w3.org/Graphics/SVG/1.1/DTD/svg11.dtd">
<!-- Generated by graphviz version 2.43.0 (0)
 -->
<!-- Title: b_tree Pages: 1 -->
<svg width="837pt" height="191pt"
 viewBox="0.00 0.00 836.50 191.00" xmlns="http://www.w3.org/2000/svg" xmlns:xlink="http://www.w3.org/1999/xlink">
<g id="graph0" class="graph" transform="scale(1 1) rotate(0) translate(4 187)">
<title>b_tree</title>
<polygon fill="white" stroke="transparent" points="-4,4 -4,-187 832.5,-187 832.5,4 -4,4"/>
<!-- node0 -->
<g id="node1" class="node">
<title>node0</title>
<polygon fill="none" stroke="black" points="390,-146.5 390,-182.5 502,-182.5 502,-146.5 390,-146.5"/>
<text text-anchor="middle" x="400.5" y="-160.8" font-family="Times,serif" font-size="14.00"> </text>
<polyline fill="none" stroke="black" points="411,-146.5 411,-182.5 "/>
<text text-anchor="middle" x="428.5" y="-160.8" font-family="Times,serif" font-size="14.00">30</text>
<polyline fill="none" stroke="black" points="446,-146.5 446,-182.5 "/>
<text text-anchor="middle" x="463.5" y="-160.8" font-family="Times,serif" font-size="14.00">60</text>
<polyline fill="none" stroke="black" points="481,-146.5 481,-182.5 "/>
<text text-anchor="middle" x="491.5" y="-160.8" font-family="Times,serif" font-size="14.00"> </text>
</g>
<!-- node1 -->
<g id="node2" class="node">
<title>node1</title>
<polygon fill="none" stroke="black" points="117,-73.5 117,-109.5 229,-109.5 229,-73.5 117,-73.5"/>
<text text-anchor="middle" x="127.5" y="-87.8" font-family="Times,serif" font-size="14.00"> </text>
<polyline fill="none" stroke="black" points="138,-73.5 138,-109.5 "/>
<text text-anchor="middle" x="155.5" y="-87.8" font-family="Times,serif" font-size="14.00">10</text>
<polyline fill="none" stroke="black" points="173,-73.5 173,-109.5 "/>
<text text-anchor="middle" x="190.5" y="-87.8" font-family="Times,serif" font-size="14.00">20</text>
<polyline fill="none" stroke="black" points="208,-73.5 208,-109.5 "/>
<text text-anchor="middle" x="218.5" y="-87.8" font-family="Times,serif" font-size="14.00"> </text>
</g>
<!-- node0&#45;&gt;node1 -->
<g id="edge1" class="edge">
<title>node0:f0&#45;&gt;node1</title>
<path fill="none" stroke="black" d="M389,-164.5C324.69,-164.5 254.88,-135.42 212.54,-114.22"/>
<polygon fill="black" stroke="black" points="213.91,-110.99 203.41,-109.56 210.73,-117.23 213.91,-110.99"/>
</g>
<!-- node2 -->
<g id="node3" class="node">
<title>node2</title>
<polygon fill="none" stroke="black" points="372,-73.5 372,-109.5 484,-109.5 484,-73.5 372,-73.5"/>
<text text-anchor="middle" x="382.5" y="-87.8" font-family="Times,serif" font-size="14.00"> </text>
<polyline fill="none" stroke="black" points="393,-73.5 393,-109.5 "/>
<text text-anchor="middle" x="410.5" y="-87.8" font-family="Times,serif" font-size="14.00">40</text>
<polyline fill="none" stroke="black" points="428,-73.5 428,-109.5 "/>
<text text-anchor="middle" x="445.5" y="-87.8" font-family="Times,serif" font-size="14.00">50</text>
<polyline fill="none" stroke="black" points="463,-73.5 463,-109.5 "/>
<text text-anchor="middle" x="473.5" y="-87.8" font-family="Times,serif" font-size="14.00"> </text>
</g>
<!-- node0&#45;&gt;node2 -->
<g id="edge2" class="edge">
<title>node0:f1&#45;&gt;node2</title>
<path fill="none" stroke="black" d="M428,-146C428,-137.51 428,-128.26 428,-119.88"/>
<polygon fill="black" stroke="black" points="431.5,-119.85 428,-109.85 424.5,-119.85 431.5,-119.85"/>
</g>
<!-- node3 -->
<g id="node4" class="node">
<title>node3</title>
<polygon fill="none" stroke="black" points="623,-73.5 623,-109.5 735,-109.5 735,-73.5 623,-73.5"/>
<text text-anchor="middle" x="633.5" y="-87.8" font-family="Times,serif" font-size="14.00"> </text>
<polyline fill="none" stroke="black" points="644,-73.5 644,-109.5 "/>
<text text-anchor="middle" x="661.5" y="-87.8" font-family="Times,serif" font-size="14.00">70</text>
<polyline fill="none" stroke="black" points="679,-73.5 679,-109.5 "/>
<text text-anchor="middle" x="696.5" y="-87.8" font-family="Times,serif" font-size="14.00">80</text>
<polyline fill="none" stroke="black" points="714,-73.5 714,-109.5 "/>
<text text-anchor="middle" x="724.5" y="-87.8" font-family="Times,serif" font-size="14.00"> </text>
</g>
<!-- node0&#45;&gt;node3 -->
<g id="edge3" class="edge">
<title>node0:f2&#45;&gt;node3</title>
<path fill="none" stroke="black" d="M464,-146C464,-114.98 549.33,-101.81 612.47,-96.31"/>
<polygon fill="black" stroke="black" points="613.11,-99.77 622.79,-95.47 612.54,-92.8 613.11,-99.77"/>
</g>
<!-- node4 -->
<g id="node5" class="node">
<title>node4</title>
<polygon fill="none" stroke="black" points="0,-0.5 0,-36.5 68,-36.5 68,-0.5 0,-0.5"/>
<text text-anchor="middle" x="10.5" y="-14.8" font-family="Times,serif" font-size="14.00"> </text>
<polyline fill="none" stroke="black" points="21,-0.5 21,-36.5 "/>
<text text-anchor="middle" x="34" y="-14.8" font-family="Times,serif" font-size="14.00">5</text>
<polyline fill="none" stroke="black" points="47,-0.5 47,-36.5 "/>
<text text-anchor="middle" x="57.5" y="-14.8" font-family="Times,serif" font-size="14.00"> </text>
</g>
<!-- node1&#45;&gt;node4 -->
<g id="edge4" class="edge">
<title>node1:f0&#45;&gt;node4</title>
<path fill="none" stroke="black" d="M127,-73C127,-66.76 101.56,-52.42 77.29,-40.15"/>
<polygon fill="black" stroke="black" points="78.61,-36.9 68.1,-35.57 75.49,-43.16 78.61,-36.9"/>
</g>
<!-- node5 -->
<g id="node6" class="node">
<title>node5</title>
<polygon fill="none" stroke="black" points="86.5,-0.5 86.5,-36.5 163.5,-36.5 163.5,-0.5 86.5,-0.5"/>
<text text-anchor="middle" x="97" y="-14.8" font-family="Times,serif" font-size="14.00"> </text>
<polyline fill="none" stroke="black" points="107.5,-0.5 107.5,-36.5 "/>
<text text-anchor="middle" x="125" y="-14.8" font-family="Times,serif" font-size="14.00">15</text>
<polyline fill="none" stroke="black" points="142.5,-0.5 142.5,-36.5 "/>
<text text-anchor="middle" x="153" y="-14.8" font-family="Times,serif" font-size="14.00"> </text>
</g>
<!-- node1&#45;&gt;node5 -->
<g id="edge5" class="edge">
<title>node1:f1&#45;&gt;node5</title>
<path fill="none" stroke="black" d="M155,-73C155,-63.3 151.2,-53.74 146.31,-45.43"/>
<polygon fill="black" stroke="black" points="149.15,-43.37 140.7,-36.97 143.31,-47.24 149.15,-43.37"/>
</g>
<!-- node6 -->
<g id="node7" class="node">
<title>node6</title>
<polygon fill="none" stroke="black" points="181.5,-0.5 181.5,-36.5 258.5,-36.5 258.5,-0.5 181.5,-0.5"/>
<text text-anchor="middle" x="192" y="-14.8" font-family="Times,serif" font-size="14.00"> </text>
<polyline fill="none" stroke="black" points="202.5,-0.5 202.5,-36.5 "/>
<text text-anchor="middle" x="220" y="-14.8" font-family="Times,serif" font-size="14.00">25</text>
<polyline fill="none" stroke="black" points="237.5,-0.5 237.5,-36.5 "/>
<text text-anchor="middle" x="248" y="-14.8" font-family="Times,serif" font-size="14.00"> </text>
</g>
<!-- node1&#45;&gt;node6 -->
<g id="edge6" class="edge">
<title>node1:f2&#45;&gt;node6</title>
<path fill="none" stroke="black" d="M191,-73C191,-63.22 194.79,-53.53 199.63,-45.13"/>
<polygon fill="black" stroke="black" points="202.66,-46.88 205.16,-36.58 196.79,-43.07 202.66,-46.88"/>
</g>
<!-- node7 -->
<g id="node8" class="node">
<title>node7</title>
<polygon fill="none" stroke="black" points="276.5,-0.5 276.5,-36.5 353.5,-36.5 353.5,-0.5 276.5,-0.5"/>
<text text-anchor="middle" x="287" y="-14.8" font-family="Times,serif" font-size="14.00"> </text>
<polyline fill="none" stroke="black" points="297.5,-0.5 297.5,-36.5 "/>
<text text-anchor="middle" x="315" y="-14.8" font-family="Times,serif" font-size="14.00">35</text>
<polyline fill="none" stroke="black" points="332.5,-0.5 332.5,-36.5 "/>
<text text-anchor="middle" x="343" y="-14.8" font-family="Times,serif" font-size="14.00"> </text>
</g>
<!-- node2&#45;&gt;node7 -->
<g id="edge7" class="edge">
<title>node2:f0&#45;&gt;node7</title>
<path fill="none" stroke="black" d="M382,-73C382,-59.23 373.25,-48.42 362.07,-40.23"/>
<polygon fill="black" stroke="black" points="363.88,-37.24 353.59,-34.73 360.07,-43.11 363.88,-37.24"/>
</g>
<!-- node8 -->
<g id="node9" class="node">
<title>node8</title>
<polygon fill="none" stroke="black" points="371.5,-0.5 371.5,-36.5 448.5,-36.5 448.5,-0.5 371.5,-0.5"/>
<text text-anchor="middle" x="382" y="-14.8" font-family="Times,serif" font-size="14.00"> </text>
<polyline fill="none" stroke="black" points="392.5,-0.5 392.5,-36.5 "/>
<text text-anchor="middle" x="410" y="-14.8" font-family="Times,serif" font-size="14.00">45</text>
<polyline fill="none" stroke="black" points="427.5,-0.5 427.5,-36.5 "/>
<text text-anchor="middle" x="438" y="-14.8" font-family="Times,serif" font-size="14.00"> </text>
</g>
<!-- node2&#45;&gt;node8 -->
<g id="edge8" class="edge">
<title>node2:f1&#45;&gt;node8</title>
<path fill="none" stroke="black" d="M410,-73C410,-64.51 410,-55.26 410,-46.88"/>
<polygon fill="black" stroke="black" points="413.5,-46.85 410,-36.85 406.5,-46.85 413.5,-46.85"/>
</g>
<!-- node9 -->
<g id="node10" class="node">
<title>node9</title>
<polygon fill="none" stroke="black" points="466.5,-0.5 466.5,-36.5 543.5,-36.5 543.5,-0.5 466.5,-0.5"/>
<text text-anchor="middle" x="477" y="-14.8" font-family="Times,serif" font-size="14.00"> </text>
<polyline fill="none" stroke="black" points="487.5,-0.5 487.5,-36.5 "/>
<text text-anchor="middle" x="505" y="-14.8" font-family="Times,serif" font-size="14.00">55</text>
<polyline fill="none" stroke="black" points="522.5,-0.5 522.5,-36.5 "/>
<text text-anchor="middle" x="533" y="-14.8" font-family="Times,serif" font-size="14.00"> </text>
</g>
<!-- node2&#45;&gt;node9 -->
<g id="edge9" class="edge">
<title>node2:f2&#45;&gt;node9</title>
<path fill="none" stroke="black" d="M446,-73C446,-60.9 452.89,-50.82 461.97,-42.8"/>
<polygon fill="black" stroke="black" points="464.26,-45.45 470,-36.54 459.96,-39.93 464.26,-45.45"/>
</g>
<!-- node10 -->
<g id="node11" class="node">
<title>node10</title>
<polygon fill="none" stroke="black" points="561.5,-0.5 561.5,-36.5 638.5,-36.5 638.5,-0.5 561.5,-0.5"/>
<text text-anchor="middle" x="572" y="-14.8" font-family="Times,serif" font-size="14.00"> </text>
<polyline fill="none" stroke="black" points="582.5,-0.5 582.5,-36.5 "/>
<text text-anchor="middle" x="600" y="-14.8" font-family="Times,serif" font-size="14.00">65</text>
<polyline fill="none" stroke="black" points="617.5,-0.5 617.5,-36.5 "/>
<text text-anchor="middle" x="628" y="-14.8" font-family="Times,serif" font-size="14.00"> </text>
</g>
<!-- node3&#45;&gt;node10 -->
<g id="edge10" class="edge">
<title>node3:f0&#45;&gt;node10</title>
<path fill="none" stroke="black" d="M633,-73C633,-62.96 628.74,-53.22 623.27,-44.87"/>
<polygon fill="black" stroke="black" points="626.02,-42.69 617.27,-36.71 620.38,-46.84 626.02,-42.69"/>
</g>
<!-- node11 -->
<g id="node12" class="node">
<title>node11</title>
<polygon fill="none" stroke="black" points="656.5,-0.5 656.5,-36.5 733.5,-36.5 733.5,-0.5 656.5,-0.5"/>
<text text-anchor="middle" x="667" y="-14.8" font-family="Times,serif" font-size="14.00"> </text>
<polyline fill="none" stroke="black" points="677.5,-0.5 677.5,-36.5 "/>
<text text-anchor="middle" x="695" y="-14.8" font-family="Times,serif" font-size="14.00">75</text>
<polyline fill="none" stroke="black" points="712.5,-0.5 712.5,-36.5 "/>
<text text-anchor="middle" x="723" y="-14.8" font-family="Times,serif" font-size="14.00"> </text>
</g>
<!-- node3&#45;&gt;node11 -->
<g id="edge11" class="edge">
<title>node3:f1&#45;&gt;node11</title>
<path fill="none" stroke="black" d="M661,-73C661,-62.87 665.39,-53.11 671.02,-44.76"/>
<polygon fill="black" stroke="black" points="673.95,-46.7 677.2,-36.62 668.37,-42.47 673.95,-46.7"/>
</g>
<!-- node12 -->
<g id="node13" class="node">
<title>node12</title>
<polygon fill="none" stroke="black" points="751.5,-0.5 751.5,-36.5 828.5,-36.5 828.5,-0.5 751.5,-0.5"/>
<text text-anchor="middle" x="762" y="-14.8" font-family="Times,serif" font-size="14.00"> </text>
<polyline fill="none" stroke="black" points="772.5,-0.5 772.5,-36.5 "/>
<text text-anchor="middle" x="790" y="-14.8" font-family="Times,serif" font-size="14.00">85</text>
<polyline fill="none" stroke="black" points="807.5,-0.5 807.5,-36.5 "/>
<text text-anchor="middle" x="818" y="-14.8" font-family="Times,serif" font-size="14.00"> </text>
</g>
<!-- node3&#45;&gt;node12 -->
<g id="edge12" class="edge">
<title>node3:f2&#45;&gt;node12</title>
<path fill="none" stroke="black" d="M697,-73C697,-61.34 719.26,-48.28 742,-37.98"/>
<polygon fill="black" stroke="black" points="743.6,-41.1 751.37,-33.9 740.8,-34.69 743.6,-41.1"/>
</g>
</g>
</svg>
