<?xml version="1.0" encoding="UTF-8" standalone="no"?>
<!DOCTYPE svg PUBLIC "-//W3C//DTD SVG 1.1//EN"
 "http://www.w3.org/Graphics/SVG/1.1/DTD/svg11.dtd">
<!-- Generated by graphviz version 2.43.0 (0)
 -->
<!-- Title: skewed_binary_trees Pages: 1 -->
<svg width="346pt" height="315pt"
 viewBox="0.00 0.00 346.00 315.00" xmlns="http://www.w3.org/2000/svg" xmlns:xlink="http://www.w3.org/1999/xlink">
<g id="graph0" class="graph" transform="scale(1 1) rotate(0) translate(4 311)">
<title>skewed_binary_trees</title>
<polygon fill="white" stroke="transparent" points="-4,4 -4,-311 342,-311 342,4 -4,4"/>
<g id="clust1" class="cluster">
<title>cluster_left</title>
<polygon fill="none" stroke="black" points="8,-8 8,-299 169,-299 169,-8 8,-8"/>
<text text-anchor="middle" x="88.5" y="-283.8" font-family="Times,serif" font-size="14.00">Sesgado a Izquierda</text>
</g>
<g id="clust2" class="cluster">
<title>cluster_right</title>
<polygon fill="none" stroke="black" points="177,-8 177,-299 330,-299 330,-8 177,-8"/>
<text text-anchor="middle" x="253.5" y="-283.8" font-family="Times,serif" font-size="14.00">Sesgado a Derecha</text>
</g>
<!-- A1 -->
<g id="node1" class="node">
<title>A1</title>
<polygon fill="none" stroke="black" points="115,-268 61,-268 61,-232 115,-232 115,-268"/>
<text text-anchor="middle" x="88" y="-246.3" font-family="Times,serif" font-size="14.00">10</text>
</g>
<!-- B1 -->
<g id="node2" class="node">
<title>B1</title>
<polygon fill="none" stroke="black" points="115,-196 61,-196 61,-160 115,-160 115,-196"/>
<text text-anchor="middle" x="88" y="-174.3" font-family="Times,serif" font-size="14.00">8</text>
</g>
<!-- A1&#45;&gt;B1 -->
<g id="edge1" class="edge">
<title>A1&#45;&gt;B1</title>
<path fill="none" stroke="black" d="M88,-231.7C88,-223.98 88,-214.71 88,-206.11"/>
<polygon fill="black" stroke="black" points="91.5,-206.1 88,-196.1 84.5,-206.1 91.5,-206.1"/>
</g>
<!-- C1 -->
<g id="node3" class="node">
<title>C1</title>
<polygon fill="none" stroke="black" points="115,-124 61,-124 61,-88 115,-88 115,-124"/>
<text text-anchor="middle" x="88" y="-102.3" font-family="Times,serif" font-size="14.00">6</text>
</g>
<!-- B1&#45;&gt;C1 -->
<g id="edge2" class="edge">
<title>B1&#45;&gt;C1</title>
<path fill="none" stroke="black" d="M88,-159.7C88,-151.98 88,-142.71 88,-134.11"/>
<polygon fill="black" stroke="black" points="91.5,-134.1 88,-124.1 84.5,-134.1 91.5,-134.1"/>
</g>
<!-- D1 -->
<g id="node4" class="node">
<title>D1</title>
<polygon fill="none" stroke="black" points="115,-52 61,-52 61,-16 115,-16 115,-52"/>
<text text-anchor="middle" x="88" y="-30.3" font-family="Times,serif" font-size="14.00">4</text>
</g>
<!-- C1&#45;&gt;D1 -->
<g id="edge3" class="edge">
<title>C1&#45;&gt;D1</title>
<path fill="none" stroke="black" d="M88,-87.7C88,-79.98 88,-70.71 88,-62.11"/>
<polygon fill="black" stroke="black" points="91.5,-62.1 88,-52.1 84.5,-62.1 91.5,-62.1"/>
</g>
<!-- A2 -->
<g id="node5" class="node">
<title>A2</title>
<polygon fill="none" stroke="black" points="280,-268 226,-268 226,-232 280,-232 280,-268"/>
<text text-anchor="middle" x="253" y="-246.3" font-family="Times,serif" font-size="14.00">1</text>
</g>
<!-- B2 -->
<g id="node6" class="node">
<title>B2</title>
<polygon fill="none" stroke="black" points="280,-196 226,-196 226,-160 280,-160 280,-196"/>
<text text-anchor="middle" x="253" y="-174.3" font-family="Times,serif" font-size="14.00">3</text>
</g>
<!-- A2&#45;&gt;B2 -->
<g id="edge4" class="edge">
<title>A2&#45;&gt;B2</title>
<path fill="none" stroke="black" d="M253,-231.7C253,-223.98 253,-214.71 253,-206.11"/>
<polygon fill="black" stroke="black" points="256.5,-206.1 253,-196.1 249.5,-206.1 256.5,-206.1"/>
</g>
<!-- C2 -->
<g id="node7" class="node">
<title>C2</title>
<polygon fill="none" stroke="black" points="280,-124 226,-124 226,-88 280,-88 280,-124"/>
<text text-anchor="middle" x="253" y="-102.3" font-family="Times,serif" font-size="14.00">5</text>
</g>
<!-- B2&#45;&gt;C2 -->
<g id="edge5" class="edge">
<title>B2&#45;&gt;C2</title>
<path fill="none" stroke="black" d="M253,-159.7C253,-151.98 253,-142.71 253,-134.11"/>
<polygon fill="black" stroke="black" points="256.5,-134.1 253,-124.1 249.5,-134.1 256.5,-134.1"/>
</g>
<!-- D2 -->
<g id="node8" class="node">
<title>D2</title>
<polygon fill="none" stroke="black" points="280,-52 226,-52 226,-16 280,-16 280,-52"/>
<text text-anchor="middle" x="253" y="-30.3" font-family="Times,serif" font-size="14.00">7</text>
</g>
<!-- C2&#45;&gt;D2 -->
<g id="edge6" class="edge">
<title>C2&#45;&gt;D2</title>
<path fill="none" stroke="black" d="M253,-87.7C253,-79.98 253,-70.71 253,-62.11"/>
<polygon fill="black" stroke="black" points="256.5,-62.1 253,-52.1 249.5,-62.1 256.5,-62.1"/>
</g>
</g>
</svg>
