<?xml version="1.0" encoding="UTF-8" standalone="no"?>
<!DOCTYPE svg PUBLIC "-//W3C//DTD SVG 1.1//EN"
 "http://www.w3.org/Graphics/SVG/1.1/DTD/svg11.dtd">
<!-- Generated by graphviz version 2.43.0 (0)
 -->
<!-- Title: binary_tree Pages: 1 -->
<svg width="278pt" height="260pt"
 viewBox="0.00 0.00 278.00 260.00" xmlns="http://www.w3.org/2000/svg" xmlns:xlink="http://www.w3.org/1999/xlink">
<g id="graph0" class="graph" transform="scale(1 1) rotate(0) translate(4 256)">
<title>binary_tree</title>
<polygon fill="white" stroke="transparent" points="-4,4 -4,-256 274,-256 274,4 -4,4"/>
<!-- 8 -->
<g id="node1" class="node">
<title>8</title>
<polygon fill="none" stroke="black" points="234,-252 180,-252 180,-216 234,-216 234,-252"/>
<text text-anchor="middle" x="207" y="-230.3" font-family="Times,serif" font-size="14.00">8</text>
</g>
<!-- 23 -->
<g id="node2" class="node">
<title>23</title>
<polygon fill="none" stroke="black" points="198,-180 144,-180 144,-144 198,-144 198,-180"/>
<text text-anchor="middle" x="171" y="-158.3" font-family="Times,serif" font-size="14.00">23</text>
</g>
<!-- 8&#45;&gt;23 -->
<g id="edge1" class="edge">
<title>8&#45;&gt;23</title>
<path fill="none" stroke="black" d="M198.1,-215.7C194,-207.73 189.05,-198.1 184.51,-189.26"/>
<polygon fill="black" stroke="black" points="187.48,-187.4 179.8,-180.1 181.26,-190.6 187.48,-187.4"/>
</g>
<!-- 15 -->
<g id="node3" class="node">
<title>15</title>
<polygon fill="none" stroke="black" points="270,-180 216,-180 216,-144 270,-144 270,-180"/>
<text text-anchor="middle" x="243" y="-158.3" font-family="Times,serif" font-size="14.00">15</text>
</g>
<!-- 8&#45;&gt;15 -->
<g id="edge2" class="edge">
<title>8&#45;&gt;15</title>
<path fill="none" stroke="black" d="M215.9,-215.7C220,-207.73 224.95,-198.1 229.49,-189.26"/>
<polygon fill="black" stroke="black" points="232.74,-190.6 234.2,-180.1 226.52,-187.4 232.74,-190.6"/>
</g>
<!-- 4 -->
<g id="node4" class="node">
<title>4</title>
<polygon fill="none" stroke="black" points="126,-108 72,-108 72,-72 126,-72 126,-108"/>
<text text-anchor="middle" x="99" y="-86.3" font-family="Times,serif" font-size="14.00">4</text>
</g>
<!-- 23&#45;&gt;4 -->
<g id="edge3" class="edge">
<title>23&#45;&gt;4</title>
<path fill="none" stroke="black" d="M153.2,-143.7C144.4,-135.14 133.62,-124.66 124,-115.3"/>
<polygon fill="black" stroke="black" points="126.2,-112.57 116.59,-108.1 121.32,-117.58 126.2,-112.57"/>
</g>
<!-- 42 -->
<g id="node5" class="node">
<title>42</title>
<polygon fill="none" stroke="black" points="198,-108 144,-108 144,-72 198,-72 198,-108"/>
<text text-anchor="middle" x="171" y="-86.3" font-family="Times,serif" font-size="14.00">42</text>
</g>
<!-- 23&#45;&gt;42 -->
<g id="edge4" class="edge">
<title>23&#45;&gt;42</title>
<path fill="none" stroke="black" d="M171,-143.7C171,-135.98 171,-126.71 171,-118.11"/>
<polygon fill="black" stroke="black" points="174.5,-118.1 171,-108.1 167.5,-118.1 174.5,-118.1"/>
</g>
<!-- 16 -->
<g id="node6" class="node">
<title>16</title>
<polygon fill="none" stroke="black" points="270,-108 216,-108 216,-72 270,-72 270,-108"/>
<text text-anchor="middle" x="243" y="-86.3" font-family="Times,serif" font-size="14.00">16</text>
</g>
<!-- 15&#45;&gt;16 -->
<g id="edge5" class="edge">
<title>15&#45;&gt;16</title>
<path fill="none" stroke="black" d="M243,-143.7C243,-135.98 243,-126.71 243,-118.11"/>
<polygon fill="black" stroke="black" points="246.5,-118.1 243,-108.1 239.5,-118.1 246.5,-118.1"/>
</g>
<!-- 7 -->
<g id="node7" class="node">
<title>7</title>
<polygon fill="none" stroke="black" points="54,-36 0,-36 0,0 54,0 54,-36"/>
<text text-anchor="middle" x="27" y="-14.3" font-family="Times,serif" font-size="14.00">7</text>
</g>
<!-- 4&#45;&gt;7 -->
<g id="edge6" class="edge">
<title>4&#45;&gt;7</title>
<path fill="none" stroke="black" d="M81.2,-71.7C72.4,-63.14 61.62,-52.66 52,-43.3"/>
<polygon fill="black" stroke="black" points="54.2,-40.57 44.59,-36.1 49.32,-45.58 54.2,-40.57"/>
</g>
<!-- 31 -->
<g id="node8" class="node">
<title>31</title>
<polygon fill="none" stroke="black" points="126,-36 72,-36 72,0 126,0 126,-36"/>
<text text-anchor="middle" x="99" y="-14.3" font-family="Times,serif" font-size="14.00">31</text>
</g>
<!-- 4&#45;&gt;31 -->
<g id="edge7" class="edge">
<title>4&#45;&gt;31</title>
<path fill="none" stroke="black" d="M99,-71.7C99,-63.98 99,-54.71 99,-46.11"/>
<polygon fill="black" stroke="black" points="102.5,-46.1 99,-36.1 95.5,-46.1 102.5,-46.1"/>
</g>
<!-- 99 -->
<g id="node9" class="node">
<title>99</title>
<polygon fill="none" stroke="black" points="198,-36 144,-36 144,0 198,0 198,-36"/>
<text text-anchor="middle" x="171" y="-14.3" font-family="Times,serif" font-size="14.00">99</text>
</g>
<!-- 42&#45;&gt;99 -->
<g id="edge8" class="edge">
<title>42&#45;&gt;99</title>
<path fill="none" stroke="black" d="M171,-71.7C171,-63.98 171,-54.71 171,-46.11"/>
<polygon fill="black" stroke="black" points="174.5,-46.1 171,-36.1 167.5,-46.1 174.5,-46.1"/>
</g>
<!-- 11 -->
<g id="node10" class="node">
<title>11</title>
<polygon fill="none" stroke="black" points="270,-36 216,-36 216,0 270,0 270,-36"/>
<text text-anchor="middle" x="243" y="-14.3" font-family="Times,serif" font-size="14.00">11</text>
</g>
<!-- 16&#45;&gt;11 -->
<g id="edge9" class="edge">
<title>16&#45;&gt;11</title>
<path fill="none" stroke="black" d="M243,-71.7C243,-63.98 243,-54.71 243,-46.11"/>
<polygon fill="black" stroke="black" points="246.5,-46.1 243,-36.1 239.5,-46.1 246.5,-46.1"/>
</g>
</g>
</svg>
