<?xml version="1.0" encoding="UTF-8" standalone="no"?>
<!DOCTYPE svg PUBLIC "-//W3C//DTD SVG 1.1//EN"
 "http://www.w3.org/Graphics/SVG/1.1/DTD/svg11.dtd">
<!-- Generated by graphviz version 2.43.0 (0)
 -->
<!-- Title: perfect_binary_tree Pages: 1 -->
<svg width="566pt" height="260pt"
 viewBox="0.00 0.00 566.00 260.00" xmlns="http://www.w3.org/2000/svg" xmlns:xlink="http://www.w3.org/1999/xlink">
<g id="graph0" class="graph" transform="scale(1 1) rotate(0) translate(4 256)">
<title>perfect_binary_tree</title>
<polygon fill="white" stroke="transparent" points="-4,4 -4,-256 562,-256 562,4 -4,4"/>
<!-- 20 -->
<g id="node1" class="node">
<title>20</title>
<polygon fill="none" stroke="black" points="306,-252 252,-252 252,-216 306,-216 306,-252"/>
<text text-anchor="middle" x="279" y="-230.3" font-family="Times,serif" font-size="14.00">20</text>
</g>
<!-- 10 -->
<g id="node2" class="node">
<title>10</title>
<polygon fill="none" stroke="black" points="234,-180 180,-180 180,-144 234,-144 234,-180"/>
<text text-anchor="middle" x="207" y="-158.3" font-family="Times,serif" font-size="14.00">10</text>
</g>
<!-- 20&#45;&gt;10 -->
<g id="edge1" class="edge">
<title>20&#45;&gt;10</title>
<path fill="none" stroke="black" d="M261.2,-215.7C252.4,-207.14 241.62,-196.66 232,-187.3"/>
<polygon fill="black" stroke="black" points="234.2,-184.57 224.59,-180.1 229.32,-189.58 234.2,-184.57"/>
</g>
<!-- 30 -->
<g id="node3" class="node">
<title>30</title>
<polygon fill="none" stroke="black" points="378,-180 324,-180 324,-144 378,-144 378,-180"/>
<text text-anchor="middle" x="351" y="-158.3" font-family="Times,serif" font-size="14.00">30</text>
</g>
<!-- 20&#45;&gt;30 -->
<g id="edge2" class="edge">
<title>20&#45;&gt;30</title>
<path fill="none" stroke="black" d="M296.8,-215.7C305.6,-207.14 316.38,-196.66 326,-187.3"/>
<polygon fill="black" stroke="black" points="328.68,-189.58 333.41,-180.1 323.8,-184.57 328.68,-189.58"/>
</g>
<!-- 5 -->
<g id="node4" class="node">
<title>5</title>
<polygon fill="none" stroke="black" points="126,-108 72,-108 72,-72 126,-72 126,-108"/>
<text text-anchor="middle" x="99" y="-86.3" font-family="Times,serif" font-size="14.00">5</text>
</g>
<!-- 10&#45;&gt;5 -->
<g id="edge3" class="edge">
<title>10&#45;&gt;5</title>
<path fill="none" stroke="black" d="M180.58,-143.88C166.59,-134.81 149.22,-123.55 134.11,-113.76"/>
<polygon fill="black" stroke="black" points="135.82,-110.69 125.52,-108.19 132.01,-116.57 135.82,-110.69"/>
</g>
<!-- 15 -->
<g id="node5" class="node">
<title>15</title>
<polygon fill="none" stroke="black" points="234,-108 180,-108 180,-72 234,-72 234,-108"/>
<text text-anchor="middle" x="207" y="-86.3" font-family="Times,serif" font-size="14.00">15</text>
</g>
<!-- 10&#45;&gt;15 -->
<g id="edge4" class="edge">
<title>10&#45;&gt;15</title>
<path fill="none" stroke="black" d="M207,-143.7C207,-135.98 207,-126.71 207,-118.11"/>
<polygon fill="black" stroke="black" points="210.5,-118.1 207,-108.1 203.5,-118.1 210.5,-118.1"/>
</g>
<!-- 25 -->
<g id="node6" class="node">
<title>25</title>
<polygon fill="none" stroke="black" points="378,-108 324,-108 324,-72 378,-72 378,-108"/>
<text text-anchor="middle" x="351" y="-86.3" font-family="Times,serif" font-size="14.00">25</text>
</g>
<!-- 30&#45;&gt;25 -->
<g id="edge5" class="edge">
<title>30&#45;&gt;25</title>
<path fill="none" stroke="black" d="M351,-143.7C351,-135.98 351,-126.71 351,-118.11"/>
<polygon fill="black" stroke="black" points="354.5,-118.1 351,-108.1 347.5,-118.1 354.5,-118.1"/>
</g>
<!-- 35 -->
<g id="node7" class="node">
<title>35</title>
<polygon fill="none" stroke="black" points="486,-108 432,-108 432,-72 486,-72 486,-108"/>
<text text-anchor="middle" x="459" y="-86.3" font-family="Times,serif" font-size="14.00">35</text>
</g>
<!-- 30&#45;&gt;35 -->
<g id="edge6" class="edge">
<title>30&#45;&gt;35</title>
<path fill="none" stroke="black" d="M377.42,-143.88C391.41,-134.81 408.78,-123.55 423.89,-113.76"/>
<polygon fill="black" stroke="black" points="425.99,-116.57 432.48,-108.19 422.18,-110.69 425.99,-116.57"/>
</g>
<!-- 3 -->
<g id="node8" class="node">
<title>3</title>
<polygon fill="none" stroke="black" points="54,-36 0,-36 0,0 54,0 54,-36"/>
<text text-anchor="middle" x="27" y="-14.3" font-family="Times,serif" font-size="14.00">3</text>
</g>
<!-- 5&#45;&gt;3 -->
<g id="edge7" class="edge">
<title>5&#45;&gt;3</title>
<path fill="none" stroke="black" d="M81.2,-71.7C72.4,-63.14 61.62,-52.66 52,-43.3"/>
<polygon fill="black" stroke="black" points="54.2,-40.57 44.59,-36.1 49.32,-45.58 54.2,-40.57"/>
</g>
<!-- 7 -->
<g id="node9" class="node">
<title>7</title>
<polygon fill="none" stroke="black" points="126,-36 72,-36 72,0 126,0 126,-36"/>
<text text-anchor="middle" x="99" y="-14.3" font-family="Times,serif" font-size="14.00">7</text>
</g>
<!-- 5&#45;&gt;7 -->
<g id="edge8" class="edge">
<title>5&#45;&gt;7</title>
<path fill="none" stroke="black" d="M99,-71.7C99,-63.98 99,-54.71 99,-46.11"/>
<polygon fill="black" stroke="black" points="102.5,-46.1 99,-36.1 95.5,-46.1 102.5,-46.1"/>
</g>
<!-- 12 -->
<g id="node10" class="node">
<title>12</title>
<polygon fill="none" stroke="black" points="198,-36 144,-36 144,0 198,0 198,-36"/>
<text text-anchor="middle" x="171" y="-14.3" font-family="Times,serif" font-size="14.00">12</text>
</g>
<!-- 15&#45;&gt;12 -->
<g id="edge9" class="edge">
<title>15&#45;&gt;12</title>
<path fill="none" stroke="black" d="M198.1,-71.7C194,-63.73 189.05,-54.1 184.51,-45.26"/>
<polygon fill="black" stroke="black" points="187.48,-43.4 179.8,-36.1 181.26,-46.6 187.48,-43.4"/>
</g>
<!-- 17 -->
<g id="node11" class="node">
<title>17</title>
<polygon fill="none" stroke="black" points="270,-36 216,-36 216,0 270,0 270,-36"/>
<text text-anchor="middle" x="243" y="-14.3" font-family="Times,serif" font-size="14.00">17</text>
</g>
<!-- 15&#45;&gt;17 -->
<g id="edge10" class="edge">
<title>15&#45;&gt;17</title>
<path fill="none" stroke="black" d="M215.9,-71.7C220,-63.73 224.95,-54.1 229.49,-45.26"/>
<polygon fill="black" stroke="black" points="232.74,-46.6 234.2,-36.1 226.52,-43.4 232.74,-46.6"/>
</g>
<!-- 22 -->
<g id="node12" class="node">
<title>22</title>
<polygon fill="none" stroke="black" points="342,-36 288,-36 288,0 342,0 342,-36"/>
<text text-anchor="middle" x="315" y="-14.3" font-family="Times,serif" font-size="14.00">22</text>
</g>
<!-- 25&#45;&gt;22 -->
<g id="edge11" class="edge">
<title>25&#45;&gt;22</title>
<path fill="none" stroke="black" d="M342.1,-71.7C338,-63.73 333.05,-54.1 328.51,-45.26"/>
<polygon fill="black" stroke="black" points="331.48,-43.4 323.8,-36.1 325.26,-46.6 331.48,-43.4"/>
</g>
<!-- 27 -->
<g id="node13" class="node">
<title>27</title>
<polygon fill="none" stroke="black" points="414,-36 360,-36 360,0 414,0 414,-36"/>
<text text-anchor="middle" x="387" y="-14.3" font-family="Times,serif" font-size="14.00">27</text>
</g>
<!-- 25&#45;&gt;27 -->
<g id="edge12" class="edge">
<title>25&#45;&gt;27</title>
<path fill="none" stroke="black" d="M359.9,-71.7C364,-63.73 368.95,-54.1 373.49,-45.26"/>
<polygon fill="black" stroke="black" points="376.74,-46.6 378.2,-36.1 370.52,-43.4 376.74,-46.6"/>
</g>
<!-- 32 -->
<g id="node14" class="node">
<title>32</title>
<polygon fill="none" stroke="black" points="486,-36 432,-36 432,0 486,0 486,-36"/>
<text text-anchor="middle" x="459" y="-14.3" font-family="Times,serif" font-size="14.00">32</text>
</g>
<!-- 35&#45;&gt;32 -->
<g id="edge13" class="edge">
<title>35&#45;&gt;32</title>
<path fill="none" stroke="black" d="M459,-71.7C459,-63.98 459,-54.71 459,-46.11"/>
<polygon fill="black" stroke="black" points="462.5,-46.1 459,-36.1 455.5,-46.1 462.5,-46.1"/>
</g>
<!-- 37 -->
<g id="node15" class="node">
<title>37</title>
<polygon fill="none" stroke="black" points="558,-36 504,-36 504,0 558,0 558,-36"/>
<text text-anchor="middle" x="531" y="-14.3" font-family="Times,serif" font-size="14.00">37</text>
</g>
<!-- 35&#45;&gt;37 -->
<g id="edge14" class="edge">
<title>35&#45;&gt;37</title>
<path fill="none" stroke="black" d="M476.8,-71.7C485.6,-63.14 496.38,-52.66 506,-43.3"/>
<polygon fill="black" stroke="black" points="508.68,-45.58 513.41,-36.1 503.8,-40.57 508.68,-45.58"/>
</g>
</g>
</svg>
