<?xml version="1.0" encoding="UTF-8" standalone="no"?>
<!DOCTYPE svg PUBLIC "-//W3C//DTD SVG 1.1//EN"
 "http://www.w3.org/Graphics/SVG/1.1/DTD/svg11.dtd">
<!-- Generated by graphviz version 2.43.0 (0)
 -->
<!-- Title: red_black_tree Pages: 1 -->
<svg width="374pt" height="299pt"
 viewBox="0.00 0.00 374.00 299.00" xmlns="http://www.w3.org/2000/svg" xmlns:xlink="http://www.w3.org/1999/xlink">
<g id="graph0" class="graph" transform="scale(1 1) rotate(0) translate(4 295)">
<title>red_black_tree</title>
<polygon fill="white" stroke="transparent" points="-4,4 -4,-295 370,-295 370,4 -4,4"/>
<g id="clust1" class="cluster">
<title>cluster_legend</title>
<polygon fill="none" stroke="black" points="208,-208 208,-283 358,-283 358,-208 208,-208"/>
<text text-anchor="middle" x="283" y="-267.8" font-family="Times,serif" font-size="14.00">Leyenda</text>
</g>
<!-- 15 -->
<g id="node1" class="node">
<title>15</title>
<polygon fill="lightgray" stroke="black" points="198,-252 144,-252 144,-216 198,-216 198,-252"/>
<text text-anchor="middle" x="171" y="-230.3" font-family="Times,serif" font-size="14.00">15</text>
</g>
<!-- 8 -->
<g id="node2" class="node">
<title>8</title>
<polygon fill="pink" stroke="black" points="162,-180 108,-180 108,-144 162,-144 162,-180"/>
<text text-anchor="middle" x="135" y="-158.3" font-family="Times,serif" font-size="14.00">8</text>
</g>
<!-- 15&#45;&gt;8 -->
<g id="edge1" class="edge">
<title>15&#45;&gt;8</title>
<path fill="none" stroke="black" d="M162.1,-215.7C158,-207.73 153.05,-198.1 148.51,-189.26"/>
<polygon fill="black" stroke="black" points="151.48,-187.4 143.8,-180.1 145.26,-190.6 151.48,-187.4"/>
</g>
<!-- 25 -->
<g id="node3" class="node">
<title>25</title>
<polygon fill="pink" stroke="black" points="234,-180 180,-180 180,-144 234,-144 234,-180"/>
<text text-anchor="middle" x="207" y="-158.3" font-family="Times,serif" font-size="14.00">25</text>
</g>
<!-- 15&#45;&gt;25 -->
<g id="edge2" class="edge">
<title>15&#45;&gt;25</title>
<path fill="none" stroke="black" d="M179.9,-215.7C184,-207.73 188.95,-198.1 193.49,-189.26"/>
<polygon fill="black" stroke="black" points="196.74,-190.6 198.2,-180.1 190.52,-187.4 196.74,-190.6"/>
</g>
<!-- 4 -->
<g id="node4" class="node">
<title>4</title>
<polygon fill="lightgray" stroke="black" points="90,-108 36,-108 36,-72 90,-72 90,-108"/>
<text text-anchor="middle" x="63" y="-86.3" font-family="Times,serif" font-size="14.00">4</text>
</g>
<!-- 8&#45;&gt;4 -->
<g id="edge3" class="edge">
<title>8&#45;&gt;4</title>
<path fill="none" stroke="black" d="M117.2,-143.7C108.4,-135.14 97.62,-124.66 88,-115.3"/>
<polygon fill="black" stroke="black" points="90.2,-112.57 80.59,-108.1 85.32,-117.58 90.2,-112.57"/>
</g>
<!-- 12 -->
<g id="node5" class="node">
<title>12</title>
<polygon fill="lightgray" stroke="black" points="162,-108 108,-108 108,-72 162,-72 162,-108"/>
<text text-anchor="middle" x="135" y="-86.3" font-family="Times,serif" font-size="14.00">12</text>
</g>
<!-- 8&#45;&gt;12 -->
<g id="edge4" class="edge">
<title>8&#45;&gt;12</title>
<path fill="none" stroke="black" d="M135,-143.7C135,-135.98 135,-126.71 135,-118.11"/>
<polygon fill="black" stroke="black" points="138.5,-118.1 135,-108.1 131.5,-118.1 138.5,-118.1"/>
</g>
<!-- 20 -->
<g id="node6" class="node">
<title>20</title>
<polygon fill="lightgray" stroke="black" points="234,-108 180,-108 180,-72 234,-72 234,-108"/>
<text text-anchor="middle" x="207" y="-86.3" font-family="Times,serif" font-size="14.00">20</text>
</g>
<!-- 25&#45;&gt;20 -->
<g id="edge5" class="edge">
<title>25&#45;&gt;20</title>
<path fill="none" stroke="black" d="M207,-143.7C207,-135.98 207,-126.71 207,-118.11"/>
<polygon fill="black" stroke="black" points="210.5,-118.1 207,-108.1 203.5,-118.1 210.5,-118.1"/>
</g>
<!-- 30 -->
<g id="node7" class="node">
<title>30</title>
<polygon fill="lightgray" stroke="black" points="306,-108 252,-108 252,-72 306,-72 306,-108"/>
<text text-anchor="middle" x="279" y="-86.3" font-family="Times,serif" font-size="14.00">30</text>
</g>
<!-- 25&#45;&gt;30 -->
<g id="edge6" class="edge">
<title>25&#45;&gt;30</title>
<path fill="none" stroke="black" d="M224.8,-143.7C233.6,-135.14 244.38,-124.66 254,-115.3"/>
<polygon fill="black" stroke="black" points="256.68,-117.58 261.41,-108.1 251.8,-112.57 256.68,-117.58"/>
</g>
<!-- 2 -->
<g id="node8" class="node">
<title>2</title>
<polygon fill="pink" stroke="black" points="54,-36 0,-36 0,0 54,0 54,-36"/>
<text text-anchor="middle" x="27" y="-14.3" font-family="Times,serif" font-size="14.00">2</text>
</g>
<!-- 4&#45;&gt;2 -->
<g id="edge7" class="edge">
<title>4&#45;&gt;2</title>
<path fill="none" stroke="black" d="M54.1,-71.7C50,-63.73 45.05,-54.1 40.51,-45.26"/>
<polygon fill="black" stroke="black" points="43.48,-43.4 35.8,-36.1 37.26,-46.6 43.48,-43.4"/>
</g>
<!-- 6 -->
<g id="node9" class="node">
<title>6</title>
<polygon fill="pink" stroke="black" points="126,-36 72,-36 72,0 126,0 126,-36"/>
<text text-anchor="middle" x="99" y="-14.3" font-family="Times,serif" font-size="14.00">6</text>
</g>
<!-- 4&#45;&gt;6 -->
<g id="edge8" class="edge">
<title>4&#45;&gt;6</title>
<path fill="none" stroke="black" d="M71.9,-71.7C76,-63.73 80.95,-54.1 85.49,-45.26"/>
<polygon fill="black" stroke="black" points="88.74,-46.6 90.2,-36.1 82.52,-43.4 88.74,-46.6"/>
</g>
<!-- legend_black -->
<g id="node10" class="node">
<title>legend_black</title>
<polygon fill="lightgray" stroke="black" points="349.5,-252 288.5,-252 288.5,-216 349.5,-216 349.5,-252"/>
<text text-anchor="middle" x="319" y="-230.3" font-family="Times,serif" font-size="14.00">Negro</text>
</g>
<!-- legend_red -->
<g id="node11" class="node">
<title>legend_red</title>
<polygon fill="pink" stroke="black" points="270,-252 216,-252 216,-216 270,-216 270,-252"/>
<text text-anchor="middle" x="243" y="-230.3" font-family="Times,serif" font-size="14.00">Rojo</text>
</g>
</g>
</svg>
