<?xml version="1.0" encoding="UTF-8" standalone="no"?>
<!DOCTYPE svg PUBLIC "-//W3C//DTD SVG 1.1//EN"
 "http://www.w3.org/Graphics/SVG/1.1/DTD/svg11.dtd">
<!-- Generated by graphviz version 2.43.0 (0)
 -->
<!-- Title: splay_sequence Pages: 1 -->
<svg width="734pt" height="387pt"
 viewBox="0.00 0.00 734.00 387.00" xmlns="http://www.w3.org/2000/svg" xmlns:xlink="http://www.w3.org/1999/xlink">
<g id="graph0" class="graph" transform="scale(1 1) rotate(0) translate(4 383)">
<title>splay_sequence</title>
<polygon fill="white" stroke="transparent" points="-4,4 -4,-383 730,-383 730,4 -4,4"/>
<g id="clust1" class="cluster">
<title>cluster_0</title>
<polygon fill="none" stroke="black" points="8,-152 8,-371 294,-371 294,-152 8,-152"/>
<text text-anchor="middle" x="151" y="-355.8" font-family="Times,serif" font-size="14.00">Estado Inicial</text>
</g>
<g id="clust2" class="cluster">
<title>cluster_1</title>
<polygon fill="none" stroke="black" points="302,-80 302,-371 516,-371 516,-80 302,-80"/>
<text text-anchor="middle" x="409" y="-355.8" font-family="Times,serif" font-size="14.00">Después de acceder a 5</text>
</g>
<g id="clust3" class="cluster">
<title>cluster_2</title>
<polygon fill="none" stroke="black" points="524,-8 524,-371 718,-371 718,-8 524,-8"/>
<text text-anchor="middle" x="621" y="-355.8" font-family="Times,serif" font-size="14.00">Después de acceder a 35</text>
</g>
<!-- A1 -->
<g id="node1" class="node">
<title>A1</title>
<polygon fill="none" stroke="black" points="178,-340 124,-340 124,-304 178,-304 178,-340"/>
<text text-anchor="middle" x="151" y="-318.3" font-family="Times,serif" font-size="14.00">20</text>
</g>
<!-- B1 -->
<g id="node2" class="node">
<title>B1</title>
<polygon fill="none" stroke="black" points="142,-268 88,-268 88,-232 142,-232 142,-268"/>
<text text-anchor="middle" x="115" y="-246.3" font-family="Times,serif" font-size="14.00">10</text>
</g>
<!-- A1&#45;&gt;B1 -->
<g id="edge1" class="edge">
<title>A1&#45;&gt;B1</title>
<path fill="none" stroke="black" d="M142.1,-303.7C138,-295.73 133.05,-286.1 128.51,-277.26"/>
<polygon fill="black" stroke="black" points="131.48,-275.4 123.8,-268.1 125.26,-278.6 131.48,-275.4"/>
</g>
<!-- C1 -->
<g id="node3" class="node">
<title>C1</title>
<polygon fill="none" stroke="black" points="214,-268 160,-268 160,-232 214,-232 214,-268"/>
<text text-anchor="middle" x="187" y="-246.3" font-family="Times,serif" font-size="14.00">30</text>
</g>
<!-- A1&#45;&gt;C1 -->
<g id="edge2" class="edge">
<title>A1&#45;&gt;C1</title>
<path fill="none" stroke="black" d="M159.9,-303.7C164,-295.73 168.95,-286.1 173.49,-277.26"/>
<polygon fill="black" stroke="black" points="176.74,-278.6 178.2,-268.1 170.52,-275.4 176.74,-278.6"/>
</g>
<!-- D1 -->
<g id="node4" class="node">
<title>D1</title>
<polygon fill="none" stroke="black" points="70,-196 16,-196 16,-160 70,-160 70,-196"/>
<text text-anchor="middle" x="43" y="-174.3" font-family="Times,serif" font-size="14.00">5</text>
</g>
<!-- B1&#45;&gt;D1 -->
<g id="edge3" class="edge">
<title>B1&#45;&gt;D1</title>
<path fill="none" stroke="black" d="M97.2,-231.7C88.4,-223.14 77.62,-212.66 68,-203.3"/>
<polygon fill="black" stroke="black" points="70.2,-200.57 60.59,-196.1 65.32,-205.58 70.2,-200.57"/>
</g>
<!-- E1 -->
<g id="node5" class="node">
<title>E1</title>
<polygon fill="none" stroke="black" points="142,-196 88,-196 88,-160 142,-160 142,-196"/>
<text text-anchor="middle" x="115" y="-174.3" font-family="Times,serif" font-size="14.00">15</text>
</g>
<!-- B1&#45;&gt;E1 -->
<g id="edge4" class="edge">
<title>B1&#45;&gt;E1</title>
<path fill="none" stroke="black" d="M115,-231.7C115,-223.98 115,-214.71 115,-206.11"/>
<polygon fill="black" stroke="black" points="118.5,-206.1 115,-196.1 111.5,-206.1 118.5,-206.1"/>
</g>
<!-- F1 -->
<g id="node6" class="node">
<title>F1</title>
<polygon fill="none" stroke="black" points="214,-196 160,-196 160,-160 214,-160 214,-196"/>
<text text-anchor="middle" x="187" y="-174.3" font-family="Times,serif" font-size="14.00">25</text>
</g>
<!-- C1&#45;&gt;F1 -->
<g id="edge5" class="edge">
<title>C1&#45;&gt;F1</title>
<path fill="none" stroke="black" d="M187,-231.7C187,-223.98 187,-214.71 187,-206.11"/>
<polygon fill="black" stroke="black" points="190.5,-206.1 187,-196.1 183.5,-206.1 190.5,-206.1"/>
</g>
<!-- G1 -->
<g id="node7" class="node">
<title>G1</title>
<polygon fill="none" stroke="black" points="286,-196 232,-196 232,-160 286,-160 286,-196"/>
<text text-anchor="middle" x="259" y="-174.3" font-family="Times,serif" font-size="14.00">35</text>
</g>
<!-- C1&#45;&gt;G1 -->
<g id="edge6" class="edge">
<title>C1&#45;&gt;G1</title>
<path fill="none" stroke="black" d="M204.8,-231.7C213.6,-223.14 224.38,-212.66 234,-203.3"/>
<polygon fill="black" stroke="black" points="236.68,-205.58 241.41,-196.1 231.8,-200.57 236.68,-205.58"/>
</g>
<!-- A2 -->
<g id="node8" class="node">
<title>A2</title>
<polygon fill="none" stroke="black" points="364,-268 310,-268 310,-232 364,-232 364,-268"/>
<text text-anchor="middle" x="337" y="-246.3" font-family="Times,serif" font-size="14.00">5</text>
</g>
<!-- C2 -->
<g id="node10" class="node">
<title>C2</title>
<polygon fill="none" stroke="black" points="364,-196 310,-196 310,-160 364,-160 364,-196"/>
<text text-anchor="middle" x="337" y="-174.3" font-family="Times,serif" font-size="14.00">10</text>
</g>
<!-- A2&#45;&gt;C2 -->
<g id="edge7" class="edge">
<title>A2&#45;&gt;C2</title>
<path fill="none" stroke="black" d="M337,-231.7C337,-223.98 337,-214.71 337,-206.11"/>
<polygon fill="black" stroke="black" points="340.5,-206.1 337,-196.1 333.5,-206.1 340.5,-206.1"/>
</g>
<!-- B2 -->
<g id="node9" class="node">
<title>B2</title>
<polygon fill="none" stroke="black" points="400,-340 346,-340 346,-304 400,-304 400,-340"/>
<text text-anchor="middle" x="373" y="-318.3" font-family="Times,serif" font-size="14.00">20</text>
</g>
<!-- B2&#45;&gt;A2 -->
<g id="edge9" class="edge">
<title>B2&#45;&gt;A2</title>
<path fill="none" stroke="black" d="M364.1,-303.7C360,-295.73 355.05,-286.1 350.51,-277.26"/>
<polygon fill="black" stroke="black" points="353.48,-275.4 345.8,-268.1 347.26,-278.6 353.48,-275.4"/>
</g>
<!-- D2 -->
<g id="node11" class="node">
<title>D2</title>
<polygon fill="none" stroke="black" points="436,-268 382,-268 382,-232 436,-232 436,-268"/>
<text text-anchor="middle" x="409" y="-246.3" font-family="Times,serif" font-size="14.00">30</text>
</g>
<!-- B2&#45;&gt;D2 -->
<g id="edge10" class="edge">
<title>B2&#45;&gt;D2</title>
<path fill="none" stroke="black" d="M381.9,-303.7C386,-295.73 390.95,-286.1 395.49,-277.26"/>
<polygon fill="black" stroke="black" points="398.74,-278.6 400.2,-268.1 392.52,-275.4 398.74,-278.6"/>
</g>
<!-- E2 -->
<g id="node12" class="node">
<title>E2</title>
<polygon fill="none" stroke="black" points="364,-124 310,-124 310,-88 364,-88 364,-124"/>
<text text-anchor="middle" x="337" y="-102.3" font-family="Times,serif" font-size="14.00">15</text>
</g>
<!-- C2&#45;&gt;E2 -->
<g id="edge8" class="edge">
<title>C2&#45;&gt;E2</title>
<path fill="none" stroke="black" d="M337,-159.7C337,-151.98 337,-142.71 337,-134.11"/>
<polygon fill="black" stroke="black" points="340.5,-134.1 337,-124.1 333.5,-134.1 340.5,-134.1"/>
</g>
<!-- F2 -->
<g id="node13" class="node">
<title>F2</title>
<polygon fill="none" stroke="black" points="436,-196 382,-196 382,-160 436,-160 436,-196"/>
<text text-anchor="middle" x="409" y="-174.3" font-family="Times,serif" font-size="14.00">25</text>
</g>
<!-- D2&#45;&gt;F2 -->
<g id="edge11" class="edge">
<title>D2&#45;&gt;F2</title>
<path fill="none" stroke="black" d="M409,-231.7C409,-223.98 409,-214.71 409,-206.11"/>
<polygon fill="black" stroke="black" points="412.5,-206.1 409,-196.1 405.5,-206.1 412.5,-206.1"/>
</g>
<!-- G2 -->
<g id="node14" class="node">
<title>G2</title>
<polygon fill="none" stroke="black" points="508,-196 454,-196 454,-160 508,-160 508,-196"/>
<text text-anchor="middle" x="481" y="-174.3" font-family="Times,serif" font-size="14.00">35</text>
</g>
<!-- D2&#45;&gt;G2 -->
<g id="edge12" class="edge">
<title>D2&#45;&gt;G2</title>
<path fill="none" stroke="black" d="M426.8,-231.7C435.6,-223.14 446.38,-212.66 456,-203.3"/>
<polygon fill="black" stroke="black" points="458.68,-205.58 463.41,-196.1 453.8,-200.57 458.68,-205.58"/>
</g>
<!-- A3 -->
<g id="node15" class="node">
<title>A3</title>
<polygon fill="none" stroke="black" points="684,-340 630,-340 630,-304 684,-304 684,-340"/>
<text text-anchor="middle" x="657" y="-318.3" font-family="Times,serif" font-size="14.00">35</text>
</g>
<!-- C3 -->
<g id="node17" class="node">
<title>C3</title>
<polygon fill="none" stroke="black" points="684,-268 630,-268 630,-232 684,-232 684,-268"/>
<text text-anchor="middle" x="657" y="-246.3" font-family="Times,serif" font-size="14.00">30</text>
</g>
<!-- A3&#45;&gt;C3 -->
<g id="edge13" class="edge">
<title>A3&#45;&gt;C3</title>
<path fill="none" stroke="black" d="M657,-303.7C657,-295.98 657,-286.71 657,-278.11"/>
<polygon fill="black" stroke="black" points="660.5,-278.1 657,-268.1 653.5,-278.1 660.5,-278.1"/>
</g>
<!-- B3 -->
<g id="node16" class="node">
<title>B3</title>
<polygon fill="none" stroke="black" points="612,-196 558,-196 558,-160 612,-160 612,-196"/>
<text text-anchor="middle" x="585" y="-174.3" font-family="Times,serif" font-size="14.00">5</text>
</g>
<!-- E3 -->
<g id="node19" class="node">
<title>E3</title>
<polygon fill="none" stroke="black" points="612,-124 558,-124 558,-88 612,-88 612,-124"/>
<text text-anchor="middle" x="585" y="-102.3" font-family="Times,serif" font-size="14.00">10</text>
</g>
<!-- B3&#45;&gt;E3 -->
<g id="edge18" class="edge">
<title>B3&#45;&gt;E3</title>
<path fill="none" stroke="black" d="M585,-159.7C585,-151.98 585,-142.71 585,-134.11"/>
<polygon fill="black" stroke="black" points="588.5,-134.1 585,-124.1 581.5,-134.1 588.5,-134.1"/>
</g>
<!-- D3 -->
<g id="node18" class="node">
<title>D3</title>
<polygon fill="none" stroke="black" points="684,-196 630,-196 630,-160 684,-160 684,-196"/>
<text text-anchor="middle" x="657" y="-174.3" font-family="Times,serif" font-size="14.00">20</text>
</g>
<!-- C3&#45;&gt;D3 -->
<g id="edge14" class="edge">
<title>C3&#45;&gt;D3</title>
<path fill="none" stroke="black" d="M657,-231.7C657,-223.98 657,-214.71 657,-206.11"/>
<polygon fill="black" stroke="black" points="660.5,-206.1 657,-196.1 653.5,-206.1 660.5,-206.1"/>
</g>
<!-- D3&#45;&gt;E3 -->
<g id="edge15" class="edge">
<title>D3&#45;&gt;E3</title>
<path fill="none" stroke="black" d="M639.2,-159.7C630.4,-151.14 619.62,-140.66 610,-131.3"/>
<polygon fill="black" stroke="black" points="612.2,-128.57 602.59,-124.1 607.32,-133.58 612.2,-128.57"/>
</g>
<!-- F3 -->
<g id="node20" class="node">
<title>F3</title>
<polygon fill="none" stroke="black" points="684,-124 630,-124 630,-88 684,-88 684,-124"/>
<text text-anchor="middle" x="657" y="-102.3" font-family="Times,serif" font-size="14.00">25</text>
</g>
<!-- D3&#45;&gt;F3 -->
<g id="edge17" class="edge">
<title>D3&#45;&gt;F3</title>
<path fill="none" stroke="black" d="M657,-159.7C657,-151.98 657,-142.71 657,-134.11"/>
<polygon fill="black" stroke="black" points="660.5,-134.1 657,-124.1 653.5,-134.1 660.5,-134.1"/>
</g>
<!-- G3 -->
<g id="node21" class="node">
<title>G3</title>
<polygon fill="none" stroke="black" points="612,-52 558,-52 558,-16 612,-16 612,-52"/>
<text text-anchor="middle" x="585" y="-30.3" font-family="Times,serif" font-size="14.00">15</text>
</g>
<!-- E3&#45;&gt;G3 -->
<g id="edge16" class="edge">
<title>E3&#45;&gt;G3</title>
<path fill="none" stroke="black" d="M585,-87.7C585,-79.98 585,-70.71 585,-62.11"/>
<polygon fill="black" stroke="black" points="588.5,-62.1 585,-52.1 581.5,-62.1 588.5,-62.1"/>
</g>
</g>
</svg>
