<?xml version="1.0" encoding="us-ascii" standalone="no"?><svg xmlns="http://www.w3.org/2000/svg" xmlns:xlink="http://www.w3.org/1999/xlink" contentStyleType="text/css" height="250px" preserveAspectRatio="none" style="width:206px;height:250px;background:#FFFFFF;" version="1.1" viewBox="0 0 206 250" width="206px" zoomAndPan="magnify"><defs/><g><g id="elem_a"><rect fill="#F1F1F1" height="39.0679" style="stroke:#181818;stroke-width:0.5;" width="22" x="64.5" y="7"/><text fill="#000000" font-family="sans-serif" font-size="14" lengthAdjust="spacing" textLength="8" x="71.5" y="23.9659">a</text><line style="stroke:#181818;stroke-width:0.5;" x1="65.5" x2="85.5" y1="30.0679" y2="30.0679"/></g><g id="elem_b"><rect fill="#F1F1F1" height="39.0679" style="stroke:#181818;stroke-width:0.5;" width="23" x="36" y="106"/><text fill="#000000" font-family="sans-serif" font-size="14" lengthAdjust="spacing" textLength="9" x="43" y="122.9659">b</text><line style="stroke:#181818;stroke-width:0.5;" x1="37" x2="58" y1="129.0679" y2="129.0679"/></g><g id="elem_c"><rect fill="#F1F1F1" height="39.0679" style="stroke:#181818;stroke-width:0.5;" width="21" x="94" y="106"/><text fill="#000000" font-family="sans-serif" font-size="14" lengthAdjust="spacing" textLength="7" x="101" y="122.9659">c</text><line style="stroke:#181818;stroke-width:0.5;" x1="95" x2="114" y1="129.0679" y2="129.0679"/></g><g id="elem_d"><rect fill="#F1F1F1" height="39.0679" style="stroke:#181818;stroke-width:0.5;" width="23" x="7" y="205"/><text fill="#000000" font-family="sans-serif" font-size="14" lengthAdjust="spacing" textLength="9" x="14" y="221.9659">d</text><line style="stroke:#181818;stroke-width:0.5;" x1="8" x2="29" y1="228.0679" y2="228.0679"/></g><g id="elem_e"><rect fill="#F1F1F1" height="39.0679" style="stroke:#181818;stroke-width:0.5;" width="22" x="65.5" y="205"/><text fill="#000000" font-family="sans-serif" font-size="14" lengthAdjust="spacing" textLength="8" x="72.5" y="221.9659">e</text><line style="stroke:#181818;stroke-width:0.5;" x1="66.5" x2="86.5" y1="228.0679" y2="228.0679"/></g><g id="elem_f"><rect fill="#F1F1F1" height="39.0679" style="stroke:#181818;stroke-width:0.5;" width="19" x="123" y="205"/><text fill="#000000" font-family="sans-serif" font-size="14" lengthAdjust="spacing" textLength="5" x="130" y="221.9659">f</text><line style="stroke:#181818;stroke-width:0.5;" x1="124" x2="141" y1="228.0679" y2="228.0679"/></g><g id="elem_g"><rect fill="#F1F1F1" height="39.0679" style="stroke:#181818;stroke-width:0.5;" width="23" x="177" y="205"/><text fill="#000000" font-family="sans-serif" font-size="14" lengthAdjust="spacing" textLength="9" x="184" y="221.9659">g</text><line style="stroke:#181818;stroke-width:0.5;" x1="178" x2="199" y1="228.0679" y2="228.0679"/></g><!--link a to b--><g id="link_a_b"><path codeLine="9" d="M70.1,46.2 C65.14,63.38 59.507,82.9362 54.547,100.0862 " fill="none" id="a-to-b" style="stroke:#181818;stroke-width:1.0;"/><polygon fill="#181818" points="52.88,105.85,59.223,98.3156,54.2691,101.0468,51.5379,96.093,52.88,105.85" style="stroke:#181818;stroke-width:1.0;"/></g><!--link b to d--><g id="link_b_d"><path codeLine="10" d="M41.91,145.2 C36.77,162.38 30.9195,181.9517 25.7895,199.1017 " fill="none" id="b-to-d" style="stroke:#181818;stroke-width:1.0;"/><polygon fill="#181818" points="24.07,204.85,30.4814,197.3738,25.5029,200.0597,22.817,195.0812,24.07,204.85" style="stroke:#181818;stroke-width:1.0;"/></g><!--link a to c--><g id="link_a_c"><path codeLine="11" d="M81.09,46.2 C86.23,63.38 92.0805,82.9517 97.2105,100.1017 " fill="none" id="a-to-c" style="stroke:#181818;stroke-width:1.0;"/><polygon fill="#181818" points="98.93,105.85,100.183,96.0812,97.4971,101.0597,92.5186,98.3738,98.93,105.85" style="stroke:#181818;stroke-width:1.0;"/></g><!--link c to e--><g id="link_c_e"><path codeLine="12" d="M99.1,145.2 C94.14,162.38 88.507,181.9362 83.547,199.0862 " fill="none" id="c-to-e" style="stroke:#181818;stroke-width:1.0;"/><polygon fill="#181818" points="81.88,204.85,88.223,197.3156,83.2691,200.0468,80.5379,195.093,81.88,204.85" style="stroke:#181818;stroke-width:1.0;"/></g><!--link c to f--><g id="link_c_f"><path codeLine="13" d="M109.9,145.2 C114.86,162.38 120.493,181.9362 125.453,199.0862 " fill="none" id="c-to-f" style="stroke:#181818;stroke-width:1.0;"/><polygon fill="#181818" points="127.12,204.85,128.4621,195.093,125.7309,200.0468,120.777,197.3156,127.12,204.85" style="stroke:#181818;stroke-width:1.0;"/></g><!--link c to g--><g id="link_c_g"><path codeLine="14" d="M115.14,138.79 C130.94,157.04 156.582,186.6445 172.942,205.5345 " fill="none" id="c-to-g" style="stroke:#181818;stroke-width:1.0;"/><polygon fill="#181818" points="176.87,210.07,174.0016,200.6481,173.5966,206.2904,167.9543,205.8855,176.87,210.07" style="stroke:#181818;stroke-width:1.0;"/></g><!--SRC=[oq_AIaqkKKZaoeSmac2CP1WZ1SP8XJ7IO8nqBgv41TqKNJkWjYG88mKcaioL366amXXfC4Ow0000]--></g></svg>