<?xml version="1.0" encoding="us-ascii" standalone="no"?><svg xmlns="http://www.w3.org/2000/svg" xmlns:xlink="http://www.w3.org/1999/xlink" contentStyleType="text/css" height="349px" preserveAspectRatio="none" style="width:232px;height:349px;background:#FFFFFF;" version="1.1" viewBox="0 0 232 349" width="232px" zoomAndPan="magnify"><defs/><g><g id="elem_a"><rect fill="#F1F1F1" height="39.0679" style="stroke:#181818;stroke-width:0.5;" width="22" x="92.5" y="7"/><text fill="#000000" font-family="sans-serif" font-size="14" lengthAdjust="spacing" textLength="8" x="99.5" y="23.9659">a</text><line style="stroke:#181818;stroke-width:0.5;" x1="93.5" x2="113.5" y1="30.0679" y2="30.0679"/></g><g id="elem_b"><rect fill="#F1F1F1" height="39.0679" style="stroke:#181818;stroke-width:0.5;" width="23" x="64" y="106"/><text fill="#000000" font-family="sans-serif" font-size="14" lengthAdjust="spacing" textLength="9" x="71" y="122.9659">b</text><line style="stroke:#181818;stroke-width:0.5;" x1="65" x2="86" y1="129.0679" y2="129.0679"/></g><g id="elem_c"><rect fill="#F1F1F1" height="39.0679" style="stroke:#181818;stroke-width:0.5;" width="21" x="122" y="106"/><text fill="#000000" font-family="sans-serif" font-size="14" lengthAdjust="spacing" textLength="7" x="129" y="122.9659">c</text><line style="stroke:#181818;stroke-width:0.5;" x1="123" x2="142" y1="129.0679" y2="129.0679"/></g><g id="elem_d"><rect fill="#F1F1F1" height="39.0679" style="stroke:#181818;stroke-width:0.5;" width="23" x="7" y="205"/><text fill="#000000" font-family="sans-serif" font-size="14" lengthAdjust="spacing" textLength="9" x="14" y="221.9659">d</text><line style="stroke:#181818;stroke-width:0.5;" x1="8" x2="29" y1="228.0679" y2="228.0679"/></g><g id="elem_e"><rect fill="#F1F1F1" height="39.0679" style="stroke:#181818;stroke-width:0.5;" width="22" x="65.5" y="205"/><text fill="#000000" font-family="sans-serif" font-size="14" lengthAdjust="spacing" textLength="8" x="72.5" y="221.9659">e</text><line style="stroke:#181818;stroke-width:0.5;" x1="66.5" x2="86.5" y1="228.0679" y2="228.0679"/></g><g id="elem_f"><rect fill="#F1F1F1" height="39.0679" style="stroke:#181818;stroke-width:0.5;" width="19" x="123" y="205"/><text fill="#000000" font-family="sans-serif" font-size="14" lengthAdjust="spacing" textLength="5" x="130" y="221.9659">f</text><line style="stroke:#181818;stroke-width:0.5;" x1="124" x2="141" y1="228.0679" y2="228.0679"/></g><g id="elem_g"><rect fill="#F1F1F1" height="39.0679" style="stroke:#181818;stroke-width:0.5;" width="23" x="177" y="205"/><text fill="#000000" font-family="sans-serif" font-size="14" lengthAdjust="spacing" textLength="9" x="184" y="221.9659">g</text><line style="stroke:#181818;stroke-width:0.5;" x1="178" x2="199" y1="228.0679" y2="228.0679"/></g><g id="elem_h"><rect fill="#F1F1F1" height="39.0679" style="stroke:#181818;stroke-width:0.5;" width="23" x="38" y="304"/><text fill="#000000" font-family="sans-serif" font-size="14" lengthAdjust="spacing" textLength="9" x="45" y="320.9659">h</text><line style="stroke:#181818;stroke-width:0.5;" x1="39" x2="60" y1="327.0679" y2="327.0679"/></g><g id="elem_i"><rect fill="#F1F1F1" height="39.0679" style="stroke:#181818;stroke-width:0.5;" width="18" x="96.5" y="304"/><text fill="#000000" font-family="sans-serif" font-size="14" lengthAdjust="spacing" textLength="4" x="103.5" y="320.9659">i</text><line style="stroke:#181818;stroke-width:0.5;" x1="97.5" x2="113.5" y1="327.0679" y2="327.0679"/></g><g id="elem_j"><rect fill="#F1F1F1" height="39.0679" style="stroke:#181818;stroke-width:0.5;" width="18" x="151.5" y="304"/><text fill="#000000" font-family="sans-serif" font-size="14" lengthAdjust="spacing" textLength="4" x="158.5" y="320.9659">j</text><line style="stroke:#181818;stroke-width:0.5;" x1="152.5" x2="168.5" y1="327.0679" y2="327.0679"/></g><g id="elem_k"><rect fill="#F1F1F1" height="39.0679" style="stroke:#181818;stroke-width:0.5;" width="21" x="205" y="304"/><text fill="#000000" font-family="sans-serif" font-size="14" lengthAdjust="spacing" textLength="7" x="212" y="320.9659">k</text><line style="stroke:#181818;stroke-width:0.5;" x1="206" x2="225" y1="327.0679" y2="327.0679"/></g><!--link a to b--><g id="link_a_b"><path codeLine="13" d="M98.1,46.2 C93.14,63.38 87.507,82.9362 82.547,100.0862 " fill="none" id="a-to-b" style="stroke:#181818;stroke-width:1.0;"/><polygon fill="#181818" points="80.88,105.85,87.223,98.3156,82.2691,101.0468,79.5379,96.093,80.88,105.85" style="stroke:#181818;stroke-width:1.0;"/></g><!--link a to c--><g id="link_a_c"><path codeLine="14" d="M109.09,46.2 C114.23,63.38 120.0805,82.9517 125.2105,100.1017 " fill="none" id="a-to-c" style="stroke:#181818;stroke-width:1.0;"/><polygon fill="#181818" points="126.93,105.85,128.183,96.0812,125.4971,101.0597,120.5186,98.3738,126.93,105.85" style="stroke:#181818;stroke-width:1.0;"/></g><!--link b to d--><g id="link_b_d"><path codeLine="15" d="M64.51,145.2 C54.42,162.38 42.5803,182.5273 32.5003,199.6773 " fill="none" id="b-to-d" style="stroke:#181818;stroke-width:1.0;"/><polygon fill="#181818" points="29.46,204.85,37.4689,199.1178,31.9936,200.5394,30.572,195.0641,29.46,204.85" style="stroke:#181818;stroke-width:1.0;"/></g><!--link b to e--><g id="link_b_e"><path codeLine="16" d="M75.69,145.2 C75.87,162.38 76.067,181.7003 76.247,198.8503 " fill="none" id="b-to-e" style="stroke:#181818;stroke-width:1.0;"/><polygon fill="#181818" points="76.31,204.85,80.2153,195.8085,76.2575,199.8503,72.2158,195.8925,76.31,204.85" style="stroke:#181818;stroke-width:1.0;"/></g><!--link e to h--><g id="link_e_h"><path codeLine="17" d="M71.29,244.2 C66.51,261.38 61.0809,280.9203 56.3009,298.0703 " fill="none" id="e-to-h" style="stroke:#181818;stroke-width:1.0;"/><polygon fill="#181818" points="54.69,303.85,60.9595,296.2544,56.0324,299.0336,53.2532,294.1065,54.69,303.85" style="stroke:#181818;stroke-width:1.0;"/></g><!--link e to i--><g id="link_e_i"><path codeLine="18" d="M82.09,244.2 C87.23,261.38 93.0805,280.9517 98.2105,298.1017 " fill="none" id="e-to-i" style="stroke:#181818;stroke-width:1.0;"/><polygon fill="#181818" points="99.93,303.85,101.183,294.0812,98.4971,299.0597,93.5186,296.3738,99.93,303.85" style="stroke:#181818;stroke-width:1.0;"/></g><!--link c to f--><g id="link_c_f"><path codeLine="19" d="M132.5,145.2 C132.5,162.38 132.5,181.7 132.5,198.85 " fill="none" id="c-to-f" style="stroke:#181818;stroke-width:1.0;"/><polygon fill="#181818" points="132.5,204.85,136.5,195.85,132.5,199.85,128.5,195.85,132.5,204.85" style="stroke:#181818;stroke-width:1.0;"/></g><!--link c to g--><g id="link_c_g"><path codeLine="20" d="M143.03,144.74 C152.92,161.87 164.6409,182.1733 174.6309,199.4833 " fill="none" id="c-to-g" style="stroke:#181818;stroke-width:1.0;"/><polygon fill="#181818" points="177.63,204.68,176.5958,194.8856,175.1307,200.3494,169.6669,198.8844,177.63,204.68" style="stroke:#181818;stroke-width:1.0;"/></g><!--link g to j--><g id="link_g_j"><path codeLine="21" d="M183.1,244.2 C178.14,261.38 172.507,280.9362 167.547,298.0862 " fill="none" id="g-to-j" style="stroke:#181818;stroke-width:1.0;"/><polygon fill="#181818" points="165.88,303.85,172.223,296.3156,167.2691,299.0468,164.5379,294.093,165.88,303.85" style="stroke:#181818;stroke-width:1.0;"/></g><!--link g to k--><g id="link_g_k"><path codeLine="22" d="M193.71,244.2 C198.49,261.38 203.9191,280.9203 208.6991,298.0703 " fill="none" id="g-to-k" style="stroke:#181818;stroke-width:1.0;"/><polygon fill="#181818" points="210.31,303.85,211.7468,294.1065,208.9676,299.0336,204.0405,296.2544,210.31,303.85" style="stroke:#181818;stroke-width:1.0;"/></g><!--SRC=[DSov4S0W30J0_AfG0xJWNf0GZmX8w7_i6VcoZVPek5sfE0abZ6Y44vqOn2GM4SG6gfHMdg_-OT148noUc48jMA8BDGGZ5SH-0G00]--></g></svg>