<?xml version="1.0" encoding="us-ascii" standalone="no"?><svg xmlns="http://www.w3.org/2000/svg" xmlns:xlink="http://www.w3.org/1999/xlink" contentStyleType="text/css" height="250px" preserveAspectRatio="none" style="width:99px;height:250px;background:#FFFFFF;" version="1.1" viewBox="0 0 99 250" width="99px" zoomAndPan="magnify"><defs/><g><g id="elem_A"><rect fill="#F1F1F1" height="39.0679" style="stroke:#181818;stroke-width:0.5;" width="23" x="37.5" y="7"/><text fill="#000000" font-family="sans-serif" font-size="14" lengthAdjust="spacing" textLength="9" x="44.5" y="23.9659">A</text><line style="stroke:#181818;stroke-width:0.5;" x1="38.5" x2="59.5" y1="30.0679" y2="30.0679"/></g><g id="elem_B"><rect fill="#F1F1F1" height="39.0679" style="stroke:#181818;stroke-width:0.5;" width="23" x="8.5" y="106"/><text fill="#000000" font-family="sans-serif" font-size="14" lengthAdjust="spacing" textLength="9" x="15.5" y="122.9659">B</text><line style="stroke:#181818;stroke-width:0.5;" x1="9.5" x2="30.5" y1="129.0679" y2="129.0679"/></g><g id="elem_C"><rect fill="#F1F1F1" height="39.0679" style="stroke:#181818;stroke-width:0.5;" width="23" x="66.5" y="106"/><text fill="#000000" font-family="sans-serif" font-size="14" lengthAdjust="spacing" textLength="9" x="73.5" y="122.9659">C</text><line style="stroke:#181818;stroke-width:0.5;" x1="67.5" x2="88.5" y1="129.0679" y2="129.0679"/></g><g id="elem_D"><rect fill="#F1F1F1" height="39.0679" style="stroke:#181818;stroke-width:0.5;" width="24" x="8" y="205"/><text fill="#000000" font-family="sans-serif" font-size="14" lengthAdjust="spacing" textLength="10" x="15" y="221.9659">D</text><line style="stroke:#181818;stroke-width:0.5;" x1="9" x2="31" y1="228.0679" y2="228.0679"/></g><g id="elem_E"><rect fill="#F1F1F1" height="39.0679" style="stroke:#181818;stroke-width:0.5;" width="22" x="67" y="205"/><text fill="#000000" font-family="sans-serif" font-size="14" lengthAdjust="spacing" textLength="8" x="74" y="221.9659">E</text><line style="stroke:#181818;stroke-width:0.5;" x1="68" x2="88" y1="228.0679" y2="228.0679"/></g><!--link A to B--><g id="link_A_B"><path codeLine="7" d="M43.41,46.2 C38.27,63.38 32.4195,82.9517 27.2895,100.1017 " fill="none" id="A-to-B" style="stroke:#181818;stroke-width:1.0;"/><polygon fill="#181818" points="25.57,105.85,31.9814,98.3738,27.0029,101.0597,24.317,96.0812,25.57,105.85" style="stroke:#181818;stroke-width:1.0;"/></g><!--link A to C--><g id="link_A_C"><path codeLine="8" d="M54.59,46.2 C59.73,63.38 65.5805,82.9517 70.7105,100.1017 " fill="none" id="A-to-C" style="stroke:#181818;stroke-width:1.0;"/><polygon fill="#181818" points="72.43,105.85,73.683,96.0812,70.9971,101.0597,66.0186,98.3738,72.43,105.85" style="stroke:#181818;stroke-width:1.0;"/></g><!--link B to D--><g id="link_B_D"><path codeLine="9" d="M20,145.2 C20,162.38 20,181.7 20,198.85 " fill="none" id="B-to-D" style="stroke:#181818;stroke-width:1.0;"/><polygon fill="#181818" points="20,204.85,24,195.85,20,199.85,16,195.85,20,204.85" style="stroke:#181818;stroke-width:1.0;"/></g><!--link C to E--><g id="link_C_E"><path codeLine="10" d="M78,145.2 C78,162.38 78,181.7 78,198.85 " fill="none" id="C-to-E" style="stroke:#181818;stroke-width:1.0;"/><polygon fill="#181818" points="78,204.85,82,195.85,78,199.85,74,195.85,78,204.85" style="stroke:#181818;stroke-width:1.0;"/></g><!--SRC=[oq_AIaqkKN3aoeSmd60CPnZ31SPmvU9oLD3LjGEgWT3EN4vWseNB6Kox0W00]--></g></svg>