<?xml version="1.0" encoding="us-ascii" standalone="no"?><svg xmlns="http://www.w3.org/2000/svg" xmlns:xlink="http://www.w3.org/1999/xlink" contentStyleType="text/css" height="250px" preserveAspectRatio="none" style="width:206px;height:250px;background:#FFFFFF;" version="1.1" viewBox="0 0 206 250" width="206px" zoomAndPan="magnify"><defs/><g><g id="elem_1"><rect fill="#F1F1F1" height="39.0679" style="stroke:#181818;stroke-width:0.5;" width="22" x="92" y="7"/><text fill="#000000" font-family="sans-serif" font-size="14" lengthAdjust="spacing" textLength="8" x="99" y="23.9659">1</text><line style="stroke:#181818;stroke-width:0.5;" x1="93" x2="113" y1="30.0679" y2="30.0679"/></g><g id="elem_2"><rect fill="#F1F1F1" height="39.0679" style="stroke:#181818;stroke-width:0.5;" width="22" x="64" y="106"/><text fill="#000000" font-family="sans-serif" font-size="14" lengthAdjust="spacing" textLength="8" x="71" y="122.9659">2</text><line style="stroke:#181818;stroke-width:0.5;" x1="65" x2="85" y1="129.0679" y2="129.0679"/></g><g id="elem_3"><rect fill="#F1F1F1" height="39.0679" style="stroke:#181818;stroke-width:0.5;" width="22" x="121" y="106"/><text fill="#000000" font-family="sans-serif" font-size="14" lengthAdjust="spacing" textLength="8" x="128" y="122.9659">3</text><line style="stroke:#181818;stroke-width:0.5;" x1="122" x2="142" y1="129.0679" y2="129.0679"/></g><g id="elem_4"><rect fill="#F1F1F1" height="39.0679" style="stroke:#181818;stroke-width:0.5;" width="22" x="7" y="205"/><text fill="#000000" font-family="sans-serif" font-size="14" lengthAdjust="spacing" textLength="8" x="14" y="221.9659">4</text><line style="stroke:#181818;stroke-width:0.5;" x1="8" x2="28" y1="228.0679" y2="228.0679"/></g><g id="elem_5"><rect fill="#F1F1F1" height="39.0679" style="stroke:#181818;stroke-width:0.5;" width="22" x="64" y="205"/><text fill="#000000" font-family="sans-serif" font-size="14" lengthAdjust="spacing" textLength="8" x="71" y="221.9659">5</text><line style="stroke:#181818;stroke-width:0.5;" x1="65" x2="85" y1="228.0679" y2="228.0679"/></g><g id="elem_6"><rect fill="#F1F1F1" height="39.0679" style="stroke:#181818;stroke-width:0.5;" width="22" x="121" y="205"/><text fill="#000000" font-family="sans-serif" font-size="14" lengthAdjust="spacing" textLength="8" x="128" y="221.9659">6</text><line style="stroke:#181818;stroke-width:0.5;" x1="122" x2="142" y1="228.0679" y2="228.0679"/></g><g id="elem_7"><rect fill="#F1F1F1" height="39.0679" style="stroke:#181818;stroke-width:0.5;" width="22" x="178" y="205"/><text fill="#000000" font-family="sans-serif" font-size="14" lengthAdjust="spacing" textLength="8" x="185" y="221.9659">7</text><line style="stroke:#181818;stroke-width:0.5;" x1="179" x2="199" y1="228.0679" y2="228.0679"/></g><!--link 1 to 2--><g id="link_1_2"><path codeLine="9" d="M97.6,46.2 C92.64,63.38 87.007,82.9362 82.047,100.0862 " fill="none" id="1-to-2" style="stroke:#181818;stroke-width:1.0;"/><polygon fill="#181818" points="80.38,105.85,86.723,98.3156,81.7691,101.0468,79.0379,96.093,80.38,105.85" style="stroke:#181818;stroke-width:1.0;"/></g><!--link 1 to 3--><g id="link_1_3"><path codeLine="10" d="M108.59,46.2 C113.73,63.38 119.5805,82.9517 124.7105,100.1017 " fill="none" id="1-to-3" style="stroke:#181818;stroke-width:1.0;"/><polygon fill="#181818" points="126.43,105.85,127.683,96.0812,124.9971,101.0597,120.0186,98.3738,126.43,105.85" style="stroke:#181818;stroke-width:1.0;"/></g><!--link 2 to 4--><g id="link_2_4"><path codeLine="11" d="M64.01,145.2 C53.92,162.38 42.0803,182.5273 32.0003,199.6773 " fill="none" id="2-to-4" style="stroke:#181818;stroke-width:1.0;"/><polygon fill="#181818" points="28.96,204.85,36.9689,199.1178,31.4936,200.5394,30.072,195.0641,28.96,204.85" style="stroke:#181818;stroke-width:1.0;"/></g><!--link 2 to 5--><g id="link_2_5"><path codeLine="12" d="M75,145.2 C75,162.38 75,181.7 75,198.85 " fill="none" id="2-to-5" style="stroke:#181818;stroke-width:1.0;"/><polygon fill="#181818" points="75,204.85,79,195.85,75,199.85,71,195.85,75,204.85" style="stroke:#181818;stroke-width:1.0;"/></g><!--link 3 to 6--><g id="link_3_6"><path codeLine="13" d="M132,145.2 C132,162.38 132,181.7 132,198.85 " fill="none" id="3-to-6" style="stroke:#181818;stroke-width:1.0;"/><polygon fill="#181818" points="132,204.85,136,195.85,132,199.85,128,195.85,132,204.85" style="stroke:#181818;stroke-width:1.0;"/></g><!--link 3 to 7--><g id="link_3_7"><path codeLine="14" d="M142.99,145.2 C153.08,162.38 164.9197,182.5273 174.9997,199.6773 " fill="none" id="3-to-7" style="stroke:#181818;stroke-width:1.0;"/><polygon fill="#181818" points="178.04,204.85,176.928,195.0641,175.5064,200.5394,170.0311,199.1178,178.04,204.85" style="stroke:#181818;stroke-width:1.0;"/></g><!--SRC=[oq_AIaqkKJ3aoeSmZ60COnZ31COmXJ7CO0npBYv31TqKNJkWDYZ3cCi8mZ21CKovZ24CCnZ37000]--></g></svg>