<?xml version="1.0" encoding="us-ascii" standalone="no"?><svg xmlns="http://www.w3.org/2000/svg" xmlns:xlink="http://www.w3.org/1999/xlink" contentStyleType="text/css" height="349px" preserveAspectRatio="none" style="width:238px;height:349px;background:#FFFFFF;" version="1.1" viewBox="0 0 238 349" width="238px" zoomAndPan="magnify"><defs/><g><g id="elem_40"><rect fill="#F1F1F1" height="39.0679" style="stroke:#181818;stroke-width:0.5;" width="30" x="71" y="7"/><text fill="#000000" font-family="sans-serif" font-size="14" lengthAdjust="spacing" textLength="16" x="78" y="23.9659">40</text><line style="stroke:#181818;stroke-width:0.5;" x1="72" x2="100" y1="30.0679" y2="30.0679"/></g><g id="elem_38"><rect fill="#F1F1F1" height="39.0679" style="stroke:#181818;stroke-width:0.5;" width="30" x="23" y="106"/><text fill="#000000" font-family="sans-serif" font-size="14" lengthAdjust="spacing" textLength="16" x="30" y="122.9659">38</text><line style="stroke:#181818;stroke-width:0.5;" x1="24" x2="52" y1="129.0679" y2="129.0679"/></g><g id="elem_57"><rect fill="#F1F1F1" height="39.0679" style="stroke:#181818;stroke-width:0.5;" width="30" x="120" y="106"/><text fill="#000000" font-family="sans-serif" font-size="14" lengthAdjust="spacing" textLength="16" x="127" y="122.9659">57</text><line style="stroke:#181818;stroke-width:0.5;" x1="121" x2="149" y1="129.0679" y2="129.0679"/></g><g id="elem_60"><rect fill="#F1F1F1" height="39.0679" style="stroke:#181818;stroke-width:0.5;" width="30" x="72" y="205"/><text fill="#000000" font-family="sans-serif" font-size="14" lengthAdjust="spacing" textLength="16" x="79" y="221.9659">60</text><line style="stroke:#181818;stroke-width:0.5;" x1="73" x2="101" y1="228.0679" y2="228.0679"/></g><g id="elem_26"><rect fill="#F1F1F1" height="39.0679" style="stroke:#181818;stroke-width:0.5;" width="30" x="137" y="205"/><text fill="#000000" font-family="sans-serif" font-size="14" lengthAdjust="spacing" textLength="16" x="144" y="221.9659">26</text><line style="stroke:#181818;stroke-width:0.5;" x1="138" x2="166" y1="228.0679" y2="228.0679"/></g><g id="elem_35"><rect fill="#F1F1F1" height="39.0679" style="stroke:#181818;stroke-width:0.5;" width="30" x="202" y="304"/><text fill="#000000" font-family="sans-serif" font-size="14" lengthAdjust="spacing" textLength="16" x="209" y="320.9659">35</text><line style="stroke:#181818;stroke-width:0.5;" x1="203" x2="231" y1="327.0679" y2="327.0679"/></g><g id="elem_42"><rect fill="#F1F1F1" height="39.0679" style="stroke:#181818;stroke-width:0.5;" width="30" x="202" y="205"/><text fill="#000000" font-family="sans-serif" font-size="14" lengthAdjust="spacing" textLength="16" x="209" y="221.9659">42</text><line style="stroke:#181818;stroke-width:0.5;" x1="203" x2="231" y1="228.0679" y2="228.0679"/></g><g id="elem_15"><rect fill="#F1F1F1" height="39.0679" style="stroke:#181818;stroke-width:0.5;" width="30" x="7" y="205"/><text fill="#000000" font-family="sans-serif" font-size="14" lengthAdjust="spacing" textLength="16" x="14" y="221.9659">15</text><line style="stroke:#181818;stroke-width:0.5;" x1="8" x2="36" y1="228.0679" y2="228.0679"/></g><!--link 40 to 38--><g id="link_40_38"><path codeLine="10" d="M76.75,46.2 C68.25,63.38 58.3819,83.3228 49.8919,100.4728 " fill="none" id="40-to-38" style="stroke:#181818;stroke-width:1.0;"/><polygon fill="#181818" points="47.23,105.85,54.8077,99.5589,49.4483,101.369,47.6381,96.0096,47.23,105.85" style="stroke:#181818;stroke-width:1.0;"/></g><!--link 40 to 57--><g id="link_40_57"><path codeLine="11" d="M95.45,46.2 C104.12,63.38 114.203,83.3454 122.873,100.4954 " fill="none" id="40-to-57" style="stroke:#181818;stroke-width:1.0;"/><polygon fill="#181818" points="125.58,105.85,125.0893,96.0134,123.3242,101.3878,117.9498,99.6227,125.58,105.85" style="stroke:#181818;stroke-width:1.0;"/></g><!--link 57 to 60--><g id="link_57_60"><path codeLine="12" d="M125.75,145.2 C117.25,162.38 107.3819,182.3228 98.8919,199.4728 " fill="none" id="57-to-60" style="stroke:#181818;stroke-width:1.0;"/><polygon fill="#181818" points="96.23,204.85,103.8077,198.5589,98.4483,200.369,96.6381,195.0096,96.23,204.85" style="stroke:#181818;stroke-width:1.0;"/></g><!--link 57 to 42--><g id="link_57_42"><path codeLine="13" d="M150.04,144.29 C164.74,161.68 183.1349,183.4492 197.9049,200.9092 " fill="none" id="57-to-42" style="stroke:#181818;stroke-width:1.0;"/><polygon fill="#181818" points="201.78,205.49,199.0213,196.0354,198.5508,201.6727,192.9135,201.2022,201.78,205.49" style="stroke:#181818;stroke-width:1.0;"/></g><!--link 57 to 26--><g id="link_57_26"><path codeLine="14" d="M138.28,145.2 C141.29,162.38 144.6961,181.7897 147.6961,198.9397 " fill="none" id="57-to-26" style="stroke:#181818;stroke-width:1.0;"/><polygon fill="#181818" points="148.73,204.85,151.1194,195.2954,147.8684,199.9248,143.239,196.6739,148.73,204.85" style="stroke:#181818;stroke-width:1.0;"/></g><!--link 42 to 35--><g id="link_42_35"><path codeLine="15" d="M217,244.2 C217,261.38 217,280.7 217,297.85 " fill="none" id="42-to-35" style="stroke:#181818;stroke-width:1.0;"/><polygon fill="#181818" points="217,303.85,221,294.85,217,298.85,213,294.85,217,303.85" style="stroke:#181818;stroke-width:1.0;"/></g><!--link 38 to 15--><g id="link_38_15"><path codeLine="16" d="M34.92,145.2 C32.08,162.38 28.8869,181.7801 26.0569,198.9301 " fill="none" id="38-to-15" style="stroke:#181818;stroke-width:1.0;"/><polygon fill="#181818" points="25.08,204.85,30.4919,196.6213,25.8941,199.9167,22.5987,195.3188,25.08,204.85" style="stroke:#181818;stroke-width:1.0;"/></g><!--SRC=[oq_AIaqkKJ0nuCg7i8mjO2nJSnZB32vhP0PNPmfZcHZ1M8QcN5mc1WgwkdOWOw0ie36cvc0Mq1We2wW5oW8QQ684qM7APMm1PW6D0G00]--></g></svg>