<?xml version="1.0" encoding="us-ascii" standalone="no"?><svg xmlns="http://www.w3.org/2000/svg" xmlns:xlink="http://www.w3.org/1999/xlink" contentStyleType="text/css" height="586px" preserveAspectRatio="none" style="width:1023px;height:586px;background:#FFFFFF;" version="1.1" viewBox="0 0 1023 586" width="1023px" zoomAndPan="magnify"><defs/><g><!--class ErrorManagement--><g id="elem_ErrorManagement"><rect codeLine="4" fill="#F1F1F1" height="56.1358" id="ErrorManagement" rx="2.5" ry="2.5" style="stroke:#181818;stroke-width:0.5;" width="130" x="364.5" y="7"/><text fill="#000000" font-family="sans-serif" font-size="14" lengthAdjust="spacing" textLength="124" x="367.5" y="26.9659">ErrorManagement</text><line style="stroke:#181818;stroke-width:0.5;" x1="365.5" x2="493.5" y1="36.0679" y2="36.0679"/><text fill="#000000" font-family="sans-serif" font-size="14" lengthAdjust="spacing" textLength="74" x="370.5" y="55.0339">&#171;interface&#187;</text></g><!--class InternalErrorHandler--><g id="elem_InternalErrorHandler"><rect codeLine="8" fill="#F1F1F1" height="121.3396" id="InternalErrorHandler" rx="2.5" ry="2.5" style="stroke:#181818;stroke-width:0.5;" width="257" x="232" y="142"/><text fill="#000000" font-family="sans-serif" font-size="14" lengthAdjust="spacing" textLength="142" x="289.5" y="161.9659">InternalErrorHandler</text><line style="stroke:#181818;stroke-width:0.5;" x1="233" x2="488" y1="171.0679" y2="171.0679"/><polygon fill="none" points="243,181.1019,247,185.1019,243,189.1019,239,185.1019" style="stroke:#B38D22;stroke-width:1.0;"/><text fill="#000000" font-family="sans-serif" font-size="14" lengthAdjust="spacing" textLength="180" x="252" y="190.0339">assert condition : message</text><line style="stroke:#181818;stroke-width:0.5;" x1="233" x2="488" y1="198.1358" y2="198.1358"/><ellipse cx="243" cy="213.1698" fill="#84BE84" rx="3" ry="3" style="stroke:#038048;stroke-width:1.0;"/><text fill="#000000" font-family="sans-serif" font-size="14" lengthAdjust="spacing" textLength="231" x="252" y="217.1018">validatePreconditions(parameters)</text><ellipse cx="243" cy="232.2377" fill="#84BE84" rx="3" ry="3" style="stroke:#038048;stroke-width:1.0;"/><text fill="#000000" font-family="sans-serif" font-size="14" lengthAdjust="spacing" textLength="162" x="252" y="236.1697">validateInvariants(state)</text><ellipse cx="243" cy="251.3056" fill="#84BE84" rx="3" ry="3" style="stroke:#038048;stroke-width:1.0;"/><text fill="#000000" font-family="sans-serif" font-size="14" lengthAdjust="spacing" textLength="198" x="252" y="255.2376">validatePostconditions(result)</text></g><g id="elem_GMN4"><path d="M6,153 L6,251.5301 A0,0 0 0 0 6,251.5301 L197,251.5301 A0,0 0 0 0 197,251.5301 L197,206.5 L231.89,202.5 L197,198.5 L197,163 L187,153 L6,153 A0,0 0 0 0 6,153 " fill="#FEFFDD" style="stroke:#181818;stroke-width:0.5;"/><path d="M187,153 L187,163 L197,163 L187,153 " fill="#FEFFDD" style="stroke:#181818;stroke-width:0.5;"/><text fill="#000000" font-family="sans-serif" font-size="13" font-weight="bold" lengthAdjust="spacing" textLength="162" x="12" y="171.897">Errores de programaci&#243;n</text><text fill="#000000" font-family="sans-serif" font-size="13" font-style="italic" font-weight="bold" lengthAdjust="spacing" textLength="144" x="12" y="189.603">Validaciones con assert</text><text fill="#000000" font-family="sans-serif" font-size="13" lengthAdjust="spacing" textLength="158" x="12" y="207.309">- Detectables en desarrollo</text><text fill="#000000" font-family="sans-serif" font-size="13" lengthAdjust="spacing" textLength="105" x="12" y="225.0151">- No recuperables</text><text fill="#000000" font-family="sans-serif" font-size="13" lengthAdjust="spacing" textLength="170" x="12" y="242.7211">- Precondiciones, invariantes</text></g><!--class ExternalErrorHandler--><g id="elem_ExternalErrorHandler"><rect codeLine="23" fill="#F1F1F1" height="94.2717" id="ExternalErrorHandler" rx="2.5" ry="2.5" style="stroke:#181818;stroke-width:0.5;" width="291" x="524" y="155.5"/><text fill="#000000" font-family="sans-serif" font-size="14" lengthAdjust="spacing" textLength="143" x="598" y="175.4659">ExternalErrorHandler</text><line style="stroke:#181818;stroke-width:0.5;" x1="525" x2="814" y1="184.5679" y2="184.5679"/><ellipse cx="535" cy="199.6019" fill="#84BE84" rx="3" ry="3" style="stroke:#038048;stroke-width:1.0;"/><text fill="#000000" font-family="sans-serif" font-size="14" lengthAdjust="spacing" textLength="265" x="544" y="203.5339">try operationWithExternalDependency()</text><ellipse cx="535" cy="218.6698" fill="#84BE84" rx="3" ry="3" style="stroke:#038048;stroke-width:1.0;"/><text fill="#000000" font-family="sans-serif" font-size="14" lengthAdjust="spacing" textLength="163" x="544" y="222.6018">catch handleError(error)</text><ellipse cx="535" cy="237.7377" fill="#84BE84" rx="3" ry="3" style="stroke:#038048;stroke-width:1.0;"/><text fill="#000000" font-family="sans-serif" font-size="14" lengthAdjust="spacing" textLength="176" x="544" y="241.6697">finally cleanupResources()</text></g><g id="elem_GMN8"><path d="M850.5,153 L850.5,198.5 L815.16,202.5 L850.5,206.5 L850.5,251.5301 A0,0 0 0 0 850.5,251.5301 L1016.5,251.5301 A0,0 0 0 0 1016.5,251.5301 L1016.5,163 L1006.5,153 L850.5,153 A0,0 0 0 0 850.5,153 " fill="#FEFFDD" style="stroke:#181818;stroke-width:0.5;"/><path d="M1006.5,153 L1006.5,163 L1016.5,163 L1006.5,153 " fill="#FEFFDD" style="stroke:#181818;stroke-width:0.5;"/><text fill="#000000" font-family="sans-serif" font-size="13" font-weight="bold" lengthAdjust="spacing" textLength="133" x="856.5" y="171.897">Errores de ejecuci&#243;n</text><text fill="#000000" font-family="sans-serif" font-size="13" font-style="italic" font-weight="bold" lengthAdjust="spacing" textLength="100" x="856.5" y="189.603">Try-catch-finally</text><text fill="#000000" font-family="sans-serif" font-size="13" lengthAdjust="spacing" textLength="145" x="856.5" y="207.309">- Ocurren en producci&#243;n</text><text fill="#000000" font-family="sans-serif" font-size="13" lengthAdjust="spacing" textLength="87" x="856.5" y="225.0151">- Recuperables</text><text fill="#000000" font-family="sans-serif" font-size="13" lengthAdjust="spacing" textLength="136" x="856.5" y="242.7211">- Plan de contingencia"</text></g><!--class BusinessLogic--><g id="elem_BusinessLogic"><rect codeLine="37" fill="#F1F1F1" height="56.1358" id="BusinessLogic" rx="2.5" ry="2.5" style="stroke:#181818;stroke-width:0.5;" width="154" x="556.5" y="7"/><text fill="#000000" font-family="sans-serif" font-size="14" lengthAdjust="spacing" textLength="95" x="586" y="26.9659">BusinessLogic</text><line style="stroke:#181818;stroke-width:0.5;" x1="557.5" x2="709.5" y1="36.0679" y2="36.0679"/><ellipse cx="567.5" cy="51.1019" fill="#84BE84" rx="3" ry="3" style="stroke:#038048;stroke-width:1.0;"/><text fill="#000000" font-family="sans-serif" font-size="14" lengthAdjust="spacing" textLength="128" x="576.5" y="55.0339">executeOperation()</text></g><!--class ExternalDependency--><g id="elem_ExternalDependency"><rect codeLine="41" fill="#F1F1F1" height="83.2038" id="ExternalDependency" rx="2.5" ry="2.5" style="stroke:#181818;stroke-width:0.5;" width="145" x="597" y="342"/><text fill="#000000" font-family="sans-serif" font-size="14" lengthAdjust="spacing" textLength="139" x="600" y="361.9659">ExternalDependency</text><line style="stroke:#181818;stroke-width:0.5;" x1="598" x2="741" y1="371.0679" y2="371.0679"/><text fill="#000000" font-family="sans-serif" font-size="14" lengthAdjust="spacing" textLength="74" x="603" y="390.0339">&#171;interface&#187;</text><line style="stroke:#181818;stroke-width:0.5;" x1="598" x2="741" y1="398.1358" y2="398.1358"/><ellipse cx="608" cy="413.1698" fill="#84BE84" rx="3" ry="3" style="stroke:#038048;stroke-width:1.0;"/><text fill="#000000" font-family="sans-serif" font-size="14" lengthAdjust="spacing" textLength="73" x="617" y="417.1018">operation()</text></g><!--class FileSystem--><g id="elem_FileSystem"><rect codeLine="46" fill="#F1F1F1" height="75.2038" id="FileSystem" rx="2.5" ry="2.5" style="stroke:#181818;stroke-width:0.5;" width="91" x="500" y="504"/><text fill="#000000" font-family="sans-serif" font-size="14" lengthAdjust="spacing" textLength="71" x="510" y="523.9659">FileSystem</text><line style="stroke:#181818;stroke-width:0.5;" x1="501" x2="590" y1="533.0679" y2="533.0679"/><ellipse cx="511" cy="548.1019" fill="#84BE84" rx="3" ry="3" style="stroke:#038048;stroke-width:1.0;"/><text fill="#000000" font-family="sans-serif" font-size="14" lengthAdjust="spacing" textLength="62" x="520" y="552.0339">readFile()</text><ellipse cx="511" cy="567.1698" fill="#84BE84" rx="3" ry="3" style="stroke:#038048;stroke-width:1.0;"/><text fill="#000000" font-family="sans-serif" font-size="14" lengthAdjust="spacing" textLength="65" x="520" y="571.1018">writeFile()</text></g><!--class Database--><g id="elem_Database"><rect codeLine="51" fill="#F1F1F1" height="75.2038" id="Database" rx="2.5" ry="2.5" style="stroke:#181818;stroke-width:0.5;" width="87" x="626" y="504"/><text fill="#000000" font-family="sans-serif" font-size="14" lengthAdjust="spacing" textLength="63" x="638" y="523.9659">Database</text><line style="stroke:#181818;stroke-width:0.5;" x1="627" x2="712" y1="533.0679" y2="533.0679"/><ellipse cx="637" cy="548.1019" fill="#84BE84" rx="3" ry="3" style="stroke:#038048;stroke-width:1.0;"/><text fill="#000000" font-family="sans-serif" font-size="14" lengthAdjust="spacing" textLength="61" x="646" y="552.0339">connect()</text><ellipse cx="637" cy="567.1698" fill="#84BE84" rx="3" ry="3" style="stroke:#038048;stroke-width:1.0;"/><text fill="#000000" font-family="sans-serif" font-size="14" lengthAdjust="spacing" textLength="47" x="646" y="571.1018">query()</text></g><!--class Network--><g id="elem_Network"><rect codeLine="56" fill="#F1F1F1" height="75.2038" id="Network" rx="2.5" ry="2.5" style="stroke:#181818;stroke-width:0.5;" width="147" x="748" y="504"/><text fill="#000000" font-family="sans-serif" font-size="14" lengthAdjust="spacing" textLength="56" x="793.5" y="523.9659">Network</text><line style="stroke:#181818;stroke-width:0.5;" x1="749" x2="894" y1="533.0679" y2="533.0679"/><ellipse cx="759" cy="548.1019" fill="#84BE84" rx="3" ry="3" style="stroke:#038048;stroke-width:1.0;"/><text fill="#000000" font-family="sans-serif" font-size="14" lengthAdjust="spacing" textLength="96" x="768" y="552.0339">sendRequest()</text><ellipse cx="759" cy="567.1698" fill="#84BE84" rx="3" ry="3" style="stroke:#038048;stroke-width:1.0;"/><text fill="#000000" font-family="sans-serif" font-size="14" lengthAdjust="spacing" textLength="121" x="768" y="571.1018">receiveResponse()</text></g><!--reverse link ErrorManagement to InternalErrorHandler--><g id="link_ErrorManagement_InternalErrorHandler"><path codeLine="61" d="M377.6853,75.1766 C368.4253,83.6566 372.92,81.66 367.5,93 C360.38,107.9 357.31,125.29 356.35,141.73 " fill="none" id="ErrorManagement-backto-InternalErrorHandler" style="stroke:#181818;stroke-width:1.0;"/><polygon fill="none" points="390.96,63.02,373.6331,70.7516,381.7375,79.6015,390.96,63.02" style="stroke:#181818;stroke-width:1.0;"/><text fill="#000000" font-family="sans-serif" font-size="13" lengthAdjust="spacing" textLength="71" x="368.5" y="107.897">implements</text></g><!--reverse link ErrorManagement to ExternalErrorHandler--><g id="link_ErrorManagement_ExternalErrorHandler"><path codeLine="62" d="M452.9555,78.7677 C462.2955,94.5777 466.56,98.46 482.5,112 C502.25,128.78 525.68,143.19 549.17,155.26 " fill="none" id="ErrorManagement-backto-ExternalErrorHandler" style="stroke:#181818;stroke-width:1.0;"/><polygon fill="none" points="443.8,63.27,447.7896,81.8195,458.1214,75.7158,443.8,63.27" style="stroke:#181818;stroke-width:1.0;"/><text fill="#000000" font-family="sans-serif" font-size="13" lengthAdjust="spacing" textLength="71" x="483.5" y="107.897">implements</text></g><!--link BusinessLogic to InternalErrorHandler--><g id="link_BusinessLogic_InternalErrorHandler"><path codeLine="63" d="M611.62,63.13 C597.89,78.89 579.11,98.27 559.5,112 C546.08,121.4 524.484,132.2034 494.514,145.6534 " fill="none" id="BusinessLogic-to-InternalErrorHandler" style="stroke:#181818;stroke-width:1.0;"/><polygon fill="#181818" points="489.04,148.11,498.8888,148.0744,493.6017,146.0628,495.6133,140.7757,489.04,148.11" style="stroke:#181818;stroke-width:1.0;"/><text fill="#000000" font-family="sans-serif" font-size="13" lengthAdjust="spacing" textLength="27" x="582.5" y="107.897">uses</text></g><!--link BusinessLogic to ExternalErrorHandler--><g id="link_BusinessLogic_ExternalErrorHandler"><path codeLine="64" d="M639.44,63.33 C644.88,88.3 651.7444,119.8772 658.1844,149.4772 " fill="none" id="BusinessLogic-to-ExternalErrorHandler" style="stroke:#181818;stroke-width:1.0;"/><polygon fill="#181818" points="659.46,155.34,661.4552,145.6954,658.397,150.4543,653.6381,147.3961,659.46,155.34" style="stroke:#181818;stroke-width:1.0;"/><text fill="#000000" font-family="sans-serif" font-size="13" lengthAdjust="spacing" textLength="27" x="649.5" y="107.897">uses</text></g><!--link ExternalErrorHandler to ExternalDependency--><g id="link_ExternalErrorHandler_ExternalDependency"><path codeLine="65" d="M669.5,249.6 C669.5,278.08 669.5,308.31 669.5,335.74 " fill="none" id="ExternalErrorHandler-to-ExternalDependency" style="stroke:#181818;stroke-width:1.0;"/><polygon fill="#181818" points="669.5,341.74,673.5,332.74,669.5,336.74,665.5,332.74,669.5,341.74" style="stroke:#181818;stroke-width:1.0;"/><text fill="#000000" font-family="sans-serif" font-size="13" lengthAdjust="spacing" textLength="47" x="670.5" y="307.897">handles</text></g><!--reverse link ExternalDependency to FileSystem--><g id="link_ExternalDependency_FileSystem"><path codeLine="66" d="M603.1498,437.4886 C593.1598,446.5986 596.62,444.55 588.5,455 C577.09,469.7 567.43,487.9 560.18,503.73 " fill="none" id="ExternalDependency-backto-FileSystem" style="stroke:#181818;stroke-width:1.0;"/><polygon fill="none" points="616.45,425.36,599.1069,433.0552,607.1926,441.922,616.45,425.36" style="stroke:#181818;stroke-width:1.0;"/><text fill="#000000" font-family="sans-serif" font-size="13" lengthAdjust="spacing" textLength="71" x="589.5" y="469.897">implements</text></g><!--reverse link ExternalDependency to Database--><g id="link_ExternalDependency_Database"><path codeLine="67" d="M669.5,443.08 C669.5,467.45 669.5,480.22 669.5,503.86 " fill="none" id="ExternalDependency-backto-Database" style="stroke:#181818;stroke-width:1.0;"/><polygon fill="none" points="669.5,425.08,663.5,443.08,675.5,443.08,669.5,425.08" style="stroke:#181818;stroke-width:1.0;"/><text fill="#000000" font-family="sans-serif" font-size="13" lengthAdjust="spacing" textLength="71" x="670.5" y="469.897">implements</text></g><!--reverse link ExternalDependency to Network--><g id="link_ExternalDependency_Network"><path codeLine="68" d="M732.1429,436.9226 C742.9429,446.4426 740.6,444.87 750.5,455 C765.33,470.18 780.53,488.1 793.03,503.6 " fill="none" id="ExternalDependency-backto-Network" style="stroke:#181818;stroke-width:1.0;"/><polygon fill="none" points="718.64,425.02,728.1754,441.4235,736.1104,432.4216,718.64,425.02" style="stroke:#181818;stroke-width:1.0;"/><text fill="#000000" font-family="sans-serif" font-size="13" lengthAdjust="spacing" textLength="71" x="767.5" y="469.897">implements</text></g><!--SRC=[ZLF1ZjCm4BttAoouTBL4Uw-Y7D22M0bsLmN1sNMcpO1ZXncdkn7mLNm2FyR4ZTEqf19LLQcUzzxulHbNM8A2kWcTgg7U0F6YweyCah6mM1YhcTKR8ayVjDCxgC45zMEXv9Fdw0BGLXieYiMl1Bxh3vssaVHEkz823OoNKWSAodXNOa3lr4hQCejkh5_ljSLI1tWa636yR3Jf6aILhqvXTswl2RKBlEGW_y_AZvx3H8Q0Mnkk-fiw7q1Ps8Q3aKqHBmkin7f3VYVzjC4_lrr-ioaI9iVYSrGs8YTOaLO7G_aD5YCoKxToLnFqnWe8d6Yo5dbh_L2_zqhyjGrGn0odoVD1_PN2P4uGu4hLttaSoFF5ZAy3TShtshthBnYg1Bw5HdJ0cMuv16LqC9Mg8ZzABQ7_7QfR59Bjb2o2Tcsp1lOj6U3bCKB2NJMN8NmLVtC1Vg8kYrspGVqikWVJ4abcyfKvbAs98aDnFHEQrNt0_Im2kfsOG_tYdxXUjuoIAR_tEpGf9tWMkG0FAQg3hTDyZv7DxdpKyNC2Rz72nuu3rAaTWIxxqvJz4s60uM2atMfP6ysGI6BBoIebplSMg9lYxo4yUVgMu2oNNOEWUAJ8KW7kGORNo1iOcfs_v_ndbis_svN2kh4HnVEqsLKyePscdsN5fLOjmnpwGeU8dgrDIPC9hePDFx8cnUXbChLJunVmuxZ-2vs6DGN_1G00]--></g></svg>