<?xml version="1.0" encoding="us-ascii" standalone="no"?><svg xmlns="http://www.w3.org/2000/svg" xmlns:xlink="http://www.w3.org/1999/xlink" contentStyleType="text/css" height="953px" preserveAspectRatio="none" style="width:444px;height:953px;background:#FFFFFF;" version="1.1" viewBox="0 0 444 953" width="444px" zoomAndPan="magnify"><defs/><g><ellipse cx="191" cy="16" fill="#222222" rx="10" ry="10" style="stroke:#222222;stroke-width:1.0;"/><g id="Esperando"><rect fill="#F1F1F1" height="50" rx="12.5" ry="12.5" style="stroke:#181818;stroke-width:0.5;" width="92" x="145" y="105"/><line style="stroke:#181818;stroke-width:0.5;" x1="145" x2="237" y1="134.0679" y2="134.0679"/><text fill="#000000" font-family="sans-serif" font-size="14" lengthAdjust="spacing" textLength="72" x="155" y="124.9659">Esperando</text></g><g id="NodoSinProcesar"><rect fill="#F1F1F1" height="55.412" rx="12.5" ry="12.5" style="stroke:#181818;stroke-width:0.5;" width="135" x="123.5" y="252"/><line style="stroke:#181818;stroke-width:0.5;" x1="123.5" x2="258.5" y1="281.0679" y2="281.0679"/><text fill="#000000" font-family="sans-serif" font-size="14" lengthAdjust="spacing" textLength="115" x="133.5" y="271.9659">NodoSinProcesar</text><text fill="#000000" font-family="sans-serif" font-size="12" lengthAdjust="spacing" textLength="109" x="128.5" y="298.896">Tomar primer nodo</text></g><g id="NodoVisitado"><rect fill="#F1F1F1" height="50" rx="12.5" ry="12.5" style="stroke:#181818;stroke-width:0.5;" width="109" x="59.5" y="386"/><line style="stroke:#181818;stroke-width:0.5;" x1="59.5" x2="168.5" y1="415.0679" y2="415.0679"/><text fill="#000000" font-family="sans-serif" font-size="14" lengthAdjust="spacing" textLength="89" x="69.5" y="405.9659">NodoVisitado</text></g><g id="elem_Llego"><polygon fill="#F1F1F1" points="114,533,126,545,114,557,102,545,114,533" style="stroke:#181818;stroke-width:0.5;"/></g><g id="NodoMeta"><rect fill="#F1F1F1" height="50" rx="12.5" ry="12.5" style="stroke:#181818;stroke-width:0.5;" width="90" x="7" y="716"/><line style="stroke:#181818;stroke-width:0.5;" x1="7" x2="97" y1="745.0679" y2="745.0679"/><text fill="#000000" font-family="sans-serif" font-size="14" lengthAdjust="spacing" textLength="70" x="17" y="735.9659">NodoMeta</text></g><g id="AnalizandoVecinos"><rect fill="#F1F1F1" height="50" rx="12.5" ry="12.5" style="stroke:#181818;stroke-width:0.5;" width="146" x="181" y="636"/><line style="stroke:#181818;stroke-width:0.5;" x1="181" x2="327" y1="665.0679" y2="665.0679"/><text fill="#000000" font-family="sans-serif" font-size="14" lengthAdjust="spacing" textLength="126" x="191" y="655.9659">AnalizandoVecinos</text></g><g id="SinCamino"><rect fill="#F1F1F1" height="50" rx="12.5" ry="12.5" style="stroke:#181818;stroke-width:0.5;" width="92" x="208" y="796"/><line style="stroke:#181818;stroke-width:0.5;" x1="208" x2="300" y1="825.0679" y2="825.0679"/><text fill="#000000" font-family="sans-serif" font-size="14" lengthAdjust="spacing" textLength="72" x="218" y="815.9659">SinCamino</text></g><ellipse cx="81" cy="936" fill="none" rx="11" ry="11" style="stroke:#222222;stroke-width:1.0;"/><ellipse cx="81" cy="936" fill="#222222" rx="6" ry="6" style="stroke:#222222;stroke-width:1.0;"/><!--link *start* to Esperando--><g id="link_*start*_Esperando"><path d="M191,26.17 C191,43.2 191,74.23 191,98.89 " fill="none" id="*start*-to-Esperando" style="stroke:#181818;stroke-width:1.0;"/><polygon fill="#181818" points="191,104.89,195,95.89,191,99.89,187,95.89,191,104.89" style="stroke:#181818;stroke-width:1.0;"/><text fill="#000000" font-family="sans-serif" font-size="13" lengthAdjust="spacing" textLength="99" x="192" y="70.897">Iniciar b&#250;squeda</text></g><!--link Esperando to NodoSinProcesar--><g id="link_Esperando_NodoSinProcesar"><path d="M191,155.03 C191,181.64 191,218.42 191,245.99 " fill="none" id="Esperando-to-NodoSinProcesar" style="stroke:#181818;stroke-width:1.0;"/><polygon fill="#181818" points="191,251.99,195,242.99,191,246.99,187,242.99,191,251.99" style="stroke:#181818;stroke-width:1.0;"/><text fill="#000000" font-family="sans-serif" font-size="13" lengthAdjust="spacing" textLength="66" x="214.5" y="199.897">Crear pila e</text><text fill="#000000" font-family="sans-serif" font-size="13" lengthAdjust="spacing" textLength="111" x="192" y="217.603">Inicializar visitados</text></g><!--link NodoSinProcesar to NodoVisitado--><g id="link_NodoSinProcesar_NodoVisitado"><path d="M138.01,307.07 C127.16,315.13 117.18,325.07 111,337 C103.3,351.87 103.2252,364.9145 106.0352,379.7745 " fill="none" id="NodoSinProcesar-to-NodoVisitado" style="stroke:#181818;stroke-width:1.0;"/><polygon fill="#181818" points="107.15,385.67,109.4081,376.0835,106.221,380.7571,101.5474,377.5699,107.15,385.67" style="stroke:#181818;stroke-width:1.0;"/><text fill="#000000" font-family="sans-serif" font-size="13" lengthAdjust="spacing" textLength="129" x="112" y="351.897">Marcar como visitado</text></g><!--link NodoVisitado to Llego--><g id="link_NodoVisitado_Llego"><path d="M114,436.21 C114,464.94 114,505.62 114,526.85 " fill="none" id="NodoVisitado-to-Llego" style="stroke:#181818;stroke-width:1.0;"/><polygon fill="#181818" points="114,532.85,118,523.85,114,527.85,110,523.85,114,532.85" style="stroke:#181818;stroke-width:1.0;"/></g><!--link Llego to NodoMeta--><g id="link_Llego_NodoMeta"><path d="M106.42,549.81 C95.15,555.92 74.31,569.09 65,587 C43.54,628.27 44.6773,678.4024 47.9673,709.9324 " fill="none" id="Llego-to-NodoMeta" style="stroke:#181818;stroke-width:1.0;"/><polygon fill="#181818" points="48.59,715.9,51.6344,706.5335,48.0711,710.927,43.6776,707.3637,48.59,715.9" style="stroke:#181818;stroke-width:1.0;"/><text fill="#000000" font-family="sans-serif" font-size="13" lengthAdjust="spacing" textLength="67" x="66" y="601.897">Es destino?</text></g><!--link Llego to AnalizandoVecinos--><g id="link_Llego_AnalizandoVecinos"><path d="M118.04,553.43 C124.94,565.61 140.02,590.06 158,606 C170.88,617.42 181.3184,624.5781 196.2484,632.8281 " fill="none" id="Llego-to-AnalizandoVecinos" style="stroke:#181818;stroke-width:1.0;"/><polygon fill="#181818" points="201.5,635.73,195.5573,627.8761,197.1237,633.3117,191.688,634.8782,201.5,635.73" style="stroke:#181818;stroke-width:1.0;"/><text fill="#000000" font-family="sans-serif" font-size="13" lengthAdjust="spacing" textLength="82" x="159" y="601.897">No es destino</text></g><!--link AnalizandoVecinos to NodoSinProcesar--><g id="link_AnalizandoVecinos_NodoSinProcesar"><path d="M259.19,635.66 C269.82,580.08 289.63,440.66 246,337 C241.33,325.9 237.5901,320.0151 229.1501,311.4851 " fill="none" id="AnalizandoVecinos-to-NodoSinProcesar" style="stroke:#181818;stroke-width:1.0;"/><polygon fill="#181818" points="224.93,307.22,228.4167,316.431,228.4467,310.7742,234.1035,310.8042,224.93,307.22" style="stroke:#181818;stroke-width:1.0;"/><text fill="#000000" font-family="sans-serif" font-size="13" lengthAdjust="spacing" textLength="162" x="274" y="480.897">A&#241;adir vecinos no visitados</text><text fill="#000000" font-family="sans-serif" font-size="13" lengthAdjust="spacing" textLength="152" x="279" y="498.603">a la pila y tomar siguiente</text></g><!--link AnalizandoVecinos to SinCamino--><g id="link_AnalizandoVecinos_SinCamino"><path d="M254,686.34 C254,716.12 254,760.22 254,789.89 " fill="none" id="AnalizandoVecinos-to-SinCamino" style="stroke:#181818;stroke-width:1.0;"/><polygon fill="#181818" points="254,795.89,258,786.89,254,790.89,250,786.89,254,795.89" style="stroke:#181818;stroke-width:1.0;"/><text fill="#000000" font-family="sans-serif" font-size="13" lengthAdjust="spacing" textLength="115" x="255" y="737.397">No quedan vecinos</text><text fill="#000000" font-family="sans-serif" font-size="13" lengthAdjust="spacing" textLength="64" x="280.5" y="755.103">y pila vac&#237;a</text></g><!--link NodoMeta to *end*--><g id="link_NodoMeta_*end*"><path d="M55.61,766.05 C61.99,808.49 74.0996,889.0564 78.5596,918.7764 " fill="none" id="NodoMeta-to-*end*" style="stroke:#181818;stroke-width:1.0;"/><polygon fill="#181818" points="79.45,924.71,82.0701,915.216,78.708,919.7654,74.1586,916.4033,79.45,924.71" style="stroke:#181818;stroke-width:1.0;"/><text fill="#000000" font-family="sans-serif" font-size="13" lengthAdjust="spacing" textLength="119" x="69" y="826.397">Camino encontrado</text></g><!--link SinCamino to *end*--><g id="link_SinCamino_*end*"><path d="M216.89,846.24 C175.98,872.96 117.9439,910.8697 94.8639,925.9397 " fill="none" id="SinCamino-to-*end*" style="stroke:#181818;stroke-width:1.0;"/><polygon fill="#181818" points="89.84,929.22,99.5627,927.6488,94.0266,926.4864,95.1889,920.9502,89.84,929.22" style="stroke:#181818;stroke-width:1.0;"/><text fill="#000000" font-family="sans-serif" font-size="13" lengthAdjust="spacing" textLength="103" x="169" y="890.897">No existe camino</text></g><!--SRC=[VLBDIiD04BxtAUOiz0L2YPJYGR1IK7en7iRDK0UIsRgxBTPtyk3LQr_CoQJ9OYjU5hBVtyot0G1ukdg6wRI4cxYbW5Bx0cw57ME0b-DtVDjHZHFbWHqZopJtllOFBAlW7KKC1Im2gMxB3G9Lqliq_A5tUuwSiFPnOZuNoaVVTih0BGKGHNFc6NTCNfyi2rXYS0eut_enAEjZmaHmrz36mspcNZqxAiiyn-1ZnaOpg1SCOKjAMEZwK5DCBFxwZ3CNMrIRMPDJF1Og0nhvUPmBvjzLpezVMBCMTo99NYrMWg0LMyy7I5PTvCsEIHBz4w812sprquQpfvKXe993RxX7T_p4t_Ltsvk3_YtwokO19CvB2aFNetacTWsySzJsdI4_]--></g></svg>