<?xml version="1.0" encoding="us-ascii" standalone="no"?><svg xmlns="http://www.w3.org/2000/svg" xmlns:xlink="http://www.w3.org/1999/xlink" contentStyleType="text/css" height="399px" preserveAspectRatio="none" style="width:131px;height:399px;background:#FFFFFF;" version="1.1" viewBox="0 0 131 399" width="131px" zoomAndPan="magnify"><defs/><g><!--entity n1--><g id="elem_n1"><polygon fill="#F1F1F1" points="57,16,67,6,114,6,114,45.0679,104,55.0679,57,55.0679,57,16" style="stroke:#181818;stroke-width:0.5;"/><line style="stroke:#181818;stroke-width:0.5;" x1="104" x2="114" y1="16" y2="6"/><line style="stroke:#181818;stroke-width:0.5;" x1="57" x2="104" y1="16" y2="16"/><line style="stroke:#181818;stroke-width:0.5;" x1="104" x2="104" y1="16" y2="55.0679"/><text fill="#000000" font-family="sans-serif" font-size="14" lengthAdjust="spacing" textLength="17" x="72" y="40.9659">n1</text></g><!--entity n2--><g id="elem_n2"><polygon fill="#F1F1F1" points="16,125,26,115,73,115,73,154.0679,63,164.0679,16,164.0679,16,125" style="stroke:#181818;stroke-width:0.5;"/><line style="stroke:#181818;stroke-width:0.5;" x1="63" x2="73" y1="125" y2="115"/><line style="stroke:#181818;stroke-width:0.5;" x1="16" x2="63" y1="125" y2="125"/><line style="stroke:#181818;stroke-width:0.5;" x1="63" x2="63" y1="125" y2="164.0679"/><text fill="#000000" font-family="sans-serif" font-size="14" lengthAdjust="spacing" textLength="17" x="31" y="149.9659">n2</text></g><!--entity n3--><g id="elem_n3"><polygon fill="#F1F1F1" points="57,234,67,224,114,224,114,263.0679,104,273.0679,57,273.0679,57,234" style="stroke:#181818;stroke-width:0.5;"/><line style="stroke:#181818;stroke-width:0.5;" x1="104" x2="114" y1="234" y2="224"/><line style="stroke:#181818;stroke-width:0.5;" x1="57" x2="104" y1="234" y2="234"/><line style="stroke:#181818;stroke-width:0.5;" x1="104" x2="104" y1="234" y2="273.0679"/><text fill="#000000" font-family="sans-serif" font-size="14" lengthAdjust="spacing" textLength="17" x="72" y="258.9659">n3</text></g><!--entity n4--><g id="elem_n4"><polygon fill="#F1F1F1" points="57,343,67,333,114,333,114,372.0679,104,382.0679,57,382.0679,57,343" style="stroke:#181818;stroke-width:0.5;"/><line style="stroke:#181818;stroke-width:0.5;" x1="104" x2="114" y1="343" y2="333"/><line style="stroke:#181818;stroke-width:0.5;" x1="57" x2="104" y1="343" y2="343"/><line style="stroke:#181818;stroke-width:0.5;" x1="104" x2="104" y1="343" y2="382.0679"/><text fill="#000000" font-family="sans-serif" font-size="14" lengthAdjust="spacing" textLength="17" x="72" y="367.9659">n4</text></g><!--link n1 to n2--><g id="link_n1_n2"><path d="M76.4,55.25 C69.61,72.98 60.36,97.1 53.57,114.82 " fill="none" id="n1-n2" style="stroke:#181818;stroke-width:1.0;"/></g><!--link n1 to n3--><g id="link_n1_n3"><path d="M87.3,55.24 C88.47,71.94 89.9,94.82 90.5,115 C91.15,136.77 91.15,142.23 90.5,164 C89.9,184.18 88.47,207.06 87.3,223.76 " fill="none" id="n1-n3" style="stroke:#181818;stroke-width:1.0;"/></g><!--link n2 to n3--><g id="link_n2_n3"><path d="M53.6,164.25 C60.39,181.98 69.64,206.1 76.43,223.82 " fill="none" id="n2-n3" style="stroke:#181818;stroke-width:1.0;"/></g><!--link n3 to n4--><g id="link_n3_n4"><path d="M85.5,273.25 C85.5,290.98 85.5,315.1 85.5,332.82 " fill="none" id="n3-n4" style="stroke:#181818;stroke-width:1.0;"/></g><!--SRC=[oyjFILN8C-JA0zD6KDeOIfjmSUKPAkZgWcKW3A2K4OnX36QOS040]--></g></svg>