<?xml version="1.0" encoding="us-ascii" standalone="no"?><svg xmlns="http://www.w3.org/2000/svg" xmlns:xlink="http://www.w3.org/1999/xlink" contentStyleType="text/css" height="840px" preserveAspectRatio="none" style="width:466px;height:840px;background:#FFFFFF;" version="1.1" viewBox="0 0 466 840" width="466px" zoomAndPan="magnify"><defs/><g><!--entity opera--><g id="elem_opera"><polygon fill="#F1F1F1" points="178.5,16,188.5,6,279.5,6,279.5,45.0679,269.5,55.0679,178.5,55.0679,178.5,16" style="stroke:#181818;stroke-width:0.5;"/><line style="stroke:#181818;stroke-width:0.5;" x1="269.5" x2="279.5" y1="16" y2="6"/><line style="stroke:#181818;stroke-width:0.5;" x1="178.5" x2="269.5" y1="16" y2="16"/><line style="stroke:#181818;stroke-width:0.5;" x1="269.5" x2="269.5" y1="16" y2="55.0679"/><text fill="#000000" font-family="sans-serif" font-size="14" lengthAdjust="spacing" textLength="61" x="193.5" y="40.9659">Opera L1</text></g><!--entity callao--><g id="elem_callao"><polygon fill="#F1F1F1" points="179,144,189,134,279,134,279,173.0679,269,183.0679,179,183.0679,179,144" style="stroke:#181818;stroke-width:0.5;"/><line style="stroke:#181818;stroke-width:0.5;" x1="269" x2="279" y1="144" y2="134"/><line style="stroke:#181818;stroke-width:0.5;" x1="179" x2="269" y1="144" y2="144"/><line style="stroke:#181818;stroke-width:0.5;" x1="269" x2="269" y1="144" y2="183.0679"/><text fill="#000000" font-family="sans-serif" font-size="14" lengthAdjust="spacing" textLength="60" x="194" y="168.9659">Callao L1</text></g><!--entity sol1--><g id="elem_sol1"><polygon fill="#F1F1F1" points="189.5,272,199.5,262,268.5,262,268.5,301.0679,258.5,311.0679,189.5,311.0679,189.5,272" style="stroke:#181818;stroke-width:0.5;"/><line style="stroke:#181818;stroke-width:0.5;" x1="258.5" x2="268.5" y1="272" y2="262"/><line style="stroke:#181818;stroke-width:0.5;" x1="189.5" x2="258.5" y1="272" y2="272"/><line style="stroke:#181818;stroke-width:0.5;" x1="258.5" x2="258.5" y1="272" y2="311.0679"/><text fill="#000000" font-family="sans-serif" font-size="14" lengthAdjust="spacing" textLength="39" x="204.5" y="296.9659">Sol L1</text></g><!--entity sol3--><g id="elem_sol3"><polygon fill="#F1F1F1" points="335.5,400,345.5,390,414.5,390,414.5,429.0679,404.5,439.0679,335.5,439.0679,335.5,400" style="stroke:#181818;stroke-width:0.5;"/><line style="stroke:#181818;stroke-width:0.5;" x1="404.5" x2="414.5" y1="400" y2="390"/><line style="stroke:#181818;stroke-width:0.5;" x1="335.5" x2="404.5" y1="400" y2="400"/><line style="stroke:#181818;stroke-width:0.5;" x1="404.5" x2="404.5" y1="400" y2="439.0679"/><text fill="#000000" font-family="sans-serif" font-size="14" lengthAdjust="spacing" textLength="39" x="350.5" y="424.9659">Sol L3</text></g><!--entity trib1--><g id="elem_trib1"><polygon fill="#F1F1F1" points="16,400,26,390,132,390,132,429.0679,122,439.0679,16,439.0679,16,400" style="stroke:#181818;stroke-width:0.5;"/><line style="stroke:#181818;stroke-width:0.5;" x1="122" x2="132" y1="400" y2="390"/><line style="stroke:#181818;stroke-width:0.5;" x1="16" x2="122" y1="400" y2="400"/><line style="stroke:#181818;stroke-width:0.5;" x1="122" x2="122" y1="400" y2="439.0679"/><text fill="#000000" font-family="sans-serif" font-size="14" lengthAdjust="spacing" textLength="76" x="31" y="424.9659">Tribunal L1</text></g><!--entity trib2--><g id="elem_trib2"><polygon fill="#F1F1F1" points="155,528,165,518,271,518,271,557.0679,261,567.0679,155,567.0679,155,528" style="stroke:#181818;stroke-width:0.5;"/><line style="stroke:#181818;stroke-width:0.5;" x1="261" x2="271" y1="528" y2="518"/><line style="stroke:#181818;stroke-width:0.5;" x1="155" x2="261" y1="528" y2="528"/><line style="stroke:#181818;stroke-width:0.5;" x1="261" x2="261" y1="528" y2="567.0679"/><text fill="#000000" font-family="sans-serif" font-size="14" lengthAdjust="spacing" textLength="76" x="170" y="552.9659">Tribunal L2</text></g><!--entity bilbao--><g id="elem_bilbao"><polygon fill="#F1F1F1" points="18.5,528,28.5,518,119.5,518,119.5,557.0679,109.5,567.0679,18.5,567.0679,18.5,528" style="stroke:#181818;stroke-width:0.5;"/><line style="stroke:#181818;stroke-width:0.5;" x1="109.5" x2="119.5" y1="528" y2="518"/><line style="stroke:#181818;stroke-width:0.5;" x1="18.5" x2="109.5" y1="528" y2="528"/><line style="stroke:#181818;stroke-width:0.5;" x1="109.5" x2="109.5" y1="528" y2="567.0679"/><text fill="#000000" font-family="sans-serif" font-size="14" lengthAdjust="spacing" textLength="61" x="33.5" y="552.9659">Bilbao L1</text></g><!--entity noviciado--><g id="elem_noviciado"><polygon fill="#F1F1F1" points="167.5,400,177.5,390,292.5,390,292.5,429.0679,282.5,439.0679,167.5,439.0679,167.5,400" style="stroke:#181818;stroke-width:0.5;"/><line style="stroke:#181818;stroke-width:0.5;" x1="282.5" x2="292.5" y1="400" y2="390"/><line style="stroke:#181818;stroke-width:0.5;" x1="167.5" x2="282.5" y1="400" y2="400"/><line style="stroke:#181818;stroke-width:0.5;" x1="282.5" x2="282.5" y1="400" y2="439.0679"/><text fill="#000000" font-family="sans-serif" font-size="14" lengthAdjust="spacing" textLength="85" x="182.5" y="424.9659">Noviciado L2</text></g><!--entity quevedo--><g id="elem_quevedo"><polygon fill="#F1F1F1" points="153.5,656,163.5,646,272.5,646,272.5,685.0679,262.5,695.0679,153.5,695.0679,153.5,656" style="stroke:#181818;stroke-width:0.5;"/><line style="stroke:#181818;stroke-width:0.5;" x1="262.5" x2="272.5" y1="656" y2="646"/><line style="stroke:#181818;stroke-width:0.5;" x1="153.5" x2="262.5" y1="656" y2="656"/><line style="stroke:#181818;stroke-width:0.5;" x1="262.5" x2="262.5" y1="656" y2="695.0679"/><text fill="#000000" font-family="sans-serif" font-size="14" lengthAdjust="spacing" textLength="79" x="168.5" y="680.9659">Quevedo L2</text></g><!--entity canal--><g id="elem_canal"><polygon fill="#F1F1F1" points="164.5,784,174.5,774,261.5,774,261.5,813.0679,251.5,823.0679,164.5,823.0679,164.5,784" style="stroke:#181818;stroke-width:0.5;"/><line style="stroke:#181818;stroke-width:0.5;" x1="251.5" x2="261.5" y1="784" y2="774"/><line style="stroke:#181818;stroke-width:0.5;" x1="164.5" x2="251.5" y1="784" y2="784"/><line style="stroke:#181818;stroke-width:0.5;" x1="251.5" x2="251.5" y1="784" y2="823.0679"/><text fill="#000000" font-family="sans-serif" font-size="14" lengthAdjust="spacing" textLength="57" x="179.5" y="808.9659">Canal L2</text></g><!--entity moncloa--><g id="elem_moncloa"><polygon fill="#F1F1F1" points="317,144,327,134,433,134,433,173.0679,423,183.0679,317,183.0679,317,144" style="stroke:#181818;stroke-width:0.5;"/><line style="stroke:#181818;stroke-width:0.5;" x1="423" x2="433" y1="144" y2="134"/><line style="stroke:#181818;stroke-width:0.5;" x1="317" x2="423" y1="144" y2="144"/><line style="stroke:#181818;stroke-width:0.5;" x1="423" x2="423" y1="144" y2="183.0679"/><text fill="#000000" font-family="sans-serif" font-size="14" lengthAdjust="spacing" textLength="76" x="332" y="168.9659">Moncloa L3</text></g><!--entity ventura--><g id="elem_ventura"><polygon fill="#F1F1F1" points="319,272,329,262,431,262,431,301.0679,421,311.0679,319,311.0679,319,272" style="stroke:#181818;stroke-width:0.5;"/><line style="stroke:#181818;stroke-width:0.5;" x1="421" x2="431" y1="272" y2="262"/><line style="stroke:#181818;stroke-width:0.5;" x1="319" x2="421" y1="272" y2="272"/><line style="stroke:#181818;stroke-width:0.5;" x1="421" x2="421" y1="272" y2="311.0679"/><text fill="#000000" font-family="sans-serif" font-size="14" lengthAdjust="spacing" textLength="72" x="334" y="296.9659">Ventura L3</text></g><!--entity plazaEsp--><g id="elem_plazaEsp"><polygon fill="#F1F1F1" points="306.5,528,316.5,518,449.5,518,449.5,557.0679,439.5,567.0679,306.5,567.0679,306.5,528" style="stroke:#181818;stroke-width:0.5;"/><line style="stroke:#181818;stroke-width:0.5;" x1="439.5" x2="449.5" y1="528" y2="518"/><line style="stroke:#181818;stroke-width:0.5;" x1="306.5" x2="439.5" y1="528" y2="528"/><line style="stroke:#181818;stroke-width:0.5;" x1="439.5" x2="439.5" y1="528" y2="567.0679"/><text fill="#000000" font-family="sans-serif" font-size="14" lengthAdjust="spacing" textLength="103" x="321.5" y="552.9659">PlazaEspa&#241;a L3</text></g><!--link opera to callao--><g id="link_opera_callao"><path d="M229,55.2 C229,77.73 229,111.42 229,133.91 " fill="none" id="opera-callao" style="stroke:#181818;stroke-width:1.0;"/><text fill="#000000" font-family="sans-serif" font-size="13" lengthAdjust="spacing" textLength="33" x="230" y="99.897">4 min</text></g><!--link callao to sol1--><g id="link_callao_sol1"><path d="M229,183.2 C229,205.73 229,239.42 229,261.91 " fill="none" id="callao-sol1" style="stroke:#181818;stroke-width:1.0;"/><text fill="#000000" font-family="sans-serif" font-size="13" lengthAdjust="spacing" textLength="33" x="230" y="227.897">2 min</text></g><!--link sol1 to trib1--><g id="link_sol1_trib1"><path d="M199.85,311.2 C172.13,333.73 130.69,367.42 103.02,389.91 " fill="none" id="sol1-trib1" style="stroke:#181818;stroke-width:1.0;"/><text fill="#000000" font-family="sans-serif" font-size="13" lengthAdjust="spacing" textLength="33" x="162" y="355.897">2 min</text></g><!--link trib1 to bilbao--><g id="link_trib1_bilbao"><path d="M71.92,439.18 C71.18,448.47 70.43,459.23 70,469 C69.28,485.35 69.03,503.79 68.96,517.98 " fill="none" id="trib1-bilbao" style="stroke:#181818;stroke-width:1.0;"/><text fill="#000000" font-family="sans-serif" font-size="13" lengthAdjust="spacing" textLength="33" x="71" y="483.897">3 min</text></g><!--link noviciado to trib2--><g id="link_noviciado_trib2"><path d="M226.8,439.2 C223.76,461.73 219.22,495.42 216.18,517.91 " fill="none" id="noviciado-trib2" style="stroke:#181818;stroke-width:1.0;"/><text fill="#000000" font-family="sans-serif" font-size="13" lengthAdjust="spacing" textLength="33" x="223" y="483.897">5 min</text></g><!--link trib2 to quevedo--><g id="link_trib2_quevedo"><path d="M213,567.2 C213,589.73 213,623.42 213,645.91 " fill="none" id="trib2-quevedo" style="stroke:#181818;stroke-width:1.0;"/><text fill="#000000" font-family="sans-serif" font-size="13" lengthAdjust="spacing" textLength="33" x="214" y="611.897">5 min</text></g><!--link quevedo to canal--><g id="link_quevedo_canal"><path d="M213,695.2 C213,717.73 213,751.42 213,773.91 " fill="none" id="quevedo-canal" style="stroke:#181818;stroke-width:1.0;"/><text fill="#000000" font-family="sans-serif" font-size="13" lengthAdjust="spacing" textLength="33" x="214" y="739.897">4 min</text></g><!--link moncloa to ventura--><g id="link_moncloa_ventura"><path d="M375,183.2 C375,205.73 375,239.42 375,261.91 " fill="none" id="moncloa-ventura" style="stroke:#181818;stroke-width:1.0;"/><text fill="#000000" font-family="sans-serif" font-size="13" lengthAdjust="spacing" textLength="33" x="376" y="227.897">5 min</text></g><!--link ventura to sol3--><g id="link_ventura_sol3"><path d="M375,311.2 C375,333.73 375,367.42 375,389.91 " fill="none" id="ventura-sol3" style="stroke:#181818;stroke-width:1.0;"/><text fill="#000000" font-family="sans-serif" font-size="13" lengthAdjust="spacing" textLength="33" x="376" y="355.897">4 min</text></g><!--link sol3 to plazaEsp--><g id="link_sol3_plazaEsp"><path d="M375.56,439.2 C376.1,461.73 376.9,495.42 377.44,517.91 " fill="none" id="sol3-plazaEsp" style="stroke:#181818;stroke-width:1.0;"/><text fill="#000000" font-family="sans-serif" font-size="13" lengthAdjust="spacing" textLength="33" x="377" y="483.897">3 min</text></g><!--link sol1 to sol3--><g id="link_sol1_sol3"><path d="M256.46,311.2 C282.56,333.73 321.6,367.42 347.66,389.91 " fill="none" id="sol1-sol3" style="stroke:#181818;stroke-width:1.0;stroke-dasharray:7.0,7.0;"/><text fill="#000000" font-family="sans-serif" font-size="13" lengthAdjust="spacing" textLength="33" x="311" y="355.897">4 min</text></g><!--link trib1 to trib2--><g id="link_trib1_trib2"><path d="M100.14,439.2 C125,461.73 162.16,495.42 186.97,517.91 " fill="none" id="trib1-trib2" style="stroke:#181818;stroke-width:1.0;stroke-dasharray:7.0,7.0;"/><text fill="#000000" font-family="sans-serif" font-size="13" lengthAdjust="spacing" textLength="33" x="153" y="483.897">3 min</text></g><!--SRC=[RP5DReCm48Ntd6AKJUWYaO1smww9kal_e-m7y8BAyL08KPKxTT4pv69by8n3rMmGxtksn-zv3flpjpC82SHlz84taQFAmEovCIt29fa1Ta0in5YZjKZgbACIwvsiyeviCgMPqapejgsBtc7OS1XqyizBWvUAjwfjSHbVZ2gAvfeYXVZ-r5jDyKJ7kgon8ZtAAP05hxqvcelzwMM8Ehb4oM8oAODuPzhAwAX7SgKbrAXxByNS6NVess0UlHJpnU897xe6ppzXHIEC1wx9cQzw-7JXhQBnHM2na0V8uHRsjOkyOiuFa0zrCEL_PcF72aV1r7UO3u4ONvt7vMkHSawQmrqu9sKgtIaNwUyuLATNl3eWYwGlNYxjw44Y9LIcv_0_Csrg4c3RekiAQYlgVFRbyizM7ts04cJS-0i0]--></g></svg>