<?xml version="1.0" encoding="us-ascii" standalone="no"?><svg xmlns="http://www.w3.org/2000/svg" xmlns:xlink="http://www.w3.org/1999/xlink" contentStyleType="text/css" height="617px" preserveAspectRatio="none" style="width:450px;height:617px;background:#FFFFFF;" version="1.1" viewBox="0 0 450 617" width="450px" zoomAndPan="magnify"><defs/><g><!--entity opera--><g id="elem_opera"><polygon fill="#F1F1F1" points="181,16,191,6,282,6,282,45.0679,272,55.0679,181,55.0679,181,16" style="stroke:#181818;stroke-width:0.5;"/><line style="stroke:#181818;stroke-width:0.5;" x1="272" x2="282" y1="16" y2="6"/><line style="stroke:#181818;stroke-width:0.5;" x1="181" x2="272" y1="16" y2="16"/><line style="stroke:#181818;stroke-width:0.5;" x1="272" x2="272" y1="16" y2="55.0679"/><text fill="#000000" font-family="sans-serif" font-size="14" lengthAdjust="spacing" textLength="61" x="196" y="40.9659">Opera L1</text></g><!--entity callao--><g id="elem_callao"><polygon fill="#F1F1F1" points="182.5,125,192.5,115,282.5,115,282.5,154.0679,272.5,164.0679,182.5,164.0679,182.5,125" style="stroke:#181818;stroke-width:0.5;"/><line style="stroke:#181818;stroke-width:0.5;" x1="272.5" x2="282.5" y1="125" y2="115"/><line style="stroke:#181818;stroke-width:0.5;" x1="182.5" x2="272.5" y1="125" y2="125"/><line style="stroke:#181818;stroke-width:0.5;" x1="272.5" x2="272.5" y1="125" y2="164.0679"/><text fill="#000000" font-family="sans-serif" font-size="14" lengthAdjust="spacing" textLength="60" x="197.5" y="149.9659">Callao L1</text></g><!--entity sol--><g id="elem_sol"><polygon fill="#F1F1F1" points="250,234,260,224,357,224,357,263.0679,347,273.0679,250,273.0679,250,234" style="stroke:#181818;stroke-width:0.5;"/><line style="stroke:#181818;stroke-width:0.5;" x1="347" x2="357" y1="234" y2="224"/><line style="stroke:#181818;stroke-width:0.5;" x1="250" x2="347" y1="234" y2="234"/><line style="stroke:#181818;stroke-width:0.5;" x1="347" x2="347" y1="234" y2="273.0679"/><text fill="#000000" font-family="sans-serif" font-size="14" lengthAdjust="spacing" textLength="67" x="265" y="258.9659">Sol L1 / L3</text></g><!--entity tribunal--><g id="elem_tribunal"><polygon fill="#F1F1F1" points="66.5,343,76.5,333,210.5,333,210.5,372.0679,200.5,382.0679,66.5,382.0679,66.5,343" style="stroke:#181818;stroke-width:0.5;"/><line style="stroke:#181818;stroke-width:0.5;" x1="200.5" x2="210.5" y1="343" y2="333"/><line style="stroke:#181818;stroke-width:0.5;" x1="66.5" x2="200.5" y1="343" y2="343"/><line style="stroke:#181818;stroke-width:0.5;" x1="200.5" x2="200.5" y1="343" y2="382.0679"/><text fill="#000000" font-family="sans-serif" font-size="14" lengthAdjust="spacing" textLength="104" x="81.5" y="367.9659">Tribunal L1 / L2</text></g><!--entity bilbao--><g id="elem_bilbao"><polygon fill="#F1F1F1" points="16,452,26,442,117,442,117,481.0679,107,491.0679,16,491.0679,16,452" style="stroke:#181818;stroke-width:0.5;"/><line style="stroke:#181818;stroke-width:0.5;" x1="107" x2="117" y1="452" y2="442"/><line style="stroke:#181818;stroke-width:0.5;" x1="16" x2="107" y1="452" y2="452"/><line style="stroke:#181818;stroke-width:0.5;" x1="107" x2="107" y1="452" y2="491.0679"/><text fill="#000000" font-family="sans-serif" font-size="14" lengthAdjust="spacing" textLength="61" x="31" y="476.9659">Bilbao L1</text></g><!--entity noviciado--><g id="elem_noviciado"><polygon fill="#F1F1F1" points="76,234,86,224,201,224,201,263.0679,191,273.0679,76,273.0679,76,234" style="stroke:#181818;stroke-width:0.5;"/><line style="stroke:#181818;stroke-width:0.5;" x1="191" x2="201" y1="234" y2="224"/><line style="stroke:#181818;stroke-width:0.5;" x1="76" x2="191" y1="234" y2="234"/><line style="stroke:#181818;stroke-width:0.5;" x1="191" x2="191" y1="234" y2="273.0679"/><text fill="#000000" font-family="sans-serif" font-size="14" lengthAdjust="spacing" textLength="85" x="91" y="258.9659">Noviciado L2</text></g><!--entity quevedo--><g id="elem_quevedo"><polygon fill="#F1F1F1" points="152,452,162,442,271,442,271,481.0679,261,491.0679,152,491.0679,152,452" style="stroke:#181818;stroke-width:0.5;"/><line style="stroke:#181818;stroke-width:0.5;" x1="261" x2="271" y1="452" y2="442"/><line style="stroke:#181818;stroke-width:0.5;" x1="152" x2="261" y1="452" y2="452"/><line style="stroke:#181818;stroke-width:0.5;" x1="261" x2="261" y1="452" y2="491.0679"/><text fill="#000000" font-family="sans-serif" font-size="14" lengthAdjust="spacing" textLength="79" x="167" y="476.9659">Quevedo L2</text></g><!--entity canal--><g id="elem_canal"><polygon fill="#F1F1F1" points="163,561,173,551,260,551,260,590.0679,250,600.0679,163,600.0679,163,561" style="stroke:#181818;stroke-width:0.5;"/><line style="stroke:#181818;stroke-width:0.5;" x1="250" x2="260" y1="561" y2="551"/><line style="stroke:#181818;stroke-width:0.5;" x1="163" x2="250" y1="561" y2="561"/><line style="stroke:#181818;stroke-width:0.5;" x1="250" x2="250" y1="561" y2="600.0679"/><text fill="#000000" font-family="sans-serif" font-size="14" lengthAdjust="spacing" textLength="57" x="178" y="585.9659">Canal L2</text></g><!--entity moncloa--><g id="elem_moncloa"><polygon fill="#F1F1F1" points="317.5,16,327.5,6,433.5,6,433.5,45.0679,423.5,55.0679,317.5,55.0679,317.5,16" style="stroke:#181818;stroke-width:0.5;"/><line style="stroke:#181818;stroke-width:0.5;" x1="423.5" x2="433.5" y1="16" y2="6"/><line style="stroke:#181818;stroke-width:0.5;" x1="317.5" x2="423.5" y1="16" y2="16"/><line style="stroke:#181818;stroke-width:0.5;" x1="423.5" x2="423.5" y1="16" y2="55.0679"/><text fill="#000000" font-family="sans-serif" font-size="14" lengthAdjust="spacing" textLength="76" x="332.5" y="40.9659">Moncloa L3</text></g><!--entity ventura--><g id="elem_ventura"><polygon fill="#F1F1F1" points="318.5,125,328.5,115,430.5,115,430.5,154.0679,420.5,164.0679,318.5,164.0679,318.5,125" style="stroke:#181818;stroke-width:0.5;"/><line style="stroke:#181818;stroke-width:0.5;" x1="420.5" x2="430.5" y1="125" y2="115"/><line style="stroke:#181818;stroke-width:0.5;" x1="318.5" x2="420.5" y1="125" y2="125"/><line style="stroke:#181818;stroke-width:0.5;" x1="420.5" x2="420.5" y1="125" y2="164.0679"/><text fill="#000000" font-family="sans-serif" font-size="14" lengthAdjust="spacing" textLength="72" x="333.5" y="149.9659">Ventura L3</text></g><!--entity plazaEsp--><g id="elem_plazaEsp"><polygon fill="#F1F1F1" points="246,343,256,333,389,333,389,372.0679,379,382.0679,246,382.0679,246,343" style="stroke:#181818;stroke-width:0.5;"/><line style="stroke:#181818;stroke-width:0.5;" x1="379" x2="389" y1="343" y2="333"/><line style="stroke:#181818;stroke-width:0.5;" x1="246" x2="379" y1="343" y2="343"/><line style="stroke:#181818;stroke-width:0.5;" x1="379" x2="379" y1="343" y2="382.0679"/><text fill="#000000" font-family="sans-serif" font-size="14" lengthAdjust="spacing" textLength="103" x="261" y="367.9659">PlazaEspa&#241;a L3</text></g><!--link opera to callao--><g id="link_opera_callao"><path d="M231.72,55.25 C231.89,72.98 232.11,97.1 232.28,114.82 " fill="none" id="opera-callao" style="stroke:#181818;stroke-width:1.0;"/></g><!--link callao to sol--><g id="link_callao_sol"><path d="M248.26,164.25 C260.02,181.98 276.03,206.1 287.79,223.82 " fill="none" id="callao-sol" style="stroke:#181818;stroke-width:1.0;"/></g><!--link sol to tribunal--><g id="link_sol_tribunal"><path d="M266.88,273.25 C239.54,290.98 202.34,315.1 175.02,332.82 " fill="none" id="sol-tribunal" style="stroke:#181818;stroke-width:1.0;"/></g><!--link tribunal to bilbao--><g id="link_tribunal_bilbao"><path d="M122.52,382.25 C110.59,399.98 94.36,424.1 82.43,441.82 " fill="none" id="tribunal-bilbao" style="stroke:#181818;stroke-width:1.0;"/></g><!--link noviciado to tribunal--><g id="link_noviciado_tribunal"><path d="M138.5,273.25 C138.5,290.98 138.5,315.1 138.5,332.82 " fill="none" id="noviciado-tribunal" style="stroke:#181818;stroke-width:1.0;"/></g><!--link tribunal to quevedo--><g id="link_tribunal_quevedo"><path d="M154.7,382.25 C166.8,399.98 183.26,424.1 195.34,441.82 " fill="none" id="tribunal-quevedo" style="stroke:#181818;stroke-width:1.0;"/></g><!--link quevedo to canal--><g id="link_quevedo_canal"><path d="M211.5,491.25 C211.5,508.98 211.5,533.1 211.5,550.82 " fill="none" id="quevedo-canal" style="stroke:#181818;stroke-width:1.0;"/></g><!--link moncloa to ventura--><g id="link_moncloa_ventura"><path d="M375.28,55.25 C375.11,72.98 374.89,97.1 374.72,114.82 " fill="none" id="moncloa-ventura" style="stroke:#181818;stroke-width:1.0;"/></g><!--link ventura to sol--><g id="link_ventura_sol"><path d="M358.74,164.25 C346.98,181.98 330.97,206.1 319.21,223.82 " fill="none" id="ventura-sol" style="stroke:#181818;stroke-width:1.0;"/></g><!--link sol to plazaEsp--><g id="link_sol_plazaEsp"><path d="M306.61,273.25 C308.93,290.98 312.08,315.1 314.4,332.82 " fill="none" id="sol-plazaEsp" style="stroke:#181818;stroke-width:1.0;"/></g><!--SRC=[TP0x3i8m38RtdYBgNY7A3K1ivIKGkzjcY1JYaZu6RiKPk1YDOwSI4aFa_F_dn0-7hLRvgTCULBNE5VGAWyWSWHrO2oYa8SNeYdRsrKfL6u8zMYOtR-hHWU2IyC0cvsoDhPUFQrACZZYPna2ByjI9mGcNKKzwmSyeKyTKkUI6bue7T8r5a7OVKJAyQpUCFi4fIePd2o_OznrytYcZOo_BQ5sgA6GxCGGZR6G-uPgcbqimqzGoxxz4cP1ZB1QIU8XWICiSV-gdThy0]--></g></svg>