<?xml version="1.0" encoding="us-ascii" standalone="no"?><svg xmlns="http://www.w3.org/2000/svg" xmlns:xlink="http://www.w3.org/1999/xlink" contentStyleType="text/css" height="712px" preserveAspectRatio="none" style="width:469px;height:712px;background:#FFFFFF;" version="1.1" viewBox="0 0 469 712" width="469px" zoomAndPan="magnify"><defs/><g><!--entity opera--><g id="elem_opera"><polygon fill="#F1F1F1" points="16,16,26,6,117,6,117,45.0679,107,55.0679,16,55.0679,16,16" style="stroke:#181818;stroke-width:0.5;"/><line style="stroke:#181818;stroke-width:0.5;" x1="107" x2="117" y1="16" y2="6"/><line style="stroke:#181818;stroke-width:0.5;" x1="16" x2="107" y1="16" y2="16"/><line style="stroke:#181818;stroke-width:0.5;" x1="107" x2="107" y1="16" y2="55.0679"/><text fill="#000000" font-family="sans-serif" font-size="14" lengthAdjust="spacing" textLength="61" x="31" y="40.9659">Opera L1</text></g><!--entity callao--><g id="elem_callao"><polygon fill="#F1F1F1" points="17.5,144,27.5,134,117.5,134,117.5,173.0679,107.5,183.0679,17.5,183.0679,17.5,144" style="stroke:#181818;stroke-width:0.5;"/><line style="stroke:#181818;stroke-width:0.5;" x1="107.5" x2="117.5" y1="144" y2="134"/><line style="stroke:#181818;stroke-width:0.5;" x1="17.5" x2="107.5" y1="144" y2="144"/><line style="stroke:#181818;stroke-width:0.5;" x1="107.5" x2="107.5" y1="144" y2="183.0679"/><text fill="#000000" font-family="sans-serif" font-size="14" lengthAdjust="spacing" textLength="60" x="32.5" y="168.9659">Callao L1</text></g><!--entity sol--><g id="elem_sol"><polygon fill="#F1F1F1" points="84,272,94,262,191,262,191,301.0679,181,311.0679,84,311.0679,84,272" style="stroke:#181818;stroke-width:0.5;"/><line style="stroke:#181818;stroke-width:0.5;" x1="181" x2="191" y1="272" y2="262"/><line style="stroke:#181818;stroke-width:0.5;" x1="84" x2="181" y1="272" y2="272"/><line style="stroke:#181818;stroke-width:0.5;" x1="181" x2="181" y1="272" y2="311.0679"/><text fill="#000000" font-family="sans-serif" font-size="14" lengthAdjust="spacing" textLength="67" x="99" y="296.9659">Sol L1 / L3</text></g><!--entity tribunal--><g id="elem_tribunal"><polygon fill="#F1F1F1" points="230.5,400,240.5,390,374.5,390,374.5,429.0679,364.5,439.0679,230.5,439.0679,230.5,400" style="stroke:#181818;stroke-width:0.5;"/><line style="stroke:#181818;stroke-width:0.5;" x1="364.5" x2="374.5" y1="400" y2="390"/><line style="stroke:#181818;stroke-width:0.5;" x1="230.5" x2="364.5" y1="400" y2="400"/><line style="stroke:#181818;stroke-width:0.5;" x1="364.5" x2="364.5" y1="400" y2="439.0679"/><text fill="#000000" font-family="sans-serif" font-size="14" lengthAdjust="spacing" textLength="104" x="245.5" y="424.9659">Tribunal L1 / L2</text></g><!--entity bilbao--><g id="elem_bilbao"><polygon fill="#F1F1F1" points="197,528,207,518,298,518,298,557.0679,288,567.0679,197,567.0679,197,528" style="stroke:#181818;stroke-width:0.5;"/><line style="stroke:#181818;stroke-width:0.5;" x1="288" x2="298" y1="528" y2="518"/><line style="stroke:#181818;stroke-width:0.5;" x1="197" x2="288" y1="528" y2="528"/><line style="stroke:#181818;stroke-width:0.5;" x1="288" x2="288" y1="528" y2="567.0679"/><text fill="#000000" font-family="sans-serif" font-size="14" lengthAdjust="spacing" textLength="61" x="212" y="552.9659">Bilbao L1</text></g><!--entity noviciado--><g id="elem_noviciado"><polygon fill="#F1F1F1" points="240,272,250,262,365,262,365,301.0679,355,311.0679,240,311.0679,240,272" style="stroke:#181818;stroke-width:0.5;"/><line style="stroke:#181818;stroke-width:0.5;" x1="355" x2="365" y1="272" y2="262"/><line style="stroke:#181818;stroke-width:0.5;" x1="240" x2="355" y1="272" y2="272"/><line style="stroke:#181818;stroke-width:0.5;" x1="355" x2="355" y1="272" y2="311.0679"/><text fill="#000000" font-family="sans-serif" font-size="14" lengthAdjust="spacing" textLength="85" x="255" y="296.9659">Noviciado L2</text></g><!--entity quevedo--><g id="elem_quevedo"><polygon fill="#F1F1F1" points="333,528,343,518,452,518,452,557.0679,442,567.0679,333,567.0679,333,528" style="stroke:#181818;stroke-width:0.5;"/><line style="stroke:#181818;stroke-width:0.5;" x1="442" x2="452" y1="528" y2="518"/><line style="stroke:#181818;stroke-width:0.5;" x1="333" x2="442" y1="528" y2="528"/><line style="stroke:#181818;stroke-width:0.5;" x1="442" x2="442" y1="528" y2="567.0679"/><text fill="#000000" font-family="sans-serif" font-size="14" lengthAdjust="spacing" textLength="79" x="348" y="552.9659">Quevedo L2</text></g><!--entity canal--><g id="elem_canal"><polygon fill="#F1F1F1" points="344,656,354,646,441,646,441,685.0679,431,695.0679,344,695.0679,344,656" style="stroke:#181818;stroke-width:0.5;"/><line style="stroke:#181818;stroke-width:0.5;" x1="431" x2="441" y1="656" y2="646"/><line style="stroke:#181818;stroke-width:0.5;" x1="344" x2="431" y1="656" y2="656"/><line style="stroke:#181818;stroke-width:0.5;" x1="431" x2="431" y1="656" y2="695.0679"/><text fill="#000000" font-family="sans-serif" font-size="14" lengthAdjust="spacing" textLength="57" x="359" y="680.9659">Canal L2</text></g><!--entity moncloa--><g id="elem_moncloa"><polygon fill="#F1F1F1" points="152.5,16,162.5,6,268.5,6,268.5,45.0679,258.5,55.0679,152.5,55.0679,152.5,16" style="stroke:#181818;stroke-width:0.5;"/><line style="stroke:#181818;stroke-width:0.5;" x1="258.5" x2="268.5" y1="16" y2="6"/><line style="stroke:#181818;stroke-width:0.5;" x1="152.5" x2="258.5" y1="16" y2="16"/><line style="stroke:#181818;stroke-width:0.5;" x1="258.5" x2="258.5" y1="16" y2="55.0679"/><text fill="#000000" font-family="sans-serif" font-size="14" lengthAdjust="spacing" textLength="76" x="167.5" y="40.9659">Moncloa L3</text></g><!--entity ventura--><g id="elem_ventura"><polygon fill="#F1F1F1" points="153.5,144,163.5,134,265.5,134,265.5,173.0679,255.5,183.0679,153.5,183.0679,153.5,144" style="stroke:#181818;stroke-width:0.5;"/><line style="stroke:#181818;stroke-width:0.5;" x1="255.5" x2="265.5" y1="144" y2="134"/><line style="stroke:#181818;stroke-width:0.5;" x1="153.5" x2="255.5" y1="144" y2="144"/><line style="stroke:#181818;stroke-width:0.5;" x1="255.5" x2="255.5" y1="144" y2="183.0679"/><text fill="#000000" font-family="sans-serif" font-size="14" lengthAdjust="spacing" textLength="72" x="168.5" y="168.9659">Ventura L3</text></g><!--entity plazaEsp--><g id="elem_plazaEsp"><polygon fill="#F1F1F1" points="52,400,62,390,195,390,195,429.0679,185,439.0679,52,439.0679,52,400" style="stroke:#181818;stroke-width:0.5;"/><line style="stroke:#181818;stroke-width:0.5;" x1="185" x2="195" y1="400" y2="390"/><line style="stroke:#181818;stroke-width:0.5;" x1="52" x2="185" y1="400" y2="400"/><line style="stroke:#181818;stroke-width:0.5;" x1="185" x2="185" y1="400" y2="439.0679"/><text fill="#000000" font-family="sans-serif" font-size="14" lengthAdjust="spacing" textLength="103" x="67" y="424.9659">PlazaEspa&#241;a L3</text></g><!--link opera to callao--><g id="link_opera_callao"><path d="M66.69,55.2 C66.87,77.73 67.13,111.42 67.31,133.91 " fill="none" id="opera-callao" style="stroke:#181818;stroke-width:1.0;"/><text fill="#000000" font-family="sans-serif" font-size="13" lengthAdjust="spacing" textLength="33" x="68.5" y="99.897">4 min</text></g><!--link callao to sol--><g id="link_callao_sol"><path d="M80.67,183.2 C93.18,205.73 111.9,239.42 124.39,261.91 " fill="none" id="callao-sol" style="stroke:#181818;stroke-width:1.0;"/><text fill="#000000" font-family="sans-serif" font-size="13" lengthAdjust="spacing" textLength="33" x="108.5" y="227.897">2 min</text></g><!--link sol to tribunal--><g id="link_sol_tribunal"><path d="M168.54,311.2 C198.03,333.73 242.15,367.42 271.6,389.91 " fill="none" id="sol-tribunal" style="stroke:#181818;stroke-width:1.0;"/><text fill="#000000" font-family="sans-serif" font-size="13" lengthAdjust="spacing" textLength="33" x="230.5" y="355.897">2 min</text></g><!--link tribunal to bilbao--><g id="link_tribunal_bilbao"><path d="M292.15,439.2 C282.32,461.73 267.62,495.42 257.8,517.91 " fill="none" id="tribunal-bilbao" style="stroke:#181818;stroke-width:1.0;"/><text fill="#000000" font-family="sans-serif" font-size="13" lengthAdjust="spacing" textLength="33" x="278.5" y="483.897">3 min</text></g><!--link noviciado to tribunal--><g id="link_noviciado_tribunal"><path d="M302.5,311.2 C302.5,333.73 302.5,367.42 302.5,389.91 " fill="none" id="noviciado-tribunal" style="stroke:#181818;stroke-width:1.0;"/><text fill="#000000" font-family="sans-serif" font-size="13" lengthAdjust="spacing" textLength="33" x="303.5" y="355.897">5 min</text></g><!--link tribunal to quevedo--><g id="link_tribunal_quevedo"><path d="M319.43,439.2 C335.52,461.73 359.58,495.42 375.65,517.91 " fill="none" id="tribunal-quevedo" style="stroke:#181818;stroke-width:1.0;"/><text fill="#000000" font-family="sans-serif" font-size="13" lengthAdjust="spacing" textLength="33" x="353.5" y="483.897">5 min</text></g><!--link quevedo to canal--><g id="link_quevedo_canal"><path d="M392.5,567.2 C392.5,589.73 392.5,623.42 392.5,645.91 " fill="none" id="quevedo-canal" style="stroke:#181818;stroke-width:1.0;"/><text fill="#000000" font-family="sans-serif" font-size="13" lengthAdjust="spacing" textLength="33" x="393.5" y="611.897">4 min</text></g><!--link moncloa to ventura--><g id="link_moncloa_ventura"><path d="M210.31,55.2 C210.13,77.73 209.87,111.42 209.69,133.91 " fill="none" id="moncloa-ventura" style="stroke:#181818;stroke-width:1.0;"/><text fill="#000000" font-family="sans-serif" font-size="13" lengthAdjust="spacing" textLength="33" x="210.5" y="99.897">5 min</text></g><!--link ventura to sol--><g id="link_ventura_sol"><path d="M195.96,183.2 C183.08,205.73 163.83,239.42 150.98,261.91 " fill="none" id="ventura-sol" style="stroke:#181818;stroke-width:1.0;"/><text fill="#000000" font-family="sans-serif" font-size="13" lengthAdjust="spacing" textLength="33" x="179.5" y="227.897">4 min</text></g><!--link sol to plazaEsp--><g id="link_sol_plazaEsp"><path d="M134.87,311.2 C132.36,333.73 128.62,367.42 126.12,389.91 " fill="none" id="sol-plazaEsp" style="stroke:#181818;stroke-width:1.0;"/><text fill="#000000" font-family="sans-serif" font-size="13" lengthAdjust="spacing" textLength="33" x="132.5" y="355.897">3 min</text></g><!--SRC=[PP0zRiCm38LtduB87WHrqiLZYcxvHOhkjAr1W2mwTkmXjyePSh5Q52adwERtFj9wV9vg0ujZQpg4tSS2i0SA8lCClj0v92KLAq4NSfCFAzYj6VRaXFnqjXmyAiuPtyIKcQrrvVpZafMW0ussibYJhderPE0ycD7C-1fbIimlvn9uVd5FldA46hU9Kk2lyRUXIt2CKk39uHs_-nQVZpJHYfTbN1Sibz9E0HjehC-Y2lvKJ04vczDdSBGBjLK75gieOCqadVw-zlblJKfG93B6ufMOIguEljoe6o9JuCrhOBrMO_q1]--></g></svg>