<?xml version="1.0" encoding="us-ascii" standalone="no"?><svg xmlns="http://www.w3.org/2000/svg" xmlns:xlink="http://www.w3.org/1999/xlink" contentStyleType="text/css" height="508px" preserveAspectRatio="none" style="width:602px;height:508px;background:#FFFFFF;" version="1.1" viewBox="0 0 602 508" width="602px" zoomAndPan="magnify"><defs/><g><!--entity n1--><g id="elem_n1"><polygon fill="#F1F1F1" points="151,16,161,6,208,6,208,45.0679,198,55.0679,151,55.0679,151,16" style="stroke:#181818;stroke-width:0.5;"/><line style="stroke:#181818;stroke-width:0.5;" x1="198" x2="208" y1="16" y2="6"/><line style="stroke:#181818;stroke-width:0.5;" x1="151" x2="198" y1="16" y2="16"/><line style="stroke:#181818;stroke-width:0.5;" x1="198" x2="198" y1="16" y2="55.0679"/><text fill="#000000" font-family="sans-serif" font-size="14" lengthAdjust="spacing" textLength="17" x="166" y="40.9659">n1</text></g><!--entity n2--><g id="elem_n2"><polygon fill="#F1F1F1" points="92,125,102,115,149,115,149,154.0679,139,164.0679,92,164.0679,92,125" style="stroke:#181818;stroke-width:0.5;"/><line style="stroke:#181818;stroke-width:0.5;" x1="139" x2="149" y1="125" y2="115"/><line style="stroke:#181818;stroke-width:0.5;" x1="92" x2="139" y1="125" y2="125"/><line style="stroke:#181818;stroke-width:0.5;" x1="139" x2="139" y1="125" y2="164.0679"/><text fill="#000000" font-family="sans-serif" font-size="14" lengthAdjust="spacing" textLength="17" x="107" y="149.9659">n2</text></g><!--entity n3--><g id="elem_n3"><polygon fill="#F1F1F1" points="16,234,26,224,73,224,73,263.0679,63,273.0679,16,273.0679,16,234" style="stroke:#181818;stroke-width:0.5;"/><line style="stroke:#181818;stroke-width:0.5;" x1="63" x2="73" y1="234" y2="224"/><line style="stroke:#181818;stroke-width:0.5;" x1="16" x2="63" y1="234" y2="234"/><line style="stroke:#181818;stroke-width:0.5;" x1="63" x2="63" y1="234" y2="273.0679"/><text fill="#000000" font-family="sans-serif" font-size="14" lengthAdjust="spacing" textLength="17" x="31" y="258.9659">n3</text></g><!--entity n4--><g id="elem_n4"><polygon fill="#F1F1F1" points="92,343,102,333,149,333,149,372.0679,139,382.0679,92,382.0679,92,343" style="stroke:#181818;stroke-width:0.5;"/><line style="stroke:#181818;stroke-width:0.5;" x1="139" x2="149" y1="343" y2="333"/><line style="stroke:#181818;stroke-width:0.5;" x1="92" x2="139" y1="343" y2="343"/><line style="stroke:#181818;stroke-width:0.5;" x1="139" x2="139" y1="343" y2="382.0679"/><text fill="#000000" font-family="sans-serif" font-size="14" lengthAdjust="spacing" textLength="17" x="107" y="367.9659">n4</text></g><!--entity n5--><g id="elem_n5"><polygon fill="#F1F1F1" points="133,452,143,442,190,442,190,481.0679,180,491.0679,133,491.0679,133,452" style="stroke:#181818;stroke-width:0.5;"/><line style="stroke:#181818;stroke-width:0.5;" x1="180" x2="190" y1="452" y2="442"/><line style="stroke:#181818;stroke-width:0.5;" x1="133" x2="180" y1="452" y2="452"/><line style="stroke:#181818;stroke-width:0.5;" x1="180" x2="180" y1="452" y2="491.0679"/><text fill="#000000" font-family="sans-serif" font-size="14" lengthAdjust="spacing" textLength="17" x="148" y="476.9659">n5</text></g><!--entity n10--><g id="elem_n10"><polygon fill="#F1F1F1" points="279,16,289,6,344,6,344,45.0679,334,55.0679,279,55.0679,279,16" style="stroke:#181818;stroke-width:0.5;"/><line style="stroke:#181818;stroke-width:0.5;" x1="334" x2="344" y1="16" y2="6"/><line style="stroke:#181818;stroke-width:0.5;" x1="279" x2="334" y1="16" y2="16"/><line style="stroke:#181818;stroke-width:0.5;" x1="334" x2="334" y1="16" y2="55.0679"/><text fill="#000000" font-family="sans-serif" font-size="14" lengthAdjust="spacing" textLength="25" x="294" y="40.9659">n10</text></g><!--entity n11--><g id="elem_n11"><polygon fill="#F1F1F1" points="256,125,266,115,321,115,321,154.0679,311,164.0679,256,164.0679,256,125" style="stroke:#181818;stroke-width:0.5;"/><line style="stroke:#181818;stroke-width:0.5;" x1="311" x2="321" y1="125" y2="115"/><line style="stroke:#181818;stroke-width:0.5;" x1="256" x2="311" y1="125" y2="125"/><line style="stroke:#181818;stroke-width:0.5;" x1="311" x2="311" y1="125" y2="164.0679"/><text fill="#000000" font-family="sans-serif" font-size="14" lengthAdjust="spacing" textLength="25" x="271" y="149.9659">n11</text></g><!--entity n12--><g id="elem_n12"><polygon fill="#F1F1F1" points="299,234,309,224,364,224,364,263.0679,354,273.0679,299,273.0679,299,234" style="stroke:#181818;stroke-width:0.5;"/><line style="stroke:#181818;stroke-width:0.5;" x1="354" x2="364" y1="234" y2="224"/><line style="stroke:#181818;stroke-width:0.5;" x1="299" x2="354" y1="234" y2="234"/><line style="stroke:#181818;stroke-width:0.5;" x1="354" x2="354" y1="234" y2="273.0679"/><text fill="#000000" font-family="sans-serif" font-size="14" lengthAdjust="spacing" textLength="25" x="314" y="258.9659">n12</text></g><!--entity n20--><g id="elem_n20"><polygon fill="#F1F1F1" points="442,16,452,6,507,6,507,45.0679,497,55.0679,442,55.0679,442,16" style="stroke:#181818;stroke-width:0.5;"/><line style="stroke:#181818;stroke-width:0.5;" x1="497" x2="507" y1="16" y2="6"/><line style="stroke:#181818;stroke-width:0.5;" x1="442" x2="497" y1="16" y2="16"/><line style="stroke:#181818;stroke-width:0.5;" x1="497" x2="497" y1="16" y2="55.0679"/><text fill="#000000" font-family="sans-serif" font-size="14" lengthAdjust="spacing" textLength="25" x="457" y="40.9659">n20</text></g><!--entity n21--><g id="elem_n21"><polygon fill="#F1F1F1" points="442,125,452,115,507,115,507,154.0679,497,164.0679,442,164.0679,442,125" style="stroke:#181818;stroke-width:0.5;"/><line style="stroke:#181818;stroke-width:0.5;" x1="497" x2="507" y1="125" y2="115"/><line style="stroke:#181818;stroke-width:0.5;" x1="442" x2="497" y1="125" y2="125"/><line style="stroke:#181818;stroke-width:0.5;" x1="497" x2="497" y1="125" y2="164.0679"/><text fill="#000000" font-family="sans-serif" font-size="14" lengthAdjust="spacing" textLength="25" x="457" y="149.9659">n21</text></g><!--entity n22--><g id="elem_n22"><polygon fill="#F1F1F1" points="420,234,430,224,485,224,485,263.0679,475,273.0679,420,273.0679,420,234" style="stroke:#181818;stroke-width:0.5;"/><line style="stroke:#181818;stroke-width:0.5;" x1="475" x2="485" y1="234" y2="224"/><line style="stroke:#181818;stroke-width:0.5;" x1="420" x2="475" y1="234" y2="234"/><line style="stroke:#181818;stroke-width:0.5;" x1="475" x2="475" y1="234" y2="273.0679"/><text fill="#000000" font-family="sans-serif" font-size="14" lengthAdjust="spacing" textLength="25" x="435" y="258.9659">n22</text></g><!--entity n23--><g id="elem_n23"><polygon fill="#F1F1F1" points="520,234,530,224,585,224,585,263.0679,575,273.0679,520,273.0679,520,234" style="stroke:#181818;stroke-width:0.5;"/><line style="stroke:#181818;stroke-width:0.5;" x1="575" x2="585" y1="234" y2="224"/><line style="stroke:#181818;stroke-width:0.5;" x1="520" x2="575" y1="234" y2="234"/><line style="stroke:#181818;stroke-width:0.5;" x1="575" x2="575" y1="234" y2="273.0679"/><text fill="#000000" font-family="sans-serif" font-size="14" lengthAdjust="spacing" textLength="25" x="535" y="258.9659">n23</text></g><!--link n1 to n2--><g id="link_n1_n2"><path d="M166.41,55.25 C156.63,72.98 143.33,97.1 133.56,114.82 " fill="none" id="n1-n2" style="stroke:#181818;stroke-width:1.0;"/></g><!--link n2 to n3--><g id="link_n2_n3"><path d="M103.63,164.25 C91.04,181.98 73.9,206.1 61.32,223.82 " fill="none" id="n2-n3" style="stroke:#181818;stroke-width:1.0;"/></g><!--link n3 to n4--><g id="link_n3_n4"><path d="M61.37,273.25 C73.96,290.98 91.1,315.1 103.68,332.82 " fill="none" id="n3-n4" style="stroke:#181818;stroke-width:1.0;"/></g><!--link n4 to n5--><g id="link_n4_n5"><path d="M129.6,382.25 C136.39,399.98 145.64,424.1 152.43,441.82 " fill="none" id="n4-n5" style="stroke:#181818;stroke-width:1.0;"/></g><!--link n5 to n1--><g id="link_n5_n1"><path d="M163.07,441.75 C164.13,425.05 165.52,402.16 166.5,382 C172.46,259.14 177.11,111.94 178.8,55.31 " fill="none" id="n5-n1" style="stroke:#181818;stroke-width:1.0;"/></g><!--link n2 to n4--><g id="link_n2_n4"><path d="M120.5,164.03 C120.5,205.47 120.5,291.02 120.5,332.67 " fill="none" id="n2-n4" style="stroke:#181818;stroke-width:1.0;"/></g><!--link n10 to n11--><g id="link_n10_n11"><path d="M306.4,55.25 C302.58,72.98 297.4,97.1 293.59,114.82 " fill="none" id="n10-n11" style="stroke:#181818;stroke-width:1.0;"/></g><!--link n11 to n12--><g id="link_n11_n12"><path d="M298.04,164.25 C305.17,181.98 314.86,206.1 321.98,223.82 " fill="none" id="n11-n12" style="stroke:#181818;stroke-width:1.0;"/></g><!--link n10 to n12--><g id="link_n10_n12"><path d="M321.33,55.13 C327.64,71.59 335.23,94.23 338.5,115 C344.46,152.77 339.74,197.27 335.7,223.89 " fill="none" id="n10-n12" style="stroke:#181818;stroke-width:1.0;"/></g><!--link n20 to n21--><g id="link_n20_n21"><path d="M474.5,55.25 C474.5,72.98 474.5,97.1 474.5,114.82 " fill="none" id="n20-n21" style="stroke:#181818;stroke-width:1.0;"/></g><!--link n21 to n22--><g id="link_n21_n22"><path d="M469.62,164.25 C465.97,181.98 461.01,206.1 457.37,223.82 " fill="none" id="n21-n22" style="stroke:#181818;stroke-width:1.0;"/></g><!--link n21 to n23--><g id="link_n21_n23"><path d="M491.81,164.25 C504.74,181.98 522.32,206.1 535.24,223.82 " fill="none" id="n21-n23" style="stroke:#181818;stroke-width:1.0;"/></g><!--SRC=[LK_93S0W3FjdYYo0H1pOgFtI_N-Lae3CpmOViQhg-fvNbuaU3C9EU12UWVF1jBNZGf2oUP3oZI1fN3E8iMU8K85r9doUWRjx1fN0yfQId5_8bGtEnZMTjyEf21crrQZHkAdB3m00]--></g></svg>