<?xml version="1.0" encoding="us-ascii" standalone="no"?><svg xmlns="http://www.w3.org/2000/svg" xmlns:xlink="http://www.w3.org/1999/xlink" contentStyleType="text/css" height="617px" preserveAspectRatio="none" style="width:356px;height:617px;background:#FFFFFF;" version="1.1" viewBox="0 0 356 617" width="356px" zoomAndPan="magnify"><defs/><g><!--entity n0--><g id="elem_n0"><polygon fill="#F1F1F1" points="190,16,200,6,247,6,247,45.0679,237,55.0679,190,55.0679,190,16" style="stroke:#181818;stroke-width:0.5;"/><line style="stroke:#181818;stroke-width:0.5;" x1="237" x2="247" y1="16" y2="6"/><line style="stroke:#181818;stroke-width:0.5;" x1="190" x2="237" y1="16" y2="16"/><line style="stroke:#181818;stroke-width:0.5;" x1="237" x2="237" y1="16" y2="55.0679"/><text fill="#000000" font-family="sans-serif" font-size="14" lengthAdjust="spacing" textLength="17" x="205" y="40.9659">n0</text></g><!--entity n1--><g id="elem_n1"><polygon fill="#F1F1F1" points="190,125,200,115,247,115,247,154.0679,237,164.0679,190,164.0679,190,125" style="stroke:#181818;stroke-width:0.5;"/><line style="stroke:#181818;stroke-width:0.5;" x1="237" x2="247" y1="125" y2="115"/><line style="stroke:#181818;stroke-width:0.5;" x1="190" x2="237" y1="125" y2="125"/><line style="stroke:#181818;stroke-width:0.5;" x1="237" x2="237" y1="125" y2="164.0679"/><text fill="#000000" font-family="sans-serif" font-size="14" lengthAdjust="spacing" textLength="17" x="205" y="149.9659">n1</text></g><!--entity n2--><g id="elem_n2"><polygon fill="#F1F1F1" points="282,125,292,115,339,115,339,154.0679,329,164.0679,282,164.0679,282,125" style="stroke:#181818;stroke-width:0.5;"/><line style="stroke:#181818;stroke-width:0.5;" x1="329" x2="339" y1="125" y2="115"/><line style="stroke:#181818;stroke-width:0.5;" x1="282" x2="329" y1="125" y2="125"/><line style="stroke:#181818;stroke-width:0.5;" x1="329" x2="329" y1="125" y2="164.0679"/><text fill="#000000" font-family="sans-serif" font-size="14" lengthAdjust="spacing" textLength="17" x="297" y="149.9659">n2</text></g><!--entity n3--><g id="elem_n3"><polygon fill="#F1F1F1" points="16,234,26,224,73,224,73,263.0679,63,273.0679,16,273.0679,16,234" style="stroke:#181818;stroke-width:0.5;"/><line style="stroke:#181818;stroke-width:0.5;" x1="63" x2="73" y1="234" y2="224"/><line style="stroke:#181818;stroke-width:0.5;" x1="16" x2="63" y1="234" y2="234"/><line style="stroke:#181818;stroke-width:0.5;" x1="63" x2="63" y1="234" y2="273.0679"/><text fill="#000000" font-family="sans-serif" font-size="14" lengthAdjust="spacing" textLength="17" x="31" y="258.9659">n3</text></g><!--entity n4--><g id="elem_n4"><polygon fill="#F1F1F1" points="108,234,118,224,165,224,165,263.0679,155,273.0679,108,273.0679,108,234" style="stroke:#181818;stroke-width:0.5;"/><line style="stroke:#181818;stroke-width:0.5;" x1="155" x2="165" y1="234" y2="224"/><line style="stroke:#181818;stroke-width:0.5;" x1="108" x2="155" y1="234" y2="234"/><line style="stroke:#181818;stroke-width:0.5;" x1="155" x2="155" y1="234" y2="273.0679"/><text fill="#000000" font-family="sans-serif" font-size="14" lengthAdjust="spacing" textLength="17" x="123" y="258.9659">n4</text></g><!--entity n5--><g id="elem_n5"><polygon fill="#F1F1F1" points="200,234,210,224,257,224,257,263.0679,247,273.0679,200,273.0679,200,234" style="stroke:#181818;stroke-width:0.5;"/><line style="stroke:#181818;stroke-width:0.5;" x1="247" x2="257" y1="234" y2="224"/><line style="stroke:#181818;stroke-width:0.5;" x1="200" x2="247" y1="234" y2="234"/><line style="stroke:#181818;stroke-width:0.5;" x1="247" x2="247" y1="234" y2="273.0679"/><text fill="#000000" font-family="sans-serif" font-size="14" lengthAdjust="spacing" textLength="17" x="215" y="258.9659">n5</text></g><!--entity n6--><g id="elem_n6"><polygon fill="#F1F1F1" points="282,343,292,333,339,333,339,372.0679,329,382.0679,282,382.0679,282,343" style="stroke:#181818;stroke-width:0.5;"/><line style="stroke:#181818;stroke-width:0.5;" x1="329" x2="339" y1="343" y2="333"/><line style="stroke:#181818;stroke-width:0.5;" x1="282" x2="329" y1="343" y2="343"/><line style="stroke:#181818;stroke-width:0.5;" x1="329" x2="329" y1="343" y2="382.0679"/><text fill="#000000" font-family="sans-serif" font-size="14" lengthAdjust="spacing" textLength="17" x="297" y="367.9659">n6</text></g><!--entity n7--><g id="elem_n7"><polygon fill="#F1F1F1" points="149,561,159,551,206,551,206,590.0679,196,600.0679,149,600.0679,149,561" style="stroke:#181818;stroke-width:0.5;"/><line style="stroke:#181818;stroke-width:0.5;" x1="196" x2="206" y1="561" y2="551"/><line style="stroke:#181818;stroke-width:0.5;" x1="149" x2="196" y1="561" y2="561"/><line style="stroke:#181818;stroke-width:0.5;" x1="196" x2="196" y1="561" y2="600.0679"/><text fill="#000000" font-family="sans-serif" font-size="14" lengthAdjust="spacing" textLength="17" x="164" y="585.9659">n7</text></g><!--entity n8--><g id="elem_n8"><polygon fill="#F1F1F1" points="190,452,200,442,247,442,247,481.0679,237,491.0679,190,491.0679,190,452" style="stroke:#181818;stroke-width:0.5;"/><line style="stroke:#181818;stroke-width:0.5;" x1="237" x2="247" y1="452" y2="442"/><line style="stroke:#181818;stroke-width:0.5;" x1="190" x2="237" y1="452" y2="452"/><line style="stroke:#181818;stroke-width:0.5;" x1="237" x2="237" y1="452" y2="491.0679"/><text fill="#000000" font-family="sans-serif" font-size="14" lengthAdjust="spacing" textLength="17" x="205" y="476.9659">n8</text></g><!--entity n9--><g id="elem_n9"><polygon fill="#F1F1F1" points="190,343,200,333,247,333,247,372.0679,237,382.0679,190,382.0679,190,343" style="stroke:#181818;stroke-width:0.5;"/><line style="stroke:#181818;stroke-width:0.5;" x1="237" x2="247" y1="343" y2="333"/><line style="stroke:#181818;stroke-width:0.5;" x1="190" x2="237" y1="343" y2="343"/><line style="stroke:#181818;stroke-width:0.5;" x1="237" x2="237" y1="343" y2="382.0679"/><text fill="#000000" font-family="sans-serif" font-size="14" lengthAdjust="spacing" textLength="17" x="205" y="367.9659">n9</text></g><!--link n0 to n3--><g id="link_n0_n3"><path d="M199.55,55.03 C166.17,96.47 97.25,182.02 63.69,223.67 " fill="none" id="n0-n3" style="stroke:#181818;stroke-width:1.0;"/></g><!--link n0 to n2--><g id="link_n0_n2"><path d="M238.92,55.25 C254.16,72.98 274.91,97.1 290.14,114.82 " fill="none" id="n0-n2" style="stroke:#181818;stroke-width:1.0;"/></g><!--link n0 to n1--><g id="link_n0_n1"><path d="M218.5,55.25 C218.5,72.98 218.5,97.1 218.5,114.82 " fill="none" id="n0-n1" style="stroke:#181818;stroke-width:1.0;"/></g><!--link n1 to n5--><g id="link_n1_n5"><path d="M220.72,164.25 C222.38,181.98 224.63,206.1 226.29,223.82 " fill="none" id="n1-n5" style="stroke:#181818;stroke-width:1.0;"/></g><!--link n5 to n9--><g id="link_n5_n9"><path d="M226.28,273.25 C224.62,290.98 222.37,315.1 220.71,332.82 " fill="none" id="n5-n9" style="stroke:#181818;stroke-width:1.0;"/></g><!--link n3 to n4--><g id="link_n3_n4"><path d="M73.25,248.5 C84.78,248.5 96.31,248.5 107.84,248.5 " fill="none" id="n3-n4" style="stroke:#181818;stroke-width:1.0;"/></g><!--link n2 to n6--><g id="link_n2_n6"><path d="M310.5,164.03 C310.5,205.47 310.5,291.02 310.5,332.67 " fill="none" id="n2-n6" style="stroke:#181818;stroke-width:1.0;"/></g><!--link n6 to n7--><g id="link_n6_n7"><path d="M305.87,382 C299.64,409.71 286.71,456.35 264.5,491 C249.02,515.15 225.19,537.36 206.39,552.8 " fill="none" id="n6-n7" style="stroke:#181818;stroke-width:1.0;"/></g><!--link n3 to n7--><g id="link_n3_n7"><path d="M54.17,273.13 C78.74,333.17 143.34,491.01 167.86,550.95 " fill="none" id="n3-n7" style="stroke:#181818;stroke-width:1.0;"/></g><!--link n4 to n7--><g id="link_n4_n7"><path d="M139.48,273.13 C147.06,333.17 166.97,491.01 174.53,550.95 " fill="none" id="n4-n7" style="stroke:#181818;stroke-width:1.0;"/></g><!--link n9 to n8--><g id="link_n9_n8"><path d="M218.5,382.25 C218.5,399.98 218.5,424.1 218.5,441.82 " fill="none" id="n9-n8" style="stroke:#181818;stroke-width:1.0;"/></g><!--link n4 to n9--><g id="link_n4_n9"><path d="M154.7,273.25 C168.29,290.98 186.78,315.1 200.35,332.82 " fill="none" id="n4-n9" style="stroke:#181818;stroke-width:1.0;"/></g><!--link n8 to n7--><g id="link_n8_n7"><path d="M209.4,491.25 C202.61,508.98 193.36,533.1 186.57,550.82 " fill="none" id="n8-n7" style="stroke:#181818;stroke-width:1.0;"/></g><!--SRC=[DOsx3S0m24Hxfc019DlnTn-d9LBsBs8Tb-ez7N3uis_r90vcif0NMSb6TdAGarmYuadDS1fIVZdb6N9Q6cI9NsgluK51T9exP60MKjLss48q4KN1v99y]--></g></svg>