<?xml version="1.0" encoding="us-ascii" standalone="no"?><svg xmlns="http://www.w3.org/2000/svg" xmlns:xlink="http://www.w3.org/1999/xlink" contentStyleType="text/css" height="52px" preserveAspectRatio="none" style="width:211px;height:52px;background:#FFFFFF;" version="1.1" viewBox="0 0 211 52" width="211px" zoomAndPan="magnify"><defs/><g><g id="elem_A"><rect fill="#F1F1F1" height="39.0679" style="stroke:#181818;stroke-width:0.5;" width="23" x="7" y="7"/><text fill="#000000" font-family="sans-serif" font-size="14" lengthAdjust="spacing" textLength="9" x="14" y="23.9659">A</text><line style="stroke:#181818;stroke-width:0.5;" x1="8" x2="29" y1="30.0679" y2="30.0679"/></g><g id="elem_B"><rect fill="#F1F1F1" height="39.0679" style="stroke:#181818;stroke-width:0.5;" width="23" x="65" y="7"/><text fill="#000000" font-family="sans-serif" font-size="14" lengthAdjust="spacing" textLength="9" x="72" y="23.9659">B</text><line style="stroke:#181818;stroke-width:0.5;" x1="66" x2="87" y1="30.0679" y2="30.0679"/></g><g id="elem_C"><rect fill="#F1F1F1" height="39.0679" style="stroke:#181818;stroke-width:0.5;" width="23" x="123" y="7"/><text fill="#000000" font-family="sans-serif" font-size="14" lengthAdjust="spacing" textLength="9" x="130" y="23.9659">C</text><line style="stroke:#181818;stroke-width:0.5;" x1="124" x2="145" y1="30.0679" y2="30.0679"/></g><g id="elem_D"><rect fill="#F1F1F1" height="39.0679" style="stroke:#181818;stroke-width:0.5;" width="24" x="181.5" y="7"/><text fill="#000000" font-family="sans-serif" font-size="14" lengthAdjust="spacing" textLength="10" x="188.5" y="23.9659">D</text><line style="stroke:#181818;stroke-width:0.5;" x1="182.5" x2="204.5" y1="30.0679" y2="30.0679"/></g><!--link A to B--><g id="link_A_B"><path codeLine="6" d="M30.28,26.5 C41.84,26.5 47.39,26.5 58.95,26.5 " fill="none" id="A-to-B" style="stroke:#181818;stroke-width:1.0;"/><polygon fill="#181818" points="64.95,26.5,55.95,22.5,59.95,26.5,55.95,30.5,64.95,26.5" style="stroke:#181818;stroke-width:1.0;"/></g><!--link B to C--><g id="link_B_C"><path codeLine="7" d="M88.28,26.5 C99.84,26.5 105.39,26.5 116.95,26.5 " fill="none" id="B-to-C" style="stroke:#181818;stroke-width:1.0;"/><polygon fill="#181818" points="122.95,26.5,113.95,22.5,117.95,26.5,113.95,30.5,122.95,26.5" style="stroke:#181818;stroke-width:1.0;"/></g><!--link C to D--><g id="link_C_D"><path codeLine="8" d="M146.02,26.5 C157.77,26.5 163.51,26.5 175.26,26.5 " fill="none" id="C-to-D" style="stroke:#181818;stroke-width:1.0;"/><polygon fill="#181818" points="181.26,26.5,172.26,22.5,176.26,26.5,172.26,30.5,181.26,26.5" style="stroke:#181818;stroke-width:1.0;"/></g><!--SRC=[oq_AIaqkKN3aoeSmd60CPnZ3XOlBKK7N3YZZ1AASkPn1b0i0]--></g></svg>